<svg width="34" height="34" viewBox="0 0 34 34" fill="none" xmlns="http://www.w3.org/2000/svg">
<g clip-path="url(#clip0_211_122)">
<circle cx="17" cy="17" r="17" fill="#F5F5F5"/>
<path d="M6.83887 16.3594C7.24902 16.3594 7.56803 16.3024 7.7959 16.1885C8.15397 16.0094 8.33301 15.6872 8.33301 15.2217C8.33301 14.7529 8.14258 14.4372 7.76172 14.2744C7.54688 14.1833 7.22786 14.1377 6.80469 14.1377H5.07129V16.3594H6.83887ZM7.16602 19.6699C7.76172 19.6699 8.18652 19.4974 8.44043 19.1523C8.59993 18.9342 8.67969 18.6706 8.67969 18.3613C8.67969 17.8405 8.44694 17.4857 7.98145 17.2969C7.73405 17.196 7.4069 17.1455 7 17.1455H5.07129V19.6699H7.16602ZM4.11914 13.3271H7.2002C8.04004 13.3271 8.63737 13.5778 8.99219 14.0791C9.20052 14.3753 9.30469 14.7171 9.30469 15.1045C9.30469 15.557 9.17611 15.9281 8.91895 16.2178C8.78548 16.3708 8.59342 16.5107 8.34277 16.6377C8.71061 16.7777 8.98568 16.9355 9.16797 17.1113C9.49023 17.4238 9.65137 17.8551 9.65137 18.4053C9.65137 18.8675 9.50651 19.2858 9.2168 19.6602C8.78385 20.2201 8.09538 20.5 7.15137 20.5H4.11914V13.3271ZM14.4951 17.5605L13.4062 14.3916L12.249 17.5605H14.4951ZM12.8984 13.3271H13.9971L16.5996 20.5H15.5352L14.8076 18.3516H11.9707L11.1943 20.5H10.1982L12.8984 13.3271ZM17.4834 13.3271H18.6309L22.2539 19.1377V13.3271H23.1768V20.5H22.0879L18.4111 14.6943V20.5H17.4834V13.3271ZM24.71 13.3271H25.6572V16.8232L29.1533 13.3271H30.4961L27.5127 16.2178L30.5791 20.5H29.3145L26.8047 16.9014L25.6572 18V20.5H24.71V13.3271Z" fill="#999999"/>
</g>
<defs>
<clipPath id="clip0_211_122">
<rect width="34" height="34" fill="white"/>
</clipPath>
</defs>
</svg>
