<svg width="34" height="34" viewBox="0 0 34 34" fill="none" xmlns="http://www.w3.org/2000/svg"><g clip-path="url(#a)"><circle cx="17" cy="17" r="17" fill="#0064FF"/><path d="M17.986 12.8252L18.7362 9.30178C18.7699 9.1248 18.6182 8.96467 18.4411 9.00681C17.3538 9.20065 16.2243 9.53787 15.1032 10.0181C10.0624 12.1508 7.011 16.3317 8.29223 19.3578C9.26164 21.6253 12.3889 22.5947 16.0219 22.03L15.2717 25.5534C15.238 25.7304 15.3897 25.8905 15.5667 25.8484C16.6541 25.6545 17.7836 25.3173 18.9047 24.8371C23.9455 22.7044 26.9885 18.5235 25.7072 15.4889C24.7462 13.2299 21.619 12.2605 17.986 12.8252Z" fill="white"/></g><defs><clipPath id="a"><rect width="34" height="34" fill="white"/></clipPath></defs></svg>