<svg width="34" height="34" viewBox="0 0 34 34" fill="none" xmlns="http://www.w3.org/2000/svg"><g clip-path="url(#a)"><circle cx="17" cy="17" r="17" fill="#C6E6FF"/><g clip-path="url(#b)"><path d="M11.1125 12.6147C10.7601 13.2819 11.1183 14.6666 11.5647 15.3337L17.6968 24.5276H13.2211C12.5104 24.5276 11.8232 24.1464 11.5177 23.6923L8.16979 18.6749C7.85849 18.204 7.87024 17.464 8.17566 17.0099L11.1125 12.6147Z" fill="url(#c)"/><path d="M13.7025 17.1441C13.5381 17.3908 13.3912 17.9682 13.6379 18.4391L11.5645 15.3334C11.124 14.6663 10.7598 13.2816 11.1123 12.6144L11.4764 12.065C11.8112 11.5605 12.4279 11.2354 13.2091 11.2354H17.6202L13.7025 17.1441Z" fill="url(#d)"/><path d="M23.5843 20.6775C23.9367 20.0104 23.5784 18.6257 23.132 17.9586L17 8.76465H21.4816C22.1923 8.76465 22.8854 9.14586 23.1849 9.59995L26.5329 14.6174C26.8442 15.0883 26.8324 15.8283 26.5329 16.2824L23.5843 20.6775Z" fill="url(#e)"/><path d="M20.9939 16.1475C21.1583 15.9009 21.3052 15.3234 21.0585 14.8525L23.1319 17.9583C23.5783 18.6254 23.9366 20.0101 23.5841 20.6772L23.2141 21.2266C22.8793 21.7312 22.2626 22.0563 21.4814 22.0563H17.0703L20.9939 16.1475Z" fill="url(#f)"/></g></g><defs><radialGradient id="c" cx="0" cy="0" r="1" gradientUnits="userSpaceOnUse" gradientTransform="translate(8.08374 16.3425) rotate(-90) scale(11.2826 13.04)"><stop stop-color="#C7DFF4"/><stop offset="0.0668" stop-color="#BFDBF2"/><stop offset="0.1698" stop-color="#A8D0EF"/><stop offset="0.25" stop-color="#92C5EB"/><stop offset="0.3283" stop-color="#87B6E2"/><stop offset="0.4862" stop-color="#6C92CB"/><stop offset="0.7" stop-color="#4764AF"/><stop offset="0.8029" stop-color="#3C5AA8"/><stop offset="1" stop-color="#21409A"/></radialGradient><radialGradient id="d" cx="0" cy="0" r="1" gradientUnits="userSpaceOnUse" gradientTransform="translate(17.6617 11.0832) scale(8.35495 7.97436)"><stop stop-color="#C7DFF4"/><stop offset="0.0668" stop-color="#BFDBF2"/><stop offset="0.1698" stop-color="#A8D0EF"/><stop offset="0.25" stop-color="#92C5EB"/><stop offset="0.3283" stop-color="#87B6E2"/><stop offset="0.4862" stop-color="#6C92CB"/><stop offset="0.7" stop-color="#4764AF"/><stop offset="0.8029" stop-color="#3C5AA8"/><stop offset="1" stop-color="#21409A"/></radialGradient><radialGradient id="e" cx="0" cy="0" r="1" gradientUnits="userSpaceOnUse" gradientTransform="translate(26.6169 16.9498) rotate(90) scale(11.2829 13.0403)"><stop stop-color="#C7DFF4"/><stop offset="0.0668" stop-color="#BFDBF2"/><stop offset="0.1698" stop-color="#A8D0EF"/><stop offset="0.25" stop-color="#92C5EB"/><stop offset="0.3283" stop-color="#87B6E2"/><stop offset="0.4862" stop-color="#6C92CB"/><stop offset="0.7" stop-color="#4764AF"/><stop offset="0.8029" stop-color="#3C5AA8"/><stop offset="1" stop-color="#21409A"/></radialGradient><radialGradient id="f" cx="0" cy="0" r="1" gradientUnits="userSpaceOnUse" gradientTransform="translate(17.0373 22.2084) rotate(180) scale(8.35527 7.97466)"><stop stop-color="#C7DFF4"/><stop offset="0.0668" stop-color="#BFDBF2"/><stop offset="0.1698" stop-color="#A8D0EF"/><stop offset="0.25" stop-color="#92C5EB"/><stop offset="0.3283" stop-color="#87B6E2"/><stop offset="0.4862" stop-color="#6C92CB"/><stop offset="0.7" stop-color="#4764AF"/><stop offset="0.8029" stop-color="#3C5AA8"/><stop offset="1" stop-color="#21409A"/></radialGradient><clipPath id="a"><rect width="34" height="34" fill="white"/></clipPath><clipPath id="b"><rect width="28" height="28" fill="white" transform="translate(3 3)"/></clipPath></defs></svg>