<svg width="34" height="34" viewBox="0 0 34 34" fill="none" xmlns="http://www.w3.org/2000/svg"><g clip-path="url(#a)"><circle cx="17" cy="17" r="17" fill="#F4F5F7"/><mask id="b" style="mask-type:alpha" maskUnits="userSpaceOnUse" x="8" y="9" width="11" height="13"><path d="M14.5162 9C13.7792 9.00529 12.955 9.12113 12.0648 9.41867C11.3468 9.65859 10.7447 9.97259 10.1887 10.4906C9.9279 10.7338 9.64359 11.0399 9.40074 11.3985C8.82801 12.2427 8.48578 13.3761 9.21698 14.6559C9.21698 14.6559 9.79354 15.881 11.2254 16.6299C11.2254 16.6299 13.6225 17.8762 13.5098 19.5682C13.5098 19.5682 13.561 20.8019 12.821 21.4102C12.821 21.4102 12.9209 21.3611 13.0824 21.2656C13.3331 21.1165 13.7327 20.8554 14.1364 20.4906C14.7867 19.9034 15.4477 19.049 15.5144 17.9674C15.5144 17.9674 15.6144 16.7254 14.2543 15.4095C13.9538 15.119 13.6063 14.8817 13.2444 14.6727C12.7387 14.381 11.8369 13.7492 11.6323 12.8648C11.5506 12.5099 11.6261 12.1395 11.804 11.8219C12.1903 11.1322 13.2208 9.8591 15.4371 10.256C15.4371 10.256 17.2829 10.4571 17.387 11.6714C17.6642 11.1163 17.9412 10.5621 18.2187 10.0076C18.2187 10.0076 17.2553 9.32224 15.6658 9.08174C15.3433 9.03293 14.9943 9.00265 14.6227 9H14.5162Z" fill="white"/></mask><g mask="url(#b)"><path fill-rule="evenodd" clip-rule="evenodd" d="M14.5162 9C13.7792 9.00529 12.955 9.12113 12.0648 9.41867C11.3468 9.65859 10.7447 9.97259 10.1887 10.4906C9.9279 10.7338 9.64359 11.0399 9.40074 11.3985C8.82801 12.2427 8.48578 13.3761 9.21698 14.6559C9.21698 14.6559 9.79354 15.881 11.2254 16.6299C11.2254 16.6299 13.6225 17.8762 13.5098 19.5682C13.5098 19.5682 13.561 20.8019 12.821 21.4102C12.821 21.4102 12.9209 21.3611 13.0824 21.2656C13.3331 21.1165 13.7327 20.8554 14.1364 20.4906C14.7867 19.9034 15.4477 19.049 15.5144 17.9674C15.5144 17.9674 15.6144 16.7254 14.2543 15.4095C13.9538 15.119 13.6063 14.8817 13.2444 14.6727C12.7387 14.381 11.8369 13.7492 11.6323 12.8648C11.5506 12.5099 11.6261 12.1395 11.804 11.8219C12.1903 11.1322 13.2208 9.8591 15.4371 10.256C15.4371 10.256 17.2829 10.4571 17.387 11.6714C17.6642 11.1163 17.9412 10.5621 18.2187 10.0076C18.2187 10.0076 17.2553 9.32224 15.6658 9.08174C15.3433 9.03293 14.9943 9.00265 14.6227 9H14.5162Z" fill="url(#c)"/></g><mask id="d" style="mask-type:alpha" maskUnits="userSpaceOnUse" x="5" y="9" width="22" height="16"><path d="M21.9792 9.29004H19.8535C20.5332 9.7193 20.1328 10.8207 20.1328 10.8207C19.1008 13.0943 18.0688 15.3681 17.0365 17.642C16.148 19.721 14.7994 20.9902 14.7994 20.9902C12.9277 22.7375 10.3466 22.3371 10.3466 22.3371C6.39685 21.9037 6.56708 17.8152 6.56708 17.8152C6.26866 18.4697 5.96994 19.1244 5.67152 19.7792C5.44778 20.2696 5.22374 20.7606 5 21.251C7.46029 24.3846 10.0029 24.0962 10.0029 24.0962C12.5593 24.3434 14.5327 22.5808 14.5327 22.5808C14.7603 22.3921 14.8315 22.4571 14.8315 22.4571C14.4107 23.8912 15.5612 23.9771 15.5612 23.9771H17.6019C16.1792 23.8274 18.925 19.4643 18.925 19.4643C21.6825 15.0497 23.6486 15.7295 23.6486 15.7295C24.8858 15.8162 24.1063 18.3638 24.1063 18.3638L22.3202 22.6784C22.0909 23.6663 22.696 23.9048 23.0594 23.9606C23.2037 23.9827 23.3099 23.9759 23.3099 23.9759H25.1289C24.4071 23.7019 24.7946 22.7858 24.7946 22.7858C27.0197 17.1881 26.945 16.1679 26.945 16.1679C26.9806 15.965 26.9979 15.7792 27 15.6092V15.5393C26.9932 14.9947 26.8254 14.6187 26.6007 14.3594C26.1238 13.809 25.3891 13.7831 25.3891 13.7831C23.1402 13.7831 20.789 15.3881 20.789 15.3881C20.4594 15.5404 20.5109 15.2053 20.5109 15.2053C21.2574 13.5118 22.0039 11.818 22.7504 10.1241C23.0285 9.41411 22.2714 9.29004 22.2714 9.29004H21.9792Z" fill="white"/></mask><g mask="url(#d)"><path d="M21.9792 9.29004H19.8535C20.5332 9.7193 20.1328 10.8207 20.1328 10.8207C19.1008 13.0943 18.0688 15.3681 17.0365 17.642C16.148 19.721 14.7994 20.9902 14.7994 20.9902C12.9277 22.7375 10.3466 22.3371 10.3466 22.3371C6.39685 21.9037 6.56708 17.8152 6.56708 17.8152C6.26866 18.4697 5.96994 19.1244 5.67152 19.7792C5.44778 20.2696 5.22374 20.7606 5 21.251C7.46029 24.3846 10.0029 24.0962 10.0029 24.0962C12.5593 24.3434 14.5327 22.5808 14.5327 22.5808C14.7603 22.3921 14.8315 22.4571 14.8315 22.4571C14.4107 23.8912 15.5612 23.9771 15.5612 23.9771H17.6019C16.1792 23.8274 18.925 19.4643 18.925 19.4643C21.6825 15.0497 23.6486 15.7295 23.6486 15.7295C24.8858 15.8162 24.1063 18.3638 24.1063 18.3638L22.3202 22.6784C22.0909 23.6663 22.696 23.9048 23.0594 23.9606C23.2037 23.9827 23.3099 23.9759 23.3099 23.9759H25.1289C24.4071 23.7019 24.7946 22.7858 24.7946 22.7858C27.0197 17.1881 26.945 16.1679 26.945 16.1679C26.9806 15.965 26.9979 15.7792 27 15.6092V15.5393C26.9932 14.9947 26.8254 14.6187 26.6007 14.3594C26.1238 13.809 25.3891 13.7831 25.3891 13.7831C23.1402 13.7831 20.789 15.3881 20.789 15.3881C20.4594 15.5404 20.5109 15.2053 20.5109 15.2053C21.2574 13.5118 22.0039 11.818 22.7504 10.1241C23.0285 9.41411 22.2714 9.29004 22.2714 9.29004H21.9792Z" fill="url(#e)"/></g></g><defs><linearGradient id="c" x1="13.7086" y1="19.5417" x2="11.4685" y2="9.29401" gradientUnits="userSpaceOnUse"><stop stop-color="#0991D8"/><stop offset="1" stop-color="#04A6EA"/></linearGradient><linearGradient id="e" x1="8.38113" y1="24.7298" x2="28.3739" y2="13.9984" gradientUnits="userSpaceOnUse"><stop stop-color="#2D6297"/><stop offset="1" stop-color="#2C6FB9"/></linearGradient><clipPath id="a"><rect width="34" height="34" fill="white"/></clipPath></defs></svg>