<svg width="400" height="380" viewBox="0 0 400 380" fill="none" xmlns="http://www.w3.org/2000/svg">
<path d="M96.5866 380C89.3384 380 83.6073 379.089 79.3932 377.268C75.1791 375.245 72.7349 372.412 72.0607 368.77L1.01138 22.4601C0.337126 20.2343 0 17.5027 0 14.2652C0 9.81363 2.2756 6.3738 6.8268 3.94569C11.5466 1.31523 18.6262 0 28.0657 0H39.6966C57.2271 0 67.2566 5.6656 69.7851 16.9968L103.413 190.607C103.919 193.642 105.942 205.075 109.482 224.904L117.32 268.307C119.343 253.536 123.22 232.998 128.951 206.693L132.491 190.607L169.659 11.5335C170.333 7.48669 172.693 4.55272 176.738 2.73163C180.952 0.910543 186.768 0 194.185 0H211.378C218.795 0 224.526 0.910543 228.571 2.73163C232.786 4.55272 235.23 7.48669 235.904 11.5335L271.555 190.607C275.938 212.865 281.079 239.979 286.979 271.949C287.653 268.307 290.013 255.559 294.058 233.706L302.149 190.607L337.042 16.9968C339.57 5.6656 349.6 0 367.13 0H372.187C381.458 0 388.369 1.31523 392.92 3.94569C397.64 6.3738 400 9.81363 400 14.2652C400 15.6816 399.916 17.098 399.747 18.5144C399.579 19.7284 399.41 21.0437 399.241 22.4601L325.917 368.77C325.074 372.412 322.377 375.245 317.826 377.268C313.274 379.089 307.712 380 301.138 380H268.268C261.694 380 256.131 379.089 251.58 377.268C247.029 375.245 244.416 372.412 243.742 368.77L206.827 182.109L199.747 145.383L191.909 182.109L153.729 368.77C152.887 372.412 150.19 375.245 145.638 377.268C141.087 379.089 135.525 380 128.951 380H96.5866Z" fill="#74A4F3"/>
</svg>
