<svg width="34" height="34" viewBox="0 0 34 34" fill="none" xmlns="http://www.w3.org/2000/svg"><g clip-path="url(#a)"><ellipse cx="17" cy="17" rx="17" ry="17" fill="#60584C"/><path d="M26.6774 17.39L26.5043 17.2785C25.9146 16.6832 25.0928 16.4255 23.9946 16.491C23.0802 16.5471 22.3552 16.9135 21.8011 17.254C21.8011 17.2453 21.8004 17.2367 21.8004 17.2288C21.8004 16.9394 21.8325 16.6256 21.8652 16.3204C21.8966 16.0109 21.93 15.6956 21.93 15.3976C21.93 15.0931 21.8958 14.8045 21.7926 14.5576C21.7662 14.4942 21.7085 14.4568 21.6359 14.4568C21.3403 14.4633 20.7635 14.6677 20.6239 14.7915C20.6239 14.7922 20.5477 14.9599 20.5477 14.9599C20.5427 15.2903 20.4708 16.2138 20.3974 16.3261C20.4003 16.3218 20.359 16.437 20.359 16.437C20.2343 17.755 20.2322 18.9146 20.3469 19.9101C20.3597 20.0094 20.5498 20.1584 20.6958 20.2131C20.8568 20.2729 21.3589 20.1368 21.6487 20.0267C21.6452 20.0281 21.757 20.0094 21.757 20.0094C21.8488 19.9993 21.9023 19.9216 21.8987 19.8158C21.8973 19.8136 21.9058 19.5293 21.9058 19.5293C22.1152 18.6706 22.9613 17.6448 23.9619 17.4915C24.528 17.4008 24.9746 17.5477 25.3278 17.9364C25.3755 18.0062 25.4788 18.6245 25.1056 19.335C24.8279 19.8611 24.2724 20.3045 23.5424 20.581C22.8509 20.8466 22.0903 20.9538 21.1509 20.9214C21.1117 20.8955 20.2714 20.3204 20.2714 20.3204C19.5264 19.792 18.5999 19.1334 17.761 18.8124C17.6135 18.7548 17.3493 18.5331 17.1905 18.4006L17.1036 18.3287C16.6201 17.9364 15.6985 17.3152 14.9585 16.8178C14.9585 16.8178 14.6245 16.591 14.5604 16.5478C14.5612 16.5198 14.5612 16.4629 14.5612 16.4629C14.5825 16.4391 15.0476 16.1577 15.0476 16.1577C15.6985 15.7726 15.999 15.5847 16.0631 15.4868C16.0503 15.5027 16.1493 15.435 16.1493 15.435C16.1557 15.4321 17.7624 14.5122 17.7624 14.5122C19.3114 13.6527 21.0654 12.676 21.987 11.7121C21.9884 11.7107 22.0326 11.5646 22.0326 11.5646L22.0525 11.4336C22.1138 11.227 22.1173 11.0693 22.0653 10.8858C22.0525 10.8332 22.0048 10.7728 21.9407 10.7613C21.2207 10.6886 20.2934 11.1248 19.4481 11.9259C19.2572 12.1066 19.0977 12.1951 18.9282 12.288L18.7986 12.3607C17.8671 12.8955 15.769 14.212 14.6701 14.9225C14.7428 13.7283 14.9607 12.0303 15.2299 10.6151L15.2 10.446C15.1971 10.4402 15.086 10.2322 15.086 10.2322L15.0006 10.0789L14.9764 10.0717C14.757 9.95939 14.5782 10.0055 14.4465 10.0386L14.2271 10.1206L13.9344 10.2279C13.8768 10.2394 13.8362 10.2754 13.8134 10.3322C13.2892 11.6135 12.8512 13.7219 12.7472 15.4077C11.6989 14.7339 10.7297 14.2488 10.2546 14.0148L10.2418 14.0076L10.1856 13.9954C10.0139 13.9731 9.80597 13.8464 9.60585 13.7233C9.58448 13.7103 9.20632 13.462 9.20632 13.462L8.59741 13.0675C8.60239 13.0711 8.43646 13.0308 8.43646 13.0308C8.17509 13.0762 7.673 13.4174 7.52345 13.6506C7.50422 13.6815 7.49567 13.7147 7.49567 13.7492C7.49567 13.7982 7.51134 13.8478 7.52345 13.8953L7.55051 14.0206L7.579 14.0962C7.87099 14.3985 8.60809 14.9023 9.33024 15.2954L10.1678 15.7438L11.4497 16.4514C11.4497 16.4571 11.6683 16.627 11.6683 16.627L11.8193 16.7141C11.8193 16.7141 11.8371 16.7249 11.8471 16.7314C11.5059 16.9625 9.5154 18.3056 9.5154 18.3056L8.28975 19.1269C8.17366 19.2068 7.6901 19.4257 7.58327 19.4688C7.31763 19.5783 7.1168 19.7467 7.03347 19.9288L7 19.9986L7.03276 20.0461L7.12677 20.1181C7.12249 20.1181 7.25211 20.2009 7.25211 20.2009L7.38742 20.2945C7.39027 20.2959 7.5149 20.3153 7.5149 20.3153C7.72998 20.324 8.04903 20.1995 8.64655 19.9353C9.19492 19.6898 10.6834 18.7814 11.3208 18.3942L11.5921 18.23C11.7046 18.2394 11.8271 18.1437 11.9382 18.0594C12.0657 17.9565 12.3434 17.7838 12.5129 17.7082C12.5179 17.7067 12.6148 17.652 12.7059 17.6009C12.7052 17.629 12.7045 17.6743 12.7045 17.6743C12.733 19.643 12.8448 21.0733 13.0578 22.1761L13.0606 22.1948L13.0813 22.2394C13.1859 22.3949 13.3049 22.8613 13.411 23.2723L13.6531 24.0936C13.6581 24.1037 13.7215 24.1707 13.7215 24.1707C13.8597 24.2657 14.282 24.4298 14.5633 24.396L14.6331 24.3873L14.678 24.2873C14.7015 24.1642 14.71 24.044 14.71 23.9108C14.71 23.7611 14.6993 23.5955 14.6858 23.3925L14.6666 23.0967C14.5775 21.7226 14.4885 19.7395 14.4885 18.4201V18.315C14.72 18.4611 15.7298 19.1046 15.7298 19.1046C17.4497 20.2318 20.0463 21.9349 21.616 22.3848C21.6979 22.41 21.7833 22.3906 21.8439 22.3323C21.846 22.3294 22.0853 22.1753 22.0853 22.1753L22.1309 22.1566C22.2206 22.1134 22.2811 21.9601 22.2918 21.7938C23.6143 21.7269 25.4596 21.2115 26.4466 19.9569C26.8291 19.4703 27 18.875 27 18.3654C27.0007 17.9486 26.886 17.5887 26.6774 17.39Z" fill="#FFB829"/></g><defs><clipPath id="a"><rect width="34" height="34" fill="white"/></clipPath></defs></svg>