<svg width="34" height="34" viewBox="0 0 34 34" fill="none" xmlns="http://www.w3.org/2000/svg"><g clip-path="url(#a)"><circle cx="17" cy="17" r="17" fill="#F4F5F7"/><path d="M28 12.6881V21.3113C28 24.7557 26.0285 27.6128 18.7776 27.9631C18.2834 27.9869 17.7643 27.999 17.2202 27.9994H16.7823C8.25229 27.9994 6 24.9903 6 21.3113V12.6881C6 9.0091 8.25166 6 16.7823 6H17.2164C25.7483 6 28 9.0091 28 12.6881Z" fill="url(#b)"/><path d="M22.2987 16.3414C22.9561 15.5214 23.3657 14.0103 22.8078 12.4179C21.859 9.71214 19.1601 9.56828 18.2419 9.56641H17.0342V28H17.2218C17.766 28 18.2851 27.9879 18.7792 27.9638V24.0577C20.3279 24.0465 22.4069 23.426 23.332 21.4239C24.4284 19.049 23.3451 17.2321 22.2987 16.3414ZM18.7805 22.2208V11.4228C18.8205 11.4228 18.98 11.4228 19.0144 11.4228C20.3616 11.4853 21.403 12.6337 21.403 13.9484C21.403 15.6997 19.7549 16.5291 19.5836 16.5866C19.6599 16.5866 21.9397 17.2746 21.9397 19.4012C21.9397 21.0349 20.4611 22.2176 18.7805 22.2176V22.2208Z" fill="white"/><path d="M13.4202 16.4516C12.9061 16.0069 12.0442 15.0881 12.0842 13.9422C12.1192 12.9077 12.6121 12.1071 13.4408 11.7437C14.1814 11.4198 15.0795 11.4147 15.6299 11.4172C15.6762 11.4172 15.7181 11.4172 15.755 11.4172V9.57276C15.7138 9.57276 15.7063 9.57276 15.66 9.57276C14.9544 9.57276 13.7836 9.56526 12.7159 10.0306C11.2067 10.6905 10.2716 12.144 10.2141 13.9147C10.1678 15.3333 10.8671 16.7406 12.1837 17.877C13.4383 18.9603 14.0776 19.5877 13.7648 20.9462C13.5009 22.0876 11.7233 23.6175 11.1541 24.0272H13.7185C14.334 23.5593 15.3341 22.4229 15.5862 21.3377C16.1672 18.8215 14.6436 17.5067 13.4202 16.4516Z" fill="white"/></g><defs><linearGradient id="b" x1="17.0006" y1="10.7204" x2="17.0006" y2="24.8108" gradientUnits="userSpaceOnUse"><stop stop-color="#92C83E"/><stop offset="0.6" stop-color="#009D54"/><stop offset="1" stop-color="#007360"/></linearGradient><clipPath id="a"><rect width="34" height="34" fill="white"/></clipPath></defs></svg>