<svg width="34" height="34" viewBox="0 0 34 34" fill="none" xmlns="http://www.w3.org/2000/svg"><g clip-path="url(#a)"><circle cx="17" cy="17" r="17" fill="#0BA744"/><path d="M20.8965 7.25L16.9973 9.20574L13.1064 7.25L16.9973 14.6571L20.8965 7.25Z" fill="#FFC03B"/><path d="M22.2558 12.9718L22.1981 12.9224L24.9774 11.7531V7.8457L20.1477 9.90438L17.4714 14.9728C18.4998 15.0941 19.4429 15.6038 20.1079 16.3975C20.7728 17.1913 21.1093 18.2091 21.0486 19.2428C20.9878 20.2764 20.5344 21.2478 19.781 21.9582C19.0277 22.6686 18.0313 23.0643 16.9959 23.0643C15.9604 23.0643 14.9641 22.6686 14.2107 21.9582C13.4574 21.2478 13.0039 20.2764 12.9432 19.2428C12.8824 18.2091 13.219 17.1913 13.8839 16.3975C14.5489 15.6038 15.492 15.0941 16.5203 14.9728C16.4627 14.8575 13.8482 9.90438 13.8482 9.90438L9.02676 7.8457V11.7531L11.8019 12.9224L11.7442 12.9718C10.5161 14.042 9.64392 15.4617 9.24437 17.0409C8.84481 18.6202 8.9369 20.2838 9.50832 21.8093C10.0797 23.3348 11.1033 24.6495 12.442 25.5777C13.7808 26.5058 15.371 27.0031 17 27.0031C18.629 27.0031 20.2192 26.5058 21.558 25.5777C22.8967 24.6495 23.9203 23.3348 24.4917 21.8093C25.0631 20.2838 25.1552 18.6202 24.7556 17.0409C24.3561 15.4617 23.4839 14.042 22.2558 12.9718Z" fill="#FFC03B"/></g><defs><clipPath id="a"><rect width="34" height="34" fill="white"/></clipPath></defs></svg>