<svg width="34" height="34" viewBox="0 0 34 34" fill="none" xmlns="http://www.w3.org/2000/svg"><g clip-path="url(#a)"><ellipse cx="17" cy="17" rx="17" ry="17" transform="matrix(-1 0 0 1 34 0)" fill="#008485"/><path d="M20.4453 19.3119C20.3972 19.0233 20.3202 18.7394 20.1999 18.4796C19.8343 17.6858 19.3195 17.0123 18.5497 16.5648C17.3518 15.8672 15.9037 15.872 14.7202 16.5889C14.1814 16.9112 13.7435 17.3779 13.4597 17.936C13.3635 18.1236 13.2865 18.3257 13.2191 18.5277C12.9064 19.5188 12.9209 20.8514 13.4838 21.7559C13.6666 22.0542 13.9312 22.3044 14.2583 22.4294C14.5807 22.5545 14.9704 22.5401 15.259 22.3525C15.6343 22.1071 15.7016 21.6453 15.6343 21.2315C15.5477 20.7023 15.4755 20.1875 15.6728 19.6679C15.7353 19.5044 15.8219 19.3408 15.947 19.2253C16.024 19.1483 16.1154 19.0906 16.2116 19.0425C16.4137 18.9415 16.6494 18.8982 16.8707 18.9367C17.2604 18.9992 17.5827 19.3023 17.7559 19.6631C17.9291 20.0191 17.9772 20.4233 17.9965 20.8226C18.0783 22.5545 17.6693 24.3394 17.2267 26.004C17.1834 26.1772 17.1353 26.3456 17.0872 26.514C17.0487 26.6439 16.9862 26.8123 17.068 26.9422C17.1064 26.9951 17.1594 27.0336 17.2219 27.0624C17.4769 27.1635 17.6886 27.0095 17.857 26.8363C18.8721 25.8164 19.5216 24.503 19.9642 23.1463C20.1278 22.6411 20.2721 22.1312 20.3683 21.6068C20.4982 20.8899 20.5752 20.0721 20.4453 19.3119Z" fill="white"/><path d="M27.7002 11.3227C27.7002 11.0629 27.4693 10.8897 27.2239 10.8993C26.9737 10.9089 26.7428 11.0388 26.5119 11.1254C22.0569 12.8189 17.0246 13.1412 12.329 12.4629C11.5256 12.3474 10.7125 12.1838 9.90427 12.0588C9.39912 11.977 8.89877 11.8663 8.38881 11.823C7.95101 11.799 7.41217 11.7797 7.06097 12.0828C6.5943 12.4821 6.62798 13.2423 6.89258 13.7426C7.21011 14.3392 7.76338 14.7962 8.33589 15.133C8.89396 15.465 9.56269 15.821 10.2266 15.7777C12.0211 15.6622 13.8108 15.4938 15.5957 15.2581C18.6411 14.8636 21.8308 14.4931 24.6885 13.3096C25.6218 12.9247 26.5456 12.4436 27.3442 11.8182C27.4933 11.7172 27.7002 11.5344 27.7002 11.3227Z" fill="white"/><path d="M14.9189 9.79932C14.9189 10.7711 15.7031 11.5553 16.6701 11.5553C17.6371 11.5553 18.4213 10.7711 18.4213 9.79932C18.4213 9.65499 18.3876 9.51066 18.3251 9.38076C18.1759 9.06323 18.0075 8.90928 18.022 8.5244C18.0508 8.00962 17.3869 8 17.0309 8C16.6412 8 16.2323 8.05292 15.8811 8.23093C15.602 8.37045 15.3615 8.58694 15.1931 8.85155C15.0199 9.12096 14.9237 9.43849 14.9141 9.76083V9.79932" fill="white"/></g><defs><clipPath id="a"><rect width="34" height="34" fill="white"/></clipPath></defs></svg>