<svg width="34" height="34" viewBox="0 0 34 34" fill="none" xmlns="http://www.w3.org/2000/svg"><g clip-path="url(#a)"><circle cx="17" cy="17" r="17" fill="#D7191F"/><path d="M16.2499 17.9313H15.3608V21.1565H15.8743C16.1119 21.1565 16.251 20.9947 16.251 20.7843V19.7967H17.078V19.0037H16.251V17.9313H16.2499ZM17.4422 21.7979H23.4457V21.1011H17.4422V21.7979ZM19.3744 23.3137V22.2843H18.3981V23.5061C18.3981 23.8477 18.6187 24.1294 19.1787 24.1294H22.7998V23.4325H19.5011C19.4309 23.4325 19.3755 23.3794 19.3755 23.3149L19.3744 23.3137ZM9.03491 18.6451H8.05978V19.3216H9.03491V19.9076H8.05978V20.5796H9.03491V21.2617H9.54962C9.78718 21.2617 9.92406 21.1011 9.92406 20.8906V17.9313H9.03491V18.6451ZM7.96702 21.3341C6.96814 21.3341 6.15365 21.9834 6.15252 22.7934C6.15478 23.6033 6.96814 24.2504 7.96702 24.2527C8.96251 24.2504 9.77813 23.6033 9.77813 22.7934C9.77813 21.9834 8.96251 21.3352 7.96702 21.3341ZM7.96702 23.54C7.4772 23.54 7.08466 23.2029 7.08353 22.7922C7.08353 22.3805 7.47607 22.0445 7.96702 22.0445C8.45798 22.0445 8.84599 22.3816 8.84712 22.7922C8.84599 23.2018 8.45458 23.54 7.96702 23.54ZM20.4457 20.6553C21.4592 20.6531 22.2896 20.0207 22.2907 19.2255C22.2907 18.4325 21.4592 17.799 20.4457 17.7979C19.4287 17.799 18.6006 18.4325 18.5984 19.2255C18.6006 20.0207 19.4287 20.6531 20.4457 20.6553ZM20.4457 18.4834C20.9649 18.4856 21.3789 18.8205 21.3801 19.2255C21.3801 19.6316 20.9649 19.9676 20.4457 19.9676C19.9264 19.9676 19.509 19.6316 19.509 19.2255C19.509 18.8194 19.9242 18.4845 20.4457 18.4834ZM7.94213 18.1655V18.1338H4.78147V18.8205H6.9014C6.71814 19.6814 5.73283 20.3895 4.66042 20.6667L4.62988 20.6757L4.79617 21.264L4.82672 21.2583C6.42628 20.9336 7.88444 20.0072 7.94213 18.1666V18.1655ZM12.2148 23.5061C12.2148 23.8477 12.4343 24.1294 12.9965 24.1294H15.4705C16.0316 24.1294 16.251 23.8477 16.251 23.5061V21.644H12.2148V23.5061ZM13.1628 22.3318H15.311V23.3149C15.311 23.3816 15.2544 23.4325 15.1843 23.4325H13.2883C13.2193 23.4325 13.1628 23.3805 13.1628 23.3149V22.3318ZM14.7974 20.6248L14.8121 20.6158V19.9743L14.7623 20.0038C14.5474 20.1361 14.2307 20.1825 13.8212 20.1825H12.3924C12.3223 20.1825 12.2668 20.1293 12.2668 20.0637V18.1327H11.2521V20.2549C11.2521 20.5954 11.4727 20.8782 12.0327 20.8782H13.6911C14.1458 20.8782 14.4954 20.8058 14.7974 20.6237V20.6248ZM26.8631 20.0796C26.8631 19.6836 26.6822 19.3284 26.3711 19.0942H26.9265V18.4698H25.9061V17.9279H24.9559V18.4698H23.9287V19.0931H24.4977C24.1867 19.3273 24.0057 19.6825 24.0057 20.0784C24.0068 20.7854 24.6324 21.3556 25.4344 21.3556C26.2217 21.3556 26.862 20.7854 26.862 20.0784L26.8631 20.0796ZM25.4355 20.7413C25.0351 20.7413 24.7692 20.4427 24.7681 20.0671C24.7692 19.6915 25.0362 19.3918 25.4355 19.3906C25.8337 19.3906 26.1007 19.6904 26.103 20.0671C26.1007 20.4427 25.8337 20.7413 25.4355 20.7413ZM28.5283 17.9279V19.1101H28.1143V17.9279H27.2715V21.0954H27.7523C27.9808 21.0954 28.1143 20.9393 28.1143 20.7368V19.8601H28.5283V21.0954H29.008C29.2365 21.0954 29.37 20.9393 29.3711 20.7368V17.9279H28.5283ZM27.4706 21.3624C26.474 21.3635 25.6595 22.0049 25.6584 22.807C25.6595 23.6079 26.474 24.2493 27.4706 24.2515C28.4695 24.2493 29.284 23.609 29.2851 22.807C29.2851 22.0049 28.4695 21.3635 27.4706 21.3624ZM27.4706 23.557C26.9763 23.557 26.5803 23.2187 26.5792 22.8081C26.5792 22.3963 26.9763 22.0592 27.4706 22.0592C27.965 22.0592 28.3632 22.3974 28.3654 22.8081C28.3632 23.2187 27.9661 23.557 27.4706 23.557Z" fill="white"/><path d="M25.8373 10.919H26.3407C26.3735 10.919 26.4006 10.8918 26.4006 10.859V9.9099C26.4006 9.87709 26.3735 9.85107 26.3407 9.85107H25.6336C24.8158 9.85107 24.3825 10.1124 24.1348 10.6678L22.5974 14.4337C22.5047 14.6588 22.37 14.7652 22.1053 14.7652V9.9099C22.1053 9.87709 22.0782 9.85107 22.0454 9.85107H20.9164C20.8825 9.85107 20.8564 9.87709 20.8564 9.9099V15.7301C20.8564 15.7867 20.904 15.8353 20.9605 15.8353H22.2286C23.0465 15.8353 23.4198 15.574 23.6664 15.0185L25.1845 11.2991C25.3056 11.0355 25.4809 10.9201 25.8373 10.9201V10.919Z" fill="white"/><path d="M12.028 12.8433C12.4828 12.6544 12.8572 12.2313 12.8572 11.5288C12.8572 10.4847 11.9613 9.8501 10.881 9.8501H7.53929C7.50649 9.8501 7.48047 9.87612 7.48047 9.90892V10.8592C7.48047 10.892 7.50649 10.9191 7.53929 10.9191H10.6479C11.1502 10.9191 11.4884 11.2257 11.4884 11.6035C11.4884 11.9813 11.1491 12.2868 10.6479 12.2868H8.80175V11.582C8.80175 11.5481 8.77573 11.5221 8.74179 11.5221H7.53929C7.50649 11.5221 7.48047 11.5481 7.48047 11.582V15.7755C7.48047 15.8083 7.50649 15.8343 7.53929 15.8343H10.8312C12.062 15.8343 12.9432 15.2608 12.9432 14.09C12.9432 13.5153 12.6038 13.039 12.028 12.8433ZM10.7124 14.7925H8.80175V13.3886H10.7124C11.2271 13.3886 11.5755 13.7031 11.5755 14.09C11.5755 14.4768 11.2271 14.7925 10.7124 14.7925Z" fill="white"/><path d="M27.007 15.7655L25.0692 13.2881C25.0636 13.2802 25.0556 13.2813 25.0522 13.2892L24.5307 14.5653C24.5273 14.5732 24.5273 14.5822 24.5319 14.589L25.3792 15.7237C25.4391 15.804 25.507 15.8345 25.6077 15.8345H26.9719C27.0127 15.8345 27.0285 15.7961 27.0047 15.7655H27.007Z" fill="white"/><path d="M15.0652 11.522H13.934C13.9012 11.522 13.874 11.548 13.874 11.5819V15.7754C13.874 15.8082 13.9 15.8342 13.934 15.8342H15.0652C15.0969 15.8342 15.124 15.8082 15.124 15.7754V11.5819C15.124 11.548 15.0969 11.522 15.0652 11.522Z" fill="white"/><path d="M19.7168 9.85107H18.5867C18.5539 9.85107 18.5279 9.87709 18.5279 9.9099V14.7663C18.2621 14.7663 18.1286 14.6588 18.0358 14.4348L16.4974 10.669C16.2496 10.1135 15.8164 9.85221 14.9996 9.85221H13.934C13.9012 9.85221 13.874 9.87822 13.874 9.91103V10.859C13.874 10.8918 13.9 10.919 13.934 10.919H14.7948C15.1512 10.919 15.3265 11.0343 15.4487 11.2979L16.9657 15.0174C17.2134 15.5729 17.5867 15.8342 18.4046 15.8342H19.6716C19.7293 15.8342 19.7768 15.7867 19.7768 15.729V9.9099C19.7768 9.87709 19.7508 9.85107 19.7168 9.85107Z" fill="white"/></g><defs><clipPath id="a"><rect width="34" height="34" fill="white"/></clipPath></defs></svg>