<svg width="34" height="34" viewBox="0 0 34 34" fill="none" xmlns="http://www.w3.org/2000/svg"><g clip-path="url(#a)"><ellipse cx="17" cy="17" rx="17" ry="17" fill="#004097"/><path d="M26 8H8V26H26V8Z" fill="#008CCF"/><path d="M8 8L12.4992 12.5L17 8H8Z" fill="#008CCF"/><path d="M8 8V17L12.5 12.5008L8 8Z" fill="#0098D7"/><path d="M17 17L12.5016 12.5L8 17H17Z" fill="#008CCF"/><path d="M17 17V8L12.5 12.4992L17 17Z" fill="#007AC6"/><path d="M17 8V17L21.5 12.5008L17 8Z" fill="#0067B6"/><path d="M26 17L21.5008 12.5L17 17H26Z" fill="#004294"/><path d="M8 17L12.4992 21.5L17 17H8Z" fill="#007AC6"/><path d="M8 17V26L12.5 21.5023L8 17Z" fill="#0067B6"/><path d="M17 26L12.5016 21.5L8 26H17Z" fill="#0055A7"/><path d="M17 26V17L12.5 21.4992L17 26Z" fill="#004999"/><path d="M17 17L21.4984 21.5L26 17H17Z" fill="#0B2C86"/><path d="M17 17V26L21.5 21.5023L17 17Z" fill="#004294"/><path d="M26 26L21.5008 21.5L17 26H26Z" fill="#0B2C86"/><path d="M26 26V17L21.5 21.4992L26 26Z" fill="#0B2C86"/><path d="M17 8L21.4984 12.5L26 8H17Z" fill="#0055A7"/><path d="M26 17V8L21.5 12.4992L26 17Z" fill="#004999"/><path d="M25.9996 19.0606L20.28 13.3999L11.5996 22.4416L14.7667 25.7323L20.28 20.0893L25.9996 25.9999V19.0606Z" fill="white"/></g><defs><clipPath id="a"><rect width="34" height="34" fill="white"/></clipPath></defs></svg>