<svg width="34" height="34" viewBox="0 0 34 34" fill="none" xmlns="http://www.w3.org/2000/svg"><mask id="a" style="mask-type:alpha" maskUnits="userSpaceOnUse" x="8" y="13" width="7" height="8"><path fill-rule="evenodd" clip-rule="evenodd" d="M8.57617 13.2983H14.1185V20.7026H8.57617V13.2983Z" fill="white"/></mask><g mask="url(#a)"><path fill-rule="evenodd" clip-rule="evenodd" d="M11.3474 19.38C10.5896 19.38 9.96176 18.7738 9.96176 18.0161C9.96176 17.2583 10.5896 16.6521 11.3474 16.6521C12.1051 16.6521 12.7329 17.2583 12.7329 18.0161C12.7329 18.7738 12.1051 19.38 11.3474 19.38ZM11.5855 15.3315C11.0443 15.3315 10.5463 15.5263 10.1566 15.8727L10.0267 15.981V13.2964H8.57617V17.9078C8.57617 19.6181 9.61537 20.7006 11.3041 20.7006C12.9494 20.7006 14.1402 19.5748 14.1402 18.0377C14.1185 16.4573 13.0577 15.3315 11.5855 15.3315Z" fill="#120063"/></g><path fill-rule="evenodd" clip-rule="evenodd" d="M6.266 13.2969L3.42987 16.566V13.2969H2.00098V20.4846H3.42987V17.2372L6.3093 20.4846H8.17119L4.98866 16.8908L8.08459 13.2969H6.266Z" fill="#120063"/><mask id="b" style="mask-type:alpha" maskUnits="userSpaceOnUse" x="27" y="13" width="5" height="8"><path fill-rule="evenodd" clip-rule="evenodd" d="M27.0635 13.2983H31.9996V20.4861H27.0635V13.2983Z" fill="white"/></mask><g mask="url(#b)"><path fill-rule="evenodd" clip-rule="evenodd" d="M31.9987 15.5047H30.3749L28.513 17.648V13.2964H27.0625V20.4841H28.513V18.3408L30.3749 20.4841H31.9987L29.8337 17.9944L31.9987 15.5047Z" fill="#120063"/></g><path fill-rule="evenodd" clip-rule="evenodd" d="M24.3435 15.3525C23.4775 15.3525 22.9362 15.7639 22.6764 16.0453V15.5257H21.3125V20.4836H22.7197V17.7773C22.7197 17.1062 23.196 16.6299 23.7806 16.6299C24.3651 16.6299 24.8414 17.1062 24.8414 17.7773V20.4836H26.2487V17.366C26.2487 16.1969 25.4043 15.3525 24.3435 15.3525Z" fill="#120063"/><mask id="c" style="mask-type:alpha" maskUnits="userSpaceOnUse" x="14" y="15" width="7" height="6"><path fill-rule="evenodd" clip-rule="evenodd" d="M14.7373 15.3545H20.2797V20.702H14.7373V15.3545Z" fill="white"/></mask><g mask="url(#c)"><path fill-rule="evenodd" clip-rule="evenodd" d="M17.5528 19.3799C16.795 19.3799 16.1888 18.7737 16.1888 18.016C16.1888 17.2582 16.795 16.652 17.5528 16.652C18.3105 16.652 18.9167 17.2582 18.9167 18.016C18.9167 18.7737 18.2889 19.3799 17.5528 19.3799ZM17.5095 15.353C15.9074 15.353 14.7383 16.4788 14.7383 18.0376C14.7383 19.5747 15.7991 20.7005 17.293 20.7005C18.3322 20.7005 18.8951 19.9428 18.9167 19.9428L19.0033 19.8345V20.549H20.3023V18.0376C20.2806 16.4788 19.1116 15.353 17.5095 15.353Z" fill="#120063"/></g></svg>