<svg width="34" height="34" viewBox="0 0 34 34" fill="none" xmlns="http://www.w3.org/2000/svg"><g clip-path="url(#a)"><circle cx="17" cy="17" r="17" fill="#D7191F"/><path d="M28.9579 14.3128H29.6147C29.6347 14.3135 29.6541 14.3062 29.6688 14.2927C29.6834 14.2792 29.6922 14.2604 29.6932 14.2405V13.0775C29.6928 13.0675 29.6906 13.0577 29.6865 13.0486C29.6823 13.0395 29.6765 13.0313 29.6692 13.0245C29.6619 13.0176 29.6533 13.0123 29.644 13.0088C29.6347 13.0053 29.6247 13.0036 29.6147 13.0039H28.6919C27.6257 13.0039 27.0595 13.325 26.7311 14.0076L24.7274 18.6315C24.6048 18.9072 24.4296 19.0384 24.084 19.0384V13.0775C24.0834 13.0575 24.0749 13.0387 24.0605 13.0249C24.046 13.0111 24.0267 13.0036 24.0068 13.0039H22.5362C22.5162 13.0036 22.497 13.0111 22.4825 13.0249C22.4681 13.0387 22.4596 13.0575 22.459 13.0775V20.221C22.4595 20.2385 22.4634 20.2558 22.4705 20.2718C22.4777 20.2878 22.4879 20.3023 22.5007 20.3144C22.5134 20.3264 22.5284 20.3359 22.5448 20.3421C22.5612 20.3484 22.5787 20.3514 22.5962 20.3509H24.2495C25.3169 20.3509 25.8034 20.0298 26.1269 19.3472L28.1086 14.7785C28.2642 14.4549 28.4934 14.3128 28.9579 14.3128Z" fill="white"/><path d="M10.9364 16.6753C11.2648 16.5565 11.5468 16.3361 11.7414 16.0461C11.936 15.756 12.0331 15.4115 12.0185 15.0626C12.0185 13.7795 10.8481 13 9.43757 13H5.07843C5.06846 12.9997 5.05851 13.0014 5.04917 13.0049C5.03982 13.0084 5.03126 13.0137 5.02398 13.0206C5.01669 13.0274 5.01083 13.0356 5.00671 13.0447C5.0026 13.0538 5.00032 13.0636 5 13.0736V14.2403C5.00095 14.2602 5.00972 14.279 5.0244 14.2925C5.03907 14.306 5.05848 14.3132 5.07843 14.3126H9.13487C9.78929 14.3126 10.2378 14.6888 10.2378 15.1533C10.2378 15.6177 9.79419 15.9927 9.13487 15.9927H6.72552V15.1275C6.7252 15.1175 6.72292 15.1077 6.7188 15.0986C6.71469 15.0895 6.70883 15.0813 6.70154 15.0745C6.69426 15.0677 6.6857 15.0623 6.67635 15.0588C6.66701 15.0553 6.65706 15.0537 6.64708 15.054H5.07843C5.06846 15.0537 5.05851 15.0553 5.04917 15.0588C5.03982 15.0623 5.03126 15.0677 5.02398 15.0745C5.01669 15.0813 5.01083 15.0895 5.00671 15.0986C5.0026 15.1077 5.00032 15.1175 5 15.1275V20.2747C5.00032 20.2846 5.0026 20.2945 5.00671 20.3036C5.01083 20.3127 5.01669 20.3209 5.02398 20.3277C5.03126 20.3345 5.03982 20.3398 5.04917 20.3434C5.05851 20.3469 5.06846 20.3485 5.07843 20.3482H9.36771C10.9744 20.3482 12.1239 19.6423 12.1239 18.206C12.13 17.5026 11.6876 16.918 10.9364 16.6753ZM9.22065 19.07H6.72552V17.3469H9.2182C9.88978 17.3469 10.3444 17.7317 10.3444 18.2048C10.3444 18.6778 9.88978 19.07 9.2182 19.07H9.22065Z" fill="white"/><path d="M30.4868 20.2662L27.9586 17.2232C27.9576 17.2211 27.956 17.2194 27.954 17.2182C27.9521 17.217 27.9498 17.2163 27.9475 17.2163C27.9452 17.2163 27.943 17.217 27.941 17.2182C27.9391 17.2194 27.9375 17.2211 27.9365 17.2232L27.2551 18.7894C27.2524 18.7938 27.251 18.7989 27.251 18.8041C27.251 18.8093 27.2524 18.8144 27.2551 18.8188L28.3581 20.2135C28.3926 20.2589 28.4379 20.2951 28.4899 20.3186C28.5419 20.3421 28.5989 20.3523 28.6559 20.3483H30.4378C30.4481 20.3506 30.459 20.3497 30.4687 20.3455C30.4785 20.3413 30.4867 20.3342 30.4922 20.3251C30.4976 20.3159 30.5 20.3053 30.4991 20.2947C30.4981 20.2842 30.4938 20.2741 30.4868 20.2662Z" fill="white"/><path d="M14.8977 15.0552H13.4271C13.4171 15.0549 13.4071 15.0565 13.3978 15.0601C13.3885 15.0636 13.3799 15.0689 13.3726 15.0757C13.3653 15.0826 13.3595 15.0908 13.3553 15.0999C13.3512 15.1089 13.3489 15.1188 13.3486 15.1287V20.2759C13.3489 20.2859 13.3512 20.2957 13.3553 20.3048C13.3595 20.3139 13.3653 20.3221 13.3726 20.3289C13.3799 20.3357 13.3885 20.3411 13.3978 20.3446C13.4071 20.3481 13.4171 20.3497 13.4271 20.3494H14.8977C14.9077 20.3497 14.9176 20.3481 14.9269 20.3446C14.9363 20.3411 14.9448 20.3357 14.9521 20.3289C14.9594 20.3221 14.9653 20.3139 14.9694 20.3048C14.9735 20.2957 14.9758 20.2859 14.9761 20.2759V15.1287C14.9758 15.1188 14.9735 15.1089 14.9694 15.0999C14.9653 15.0908 14.9594 15.0826 14.9521 15.0757C14.9448 15.0689 14.9363 15.0636 14.9269 15.0601C14.9176 15.0565 14.9077 15.0549 14.8977 15.0552Z" fill="white"/><path d="M20.9711 13.0001H19.5005C19.4805 12.9998 19.4612 13.0073 19.4468 13.021C19.4323 13.0348 19.4239 13.0537 19.4233 13.0736V19.0382C19.0764 19.0382 18.9012 18.907 18.7799 18.6313L16.7737 14.0038C16.4502 13.3212 15.884 13.0001 14.8129 13.0001H13.4232C13.4132 12.9998 13.4032 13.0014 13.3939 13.0049C13.3845 13.0084 13.376 13.0138 13.3687 13.0206C13.3614 13.0274 13.3556 13.0356 13.3514 13.0447C13.3473 13.0538 13.345 13.0636 13.3447 13.0736V14.2403C13.3457 14.2602 13.3544 14.279 13.3691 14.2925C13.3838 14.3061 13.4032 14.3133 13.4232 14.3126H14.547C15.0126 14.3126 15.2418 14.4548 15.4048 14.7783L17.3865 19.347C17.7088 20.0296 18.1965 20.3507 19.2639 20.3507H20.9171C20.9519 20.3507 20.9854 20.3371 21.0103 20.3129C21.0353 20.2886 21.0498 20.2556 21.0507 20.2208V13.0773C21.0509 13.0669 21.0489 13.0566 21.045 13.047C21.041 13.0374 21.0351 13.0287 21.0276 13.0214C21.0202 13.0142 21.0113 13.0086 21.0016 13.0049C20.9918 13.0012 20.9815 12.9996 20.9711 13.0001Z" fill="white"/></g><defs><clipPath id="a"><rect width="34" height="34" fill="white"/></clipPath></defs></svg>