<svg width="34" height="34" viewBox="0 0 34 34" fill="none" xmlns="http://www.w3.org/2000/svg"><g clip-path="url(#a)"><ellipse cx="17" cy="17" rx="17" ry="17" fill="#C2EFFF"/><path d="M14.2349 26.8184C13.6697 27.1576 13.1566 27.3576 12.6175 27.3576C11.2261 27.3576 10.0696 26.2184 10 24.8445L12.7131 23.2271L16.9306 25.1141L14.2349 26.8184Z" fill="#4EB9E0"/><path d="M15.8522 19.8708L13.8348 18.9839C12.9391 18.5838 12.0869 18.2447 12.0869 17.2534C12.0869 16.7403 12.2434 16.4707 12.4869 16.2012L16.7479 18.0795L15.6957 18.6882C15.4 18.8708 15.2 19.0186 15.2 19.2447C15.2 19.4969 15.4696 19.7056 15.8522 19.8708Z" fill="#85D897"/><path d="M17.8267 10.5827L15.7657 11.8349C15.5744 11.9393 15.3309 12.1219 15.3309 12.4002C15.3309 12.7132 15.8092 12.9567 16.2353 13.1567L13.6526 12.0088C12.8874 11.6784 12.1309 11.2958 12.1309 10.3827C12.1309 10.0001 12.2439 9.68705 12.4178 9.41748L18.0006 6C18.6702 6.38262 19.3223 7.14785 19.3223 8.17397C19.3223 9.27834 18.7658 10.0175 17.8267 10.5827Z" fill="#4EB9E0"/><path d="M22.2174 14.6189L21.7043 14.9145L17.4434 13.0188L22.4 10.0361C23.0696 10.4274 23.7218 11.184 23.7218 12.2101C23.7218 13.3145 23.1826 14.071 22.2174 14.6189Z" fill="#85D897"/><path d="M18.6175 18.2358L21.1393 19.3489C22.0871 19.775 22.3741 20.2707 22.3741 20.8968C22.3741 21.2533 22.1741 21.6098 21.8871 21.862L17.6436 19.975L18.3566 19.575C18.9653 19.2446 19.1653 19.0359 19.1653 18.8185C19.1653 18.575 19.0262 18.4271 18.6175 18.2358Z" fill="#4EB9E0"/><path d="M23.1135 27.5479C22.0352 26.7218 20.896 26.1653 19.496 25.5305L13.061 22.6869C11.4436 21.9652 10.374 21.0086 10.374 19.3912C10.374 17.8172 11.1306 17.0607 12.1219 16.4346L12.4784 16.2085C12.2349 16.4781 12.0784 16.7476 12.0784 17.2607C12.0784 18.252 12.9306 18.5825 13.8263 18.9912L21.3134 22.2956C22.6178 22.8521 23.8091 23.8174 23.8091 25.4522C23.8178 26.3479 23.47 27.1479 23.1135 27.5479Z" fill="#00B415"/><path d="M22.3565 21.566L21.8869 21.853C22.1739 21.6095 22.3739 21.2443 22.3739 20.8877C22.3739 20.2616 22.0869 19.766 21.1391 19.3399L13.1388 15.818C11.5214 15.105 10.5127 14.1832 10.5127 12.5745C10.5127 11.0962 11.2518 10.1222 12.4171 9.40918C12.2345 9.67875 12.1301 9.9918 12.1301 10.3831C12.1301 11.2962 12.8954 11.6788 13.6519 12.0179L21.4347 15.4528C22.8521 16.0789 24 17.0268 24 18.7485C23.9913 20.0877 23.3652 20.9399 22.3565 21.566Z" fill="#0081BF"/></g><defs><clipPath id="a"><rect width="34" height="34" fill="white"/></clipPath></defs></svg>