<svg width="34" height="34" viewBox="0 0 34 34" fill="none" xmlns="http://www.w3.org/2000/svg"><g clip-path="url(#a)"><ellipse cx="17" cy="17" rx="17" ry="17" fill="#034EA2"/><path d="M28.7656 15.4092C28.9236 15.9272 29 16.4507 29 16.999C29 21.4185 23.6268 25.0004 16.9999 25.0004C15.0982 25.0004 13.2993 24.7029 11.7031 24.1793C12.7962 23.0717 14.0473 22.0963 17.4319 21.6858C20.8507 21.2725 28.9895 20.8592 28.7656 15.4092Z" fill="white"/><path d="M23.3375 14.5633C23.3375 13.8662 22.7975 13.5107 21.7045 13.5107C21.5122 13.5107 21.2883 13.5218 21.0539 13.5411C20.9749 13.8662 20.9512 14.5633 20.9512 15.6461V15.7425V15.9933H21.2567C22.6527 15.996 23.3375 15.445 23.3375 14.5633Z" fill="white"/><path d="M9.50828 13.4658C9.17378 13.4658 8.86561 13.4989 8.56271 13.5733C8.50477 13.9204 8.48633 14.6479 8.48633 15.7445V17.2819C8.48633 18.2408 8.50477 18.8359 8.53374 19.0591C8.58115 19.4145 8.83137 19.5 9.64525 19.5C11.2124 19.5 12.0921 18.4033 12.0921 16.5408C12.0921 14.5845 11.165 13.4658 9.50828 13.4658Z" fill="white"/><path d="M27.2012 14.4059C27.1512 13.1412 26.282 11.8876 25.3575 11.2566C23.195 9.85966 20.2477 9 17.0001 9C10.3705 9 5 12.5847 5 16.9987C5 20.1452 7.72083 22.8675 11.6796 24.1763C12.6252 22.3385 15.0352 21.4513 19.0203 20.6991C20.0818 20.4979 21.1511 20.2665 22.152 19.9524C22.1151 19.9524 22.0783 19.9551 22.044 19.9551C21.4698 19.9551 20.9404 19.8918 20.4689 19.8918H19.7051C19.9738 19.6328 19.9843 18.6188 19.9843 16.8086V16.3732C19.9843 14.4803 19.9843 13.414 19.7051 13.1412H20.6507C21.3697 13.1412 22.0467 13.0668 22.6867 13.0668C23.814 13.0668 24.4224 13.5518 24.4224 14.3398C24.4224 15.0975 23.8377 15.6871 22.6788 16.0564C24.0379 16.2051 24.7833 16.8774 24.7833 17.8776C24.7833 18.3157 24.6463 18.7097 24.3856 19.0404C26.1213 18.0898 27.2908 16.668 27.2012 14.4059ZM9.71996 19.9441C9.07992 19.9441 8.53207 19.8918 8.07377 19.8918H7.4232C7.65235 19.6328 7.66288 18.6188 7.66288 16.8086V16.3732C7.66288 14.4803 7.66288 13.414 7.4232 13.1412H8.12382C8.91926 13.1412 9.61461 13.0145 10.2467 13.0145C12.0352 13.0145 13.0677 14.2571 13.0677 16.2051C13.0677 18.4921 11.7928 19.9441 9.71996 19.9441ZM18.8623 18.4259C18.8623 19.0597 18.8728 19.5336 18.9703 19.8367C17.9457 19.9055 17.2187 20.0185 16.7894 20.0185C14.6743 20.0185 13.5365 18.8199 13.5365 16.7011C13.5365 14.4555 14.9614 13.0145 17.3609 13.0145C17.7797 13.0145 18.2881 13.0531 18.8623 13.1412L18.8517 14.3756C18.3829 13.797 17.7613 13.5022 16.9948 13.5022C15.4856 13.5022 14.5295 14.6567 14.5295 16.533C14.5295 18.4287 15.5699 19.5033 17.2529 19.5033C17.5032 19.5033 17.7323 19.4812 17.9615 19.4178C18.0194 19.0293 18.0378 18.6188 18.0378 18.1752C18.0378 17.3018 17.9825 16.7424 17.7982 16.5H19.0809C18.8807 16.8168 18.8623 17.4478 18.8623 18.4259Z" fill="white"/><path d="M20.9512 17.6825C20.9512 18.6193 21.0065 19.1787 21.0434 19.2916C21.0987 19.4625 21.4147 19.5672 21.9442 19.5672C23.0004 19.5672 23.6193 18.9775 23.6193 17.9663C23.6193 16.9854 22.945 16.3848 21.6623 16.3848H20.9512V17.6825Z" fill="white"/></g><defs><clipPath id="a"><rect width="34" height="34" fill="white"/></clipPath></defs></svg>