<svg width="34" height="34" viewBox="0 0 34 34" fill="none" xmlns="http://www.w3.org/2000/svg"><g clip-path="url(#a)"><path d="M24.0954 20.5964L24.0756 20.5927L24.0396 20.5427L24.0216 20.539L23.9371 20.4352L23.8813 20.3815V20.3648L23.8436 20.3314L23.8418 20.3129L23.8346 20.311L23.8148 20.2814L23.7968 20.2758L23.7878 20.2573L23.741 20.2388V20.2314L23.7032 20.2165V20.2073L23.6673 20.1924L23.6565 20.1739L23.6007 20.1461V20.1368L23.5737 20.122L23.5647 20.1016L23.5287 20.0868L23.5197 20.0683L23.5018 20.0646L23.4928 20.0442L23.464 20.0294L23.446 19.9997L23.428 19.996L23.419 19.9775L23.401 19.9738L23.3632 19.9237L23.3452 19.92L23.2715 19.8273L23.2535 19.8236V19.8144L23.2247 19.7921V19.7755L23.1492 19.6995V19.6828L23.1312 19.6698L23.1006 19.6272V19.6087L23.1474 19.5568L23.1671 19.5605L23.1851 19.5364L23.2031 19.5401L23.2121 19.5234L23.2409 19.5197V19.5104L23.2589 19.5142L23.2679 19.4975L23.2859 19.5012L23.2949 19.4845L23.3129 19.4882L23.3219 19.4715L23.3506 19.4678L23.3776 19.4382L23.3974 19.4419L23.4064 19.4252L23.4244 19.4289L23.4802 19.377L23.5089 19.3733V19.3548L23.5647 19.3122L23.6025 19.2936L23.6115 19.2677L23.6385 19.2547V19.2362L23.6673 19.2232V19.2047L23.6852 19.1991V19.1917L23.7032 19.1861V19.1676L23.7212 19.162L23.7302 19.1379L23.7392 19.1398L23.7482 19.1064L23.7662 19.1009L23.7752 19.0675L23.8022 19.0638L23.8292 19.0323L23.8472 19.0379L23.8651 19.0138L23.8831 19.0175L23.8921 19.0008L23.9101 19.0045L23.9479 18.9675L23.9677 18.9712L24.0324 18.9137L24.0504 18.9174L24.0594 18.9026L24.0864 18.8896V18.8729L24.0954 18.8748L24.1332 18.8377L24.153 18.8414V18.821L24.171 18.7988L24.2069 18.7803V18.7617L24.2339 18.7488V18.7321L24.2627 18.7191V18.7006L24.2807 18.6969V18.6691L24.3005 18.6728V18.645L24.3832 18.5912V18.5746L24.457 18.5542V18.5356L24.5128 18.519V18.5023L24.5973 18.4652L24.5955 18.4467L24.6153 18.4504L24.6801 18.3652L24.6981 18.3689V18.3522L24.7178 18.3559V18.3374L24.7376 18.3411L24.7736 18.2947V18.2669L24.8024 18.254L24.8204 18.2039L24.8402 18.2076L24.8582 18.1483L24.8762 18.152V18.1168L24.8941 18.1205V18.0853L24.9121 18.089L24.9211 18.0464L24.9301 18.0482L24.9409 17.9871L24.9499 17.9889V17.9704L24.9589 17.9723V17.9371L24.9679 17.9389V17.9204L24.9769 17.9222V17.8778L24.9949 17.8722V17.8092L25.0129 17.8036L25.0111 17.7239L25.0309 17.7184L25.0291 17.5683L25.0381 17.5701V17.5349L25.0471 17.5368L25.0273 17.4163L25.0255 17.2662L25.0057 17.2551V17.1754L24.9859 17.1624L24.9841 17.0994L24.9661 17.0864V17.0419L24.9571 17.0401V17.0216L24.9463 17.0197V16.9845L24.9373 16.9826V16.9548L24.9283 16.953V16.9363L24.9193 16.9345V16.8992L24.9085 16.8974L24.8995 16.8511L24.8815 16.8474V16.8418L24.8833 16.8436L24.9013 16.8474L24.9103 16.8677L24.9283 16.8714L24.9463 16.9011L24.9643 16.9048L24.9733 16.9233L24.9913 16.927L25.0291 16.9771L25.0471 16.9808L25.1208 17.0735L25.1766 17.1198L25.2054 17.168L25.2233 17.1717L25.2323 17.1995L25.2791 17.2439V17.2606L25.3259 17.3051V17.3218L25.3457 17.3329V17.3514L25.3727 17.3737V17.3922L25.3924 17.4033L25.3942 17.4219L25.4122 17.433L25.4212 17.4608L25.4302 17.4626L25.9987 18.1113L26.0167 18.1224V18.1409L26.0347 18.1539L26.0455 18.1817L26.0545 18.1835L26.1858 18.3392L26.2038 18.3429L26.2236 18.3726L26.2416 18.3763L26.2703 18.4152L26.2883 18.4189L26.3153 18.4597L26.3333 18.4634L26.3891 18.5356L26.5096 18.6635L26.5474 18.7136L26.7057 18.8841L26.7147 18.9026L26.7525 18.9174L26.7614 18.9359L26.7974 18.9508L26.8082 18.9712L27.1698 19.3362L27.1878 19.3399L27.2166 19.39L27.2256 19.3918V19.4104L27.2454 19.4233V19.4326L27.2652 19.4456V19.4641L27.2831 19.4752V19.4938L27.3101 19.516L27.4594 19.6754L27.4774 19.6791L27.4864 19.6976L27.5062 19.7013L27.5242 19.731L27.5422 19.7347L27.5602 19.7643L27.58 19.768L27.6088 19.8088L27.6267 19.8107L27.7005 19.9033L27.7185 19.907V19.9145L27.7455 19.9385V19.9552L27.83 20.0405L27.9524 20.1591V20.1683L27.9703 20.172V20.1813L27.9883 20.1924L28.0243 20.2091L28.0711 20.2443L28.0801 20.2629L28.1089 20.2851L28.1269 20.2888L28.1538 20.311L28.1628 20.3314L28.1916 20.3537L28.2096 20.3555L28.2276 20.3778L28.2384 20.3981L28.3877 20.5483L28.6018 20.7706L28.6216 20.791L28.6396 20.7947L28.6485 20.8133L29.1217 21.2617V21.2692L29.1505 21.2914L29.4293 21.6064L29.4473 21.6102L29.4851 21.662L29.5031 21.6658L29.512 21.6843L29.5678 21.738L29.6056 21.7807L29.6524 21.8418L29.6901 21.8918L29.7189 21.9326L29.7369 21.9623L29.7657 22.0197L29.8017 22.0698L29.8215 22.1087L29.8305 22.1272L29.8592 22.1847V22.2032V22.2106L29.8682 22.2125L29.879 22.2495L29.8862 22.2514V22.2699V22.2773L29.8952 22.2792V22.2959L29.9042 22.2977V22.3236L29.9132 22.3255V22.3514L29.9222 22.3533L29.924 22.3792L29.933 22.3811L29.9906 22.6461V22.7499L29.9996 22.7517L29.9942 22.9778L29.9852 22.976V23.0371L29.9762 23.0353V23.0779L29.9654 23.0761L29.9672 23.1187L29.9582 23.1168V23.152L29.9492 23.1502V23.1854L29.9402 23.1947V23.2206L29.9312 23.2188L29.9222 23.2781H29.9132V23.2947L29.9042 23.2929V23.3188L29.8952 23.317V23.3337H29.8862V23.3596L29.8772 23.3577L29.8592 23.4059L29.8502 23.4041V23.4226L29.8395 23.4208V23.4374L29.8305 23.4356V23.4541L29.8215 23.4523L29.8035 23.5004L29.7945 23.4986L29.7855 23.5227L29.7675 23.5282L29.7585 23.5616L29.7423 23.5653V23.582L29.7153 23.595V23.6116L29.6883 23.6246V23.6413L29.6524 23.6617V23.6802L29.5696 23.7321L29.4977 23.797L29.4797 23.7933L29.4545 23.8229L29.4365 23.8192L29.4185 23.8414L29.4005 23.8377L29.3807 23.86L29.3627 23.8581L29.3537 23.8729L29.325 23.8767V23.8859L29.289 23.8878L29.28 23.9026L29.2242 23.91L29.2152 23.9248L29.1343 23.936V23.9434L29.0983 23.9452V23.9545L29.0713 23.9489V23.9582L29.0533 23.9545V23.9619L29.0263 23.9563V23.9656L28.9975 23.96V23.9693L28.9706 23.9638V23.973L28.9436 23.9675V23.9749L28.9058 23.9675V23.9767L28.8698 23.9693V23.9786L28.823 23.9693V23.9786C28.823 23.9786 28.5478 23.9434 28.4381 23.9137C28.3265 23.8841 28.0477 23.7784 28.0477 23.7784L28.0063 23.7636L27.9937 23.758V23.7488L27.947 23.7302V23.7228L27.911 23.7062V23.6969L27.8822 23.6913V23.6821L27.8444 23.6672V23.658L27.8066 23.6413L27.7958 23.6228L27.7419 23.595V23.5876L27.472 23.4152V23.4059L27.4361 23.3985V23.3893L27.4091 23.3837V23.3744L27.3803 23.3689V23.3596L27.3533 23.3448L26.927 23.0446L26.909 23.0427L26.8712 22.9908L26.8532 22.9871L26.5941 22.7814V22.7721L26.5564 22.7573V22.748L26.5276 22.7425V22.7351L26.4718 22.7073V22.698L26.4538 22.6943L26.4161 22.6795L26.4071 22.6591L26.3531 22.6313L26.3423 22.6128L26.3243 22.609V22.5998L26.2973 22.5868L26.2883 22.5683L26.2703 22.5646L26.2505 22.5349L26.2326 22.5312L26.2236 22.5127L26.2056 22.509L26.1678 22.4589L26.1498 22.4552L25.844 22.1958V22.1865L25.7882 22.1587V22.1494L25.7702 22.1457V22.1383L25.7522 22.1346V22.1272L25.6965 22.0994L25.6875 22.0809L25.6497 22.0642L25.6407 22.0457L25.6029 22.029L25.5849 21.9993L25.5651 21.9975L25.5562 21.9771L25.5382 21.9734L25.5184 21.9437C25.5184 21.9437 25.2018 21.688 25.0848 21.5731C24.9679 21.4582 24.5865 21.1079 24.5451 21.0616L24.5092 21.0282V21.0116L24.4624 20.9689L24.4534 20.9411L24.4354 20.9115L24.0954 20.5964Z" fill="#AACF52"/><path d="M17.4248 18.5308V18.5474L17.4985 18.5975V18.616L17.5759 18.6642V18.6827L17.6029 18.6883V18.6975L17.6137 18.7161L17.6406 18.7476L17.6604 18.7513V18.7791L17.6802 18.7828L17.6982 18.831H17.7072V18.8495L17.727 18.8625V18.8884L17.745 18.8921V18.9107L17.7648 18.9144L17.7846 18.9607L17.8026 18.9644V18.9829L17.8223 18.9866L17.8691 19.0663L17.8871 19.07V19.0867L17.9627 19.146V19.1646L17.9824 19.1683V19.1849L18.0292 19.2109V19.2294L18.049 19.2331V19.2517L18.1138 19.2906L18.1228 19.3091L18.1516 19.3147L18.1605 19.3351L18.1803 19.3388V19.348L18.2073 19.361V19.3795L18.2451 19.3869V19.4055L18.2919 19.4314L18.425 19.5982V19.6149L18.4448 19.6186L18.5473 19.7354V19.7539L18.5671 19.7576V19.7743L18.5959 19.7798V19.7984L18.6139 19.8021V19.8187L18.7362 19.904L18.774 19.9374V19.9485L18.792 19.9522V19.9596L18.8118 19.9633L18.8208 19.9818L18.8495 19.9874L18.8585 20.0078L18.8873 20.0133V20.0226L18.9233 20.0374V20.056L18.9719 20.0819V20.0986L18.9899 20.1023V20.1208L19.0079 20.1245L19.0384 20.156V20.1746L19.0564 20.1783V20.1968L19.0744 20.1987L19.123 20.2524V20.2709L19.141 20.2746L19.2921 20.4099V20.4266L19.3209 20.4322V20.4507L19.3676 20.4766V20.4841L19.3964 20.4915L19.3946 20.4989L19.4324 20.5156V20.5341L19.472 20.5397V20.5582L19.5367 20.5786L19.5457 20.599L19.5835 20.6064V20.623L19.6303 20.6323L19.6393 20.6527L19.6861 20.662V20.6712L19.7148 20.6749V20.6842L19.7526 20.6916V20.699L19.8174 20.712L19.8264 20.7324L19.9307 20.7528L19.9397 20.7713L20.0333 20.7898V20.7991L20.0602 20.8028V20.8121L20.1088 20.8213V20.8306L20.1268 20.8343L20.1358 20.8528L20.2113 20.8769V20.8936L20.5478 20.9937L20.6701 21.0159V21.0085L20.6881 21.0122V21.003L20.8662 21.0196V21.0011L21.0335 20.99V20.9715H21.0605L21.0515 20.977V20.9955L21.0065 21.0215L20.9507 21.0623V21.0808L20.9237 21.0845L20.8608 21.142L20.8428 21.1382L20.814 21.1679L20.796 21.1642L20.769 21.1938L20.751 21.1901L20.733 21.2124L20.7151 21.2105L20.7043 21.2253L20.6773 21.2291V21.2365L20.6593 21.2346L20.6503 21.2494L20.6233 21.2531V21.2624L20.5675 21.268L20.5585 21.2847H20.5226V21.2939L20.5046 21.2921V21.2995L20.4848 21.2958V21.305L20.4308 21.3125V21.3217L20.4038 21.3162V21.3236L20.3984 21.3477L20.3805 21.3421L20.3355 21.3866L20.2941 21.381V21.3996L20.2401 21.4329L20.1574 21.5052L20.1376 21.5015L20.0656 21.5478L19.9559 21.5997L19.9289 21.6034V21.6127L19.9109 21.609L19.9019 21.6238L19.8642 21.6256L19.8552 21.6423L19.8372 21.6386L19.8192 21.6516L19.8012 21.6497V21.6572L19.7814 21.6553V21.6627L19.7634 21.659V21.6683L19.7454 21.6646V21.6738L19.7274 21.6701V21.6775L19.7076 21.6757L19.7094 21.6831L19.6537 21.6905V21.6998L19.6267 21.6942V21.7035L19.6087 21.6998V21.709L19.5799 21.7035L19.5817 21.7109L19.5547 21.7202V21.7294L19.5259 21.7239V21.7331L19.499 21.7276V21.735L19.3712 21.7887L19.3353 21.8258L19.3155 21.8221L19.2795 21.8592L19.2615 21.8554L19.2435 21.8777L19.2255 21.8758L19.2075 21.8981L19.1877 21.8944L19.1788 21.911H19.1428L19.1338 21.9277L19.105 21.9314V21.9407L19.0672 21.9425L19.06 21.9574L19.0061 21.9648V21.9722L18.9881 21.9703V21.9778L18.9683 21.9741V21.9833L18.9503 21.9796V21.9889L18.8945 21.9963V22.0037L18.8675 21.9981V22.0074L18.8495 22.0037V22.013L18.8208 22.0074L18.8226 22.0167L18.8028 22.013V22.0222L18.7758 22.0167V22.0259L18.7488 22.0204V22.0278L18.5743 22.1001L18.5563 22.0964L18.5203 22.1334L18.5023 22.1297L18.4826 22.152L18.4646 22.1483L18.4466 22.1723L18.4286 22.1668L18.4196 22.1835L18.4016 22.1798L18.3818 22.202L18.3458 22.2039L18.3368 22.2205L18.3009 22.2224L18.2919 22.2372L18.2361 22.2446L18.2271 22.2595L18.2001 22.2557L18.1911 22.2706L17.8889 22.3262L17.8511 22.3206V22.328L17.8151 22.3225V22.3299L17.7792 22.3225V22.3317L17.7414 22.3243V22.3336L17.6946 22.3243V22.3336L17.6496 22.3243V22.3336L17.5759 22.3188V22.328L17.2359 22.2706V22.2632L17.1243 22.2428V22.2335L17.0506 22.2187V22.2113L16.9966 22.2001V22.1909L16.9588 22.1835V22.1761L16.9121 22.1668V22.1575L16.8113 22.1205V22.113L16.7843 22.1075V22.0982L16.7196 22.0778V22.0686L16.6998 22.0649V22.0556L16.6728 22.05V22.0426L16.653 22.0389V22.0296L16.626 22.0241V22.0167L16.5901 22L16.5883 21.9907L16.5613 21.987V21.9778L16.5055 21.9481V21.9407L16.4893 21.937L16.4875 21.9277L16.4515 21.9129L16.4407 21.8944L16.385 21.8666L16.376 21.8462L16.3382 21.8314L16.34 21.8221L16.3112 21.8073L16.3022 21.7887L16.2824 21.785L16.2734 21.7665L16.2555 21.7628L16.2375 21.7331L16.2195 21.7294L16.1997 21.6998L16.1817 21.6961L16.1637 21.6664L16.1349 21.6516L16.0522 21.5497L16.0342 21.546L15.9676 21.4533L15.9496 21.4514L15.9029 21.3884V21.3718L15.8849 21.3606V21.3514L15.8651 21.3384V21.3217L15.8381 21.2976L15.8363 21.2809L15.8093 21.2587V21.2402L15.7913 21.2291L15.7805 21.2013L15.7715 21.1994V21.1809L15.7535 21.1698L15.7446 21.142L15.7338 21.1401L15.7248 21.103L15.7068 21.0901L15.705 21.0734L15.687 21.0511V21.0345L15.678 21.0326V21.0159L15.669 21.0141V20.9955L15.66 20.9937L15.6402 20.9381L15.6312 20.9362L15.6222 20.8918L15.6114 20.8899V20.8714L15.6024 20.8695V20.8436L15.5934 20.8417L15.5844 20.8047H15.5737L15.5557 20.712L15.5467 20.7102V20.6842L15.5359 20.6824V20.6564L15.5269 20.6546L15.5161 20.5915H15.5071V20.5563L15.4981 20.5526L15.4873 20.447L15.5071 19.7094L15.5161 19.7113V19.6853L15.5251 19.6872V19.6612L15.5341 19.6631L15.5611 19.5537L15.5701 19.5556V19.5389L15.5791 19.5408V19.5148L15.5862 19.5167L15.597 19.4833L15.6042 19.4852V19.4574L15.615 19.4592L15.624 19.4259L15.633 19.4277V19.4018L15.651 19.3962V19.3795L15.669 19.3666V19.348L15.678 19.3499L15.6762 19.3332H15.687V19.3165L15.705 19.3128L15.714 19.2776L15.732 19.2739V19.2554L15.75 19.2498L15.7589 19.2164L15.7769 19.2109V19.1942L15.8039 19.1812V19.1646L15.8309 19.1516V19.1349L15.8759 19.109V19.0904L15.9137 19.0719V19.0552L15.9316 19.0404L15.9586 19.0367V19.02L15.9766 19.0144L15.9946 18.9922L16.0396 18.9737V18.957L16.0576 18.9422L16.0774 18.9459L16.1043 18.9162L16.1223 18.9199L16.1583 18.8847L16.1763 18.8866L16.1943 18.8643L16.2141 18.868L16.2321 18.8458L16.2501 18.8495L16.2591 18.8328L16.295 18.831L16.304 18.8161L16.3328 18.8124V18.8032L16.3706 18.8013L16.3778 18.7865L16.3958 18.7902L16.4156 18.7754L16.4336 18.7791V18.7698L16.4515 18.7735V18.7661L16.4695 18.768L16.4785 18.7531L16.5055 18.7568V18.7494L16.5433 18.7476V18.7383L16.5703 18.7439V18.7365L16.6063 18.7346V18.7253L16.635 18.7309V18.7216L16.653 18.7253V18.7161L16.7718 18.7142V18.705L16.8005 18.7105V18.6994L16.8275 18.7068V18.6975L16.9373 18.6994L16.9463 18.6846L16.9642 18.6883L16.9822 18.666L17.0002 18.6697L17.02 18.6475L17.038 18.6512L17.056 18.6271L17.074 18.6308L17.0848 18.616L17.1208 18.6141L17.1297 18.5975L17.1477 18.6012L17.1567 18.5863L17.1747 18.5882L17.1837 18.5734L17.2017 18.5771L17.2197 18.5623L17.2395 18.566L17.2377 18.5585L17.2575 18.5604V18.553L17.2755 18.5567L17.4086 18.5215L17.4248 18.5308Z" fill="#AACF52"/><path d="M20.4001 17.0252L20.3732 17.0548L20.3534 17.0604L20.3552 17.077L20.3372 17.0919L20.3192 17.0863L20.3084 17.103L20.2904 17.0993V17.1085L20.2724 17.1048V17.1141L20.2454 17.1085V17.116L20.1897 17.1234V17.1326L20.1717 17.1289V17.1382L20.1159 17.1456L20.1087 17.1604L20.0709 17.1623L20.0619 17.1771L20.0439 17.1753L20.0332 17.1901L20.017 17.1864L20.008 17.2031L19.9882 17.1994L19.9792 17.2142L19.9612 17.2123L19.9522 17.2272L19.9072 17.2401L19.909 17.242V17.2587L19.9468 17.2846V17.3031L20.0206 17.3624L20.0224 17.3791L20.0403 17.3828V17.3995L20.0601 17.4051V17.4217L20.0781 17.4255L20.0799 17.444L20.0979 17.4458L20.1447 17.5255L20.1645 17.5292L20.1843 17.5774L20.2005 17.5811V17.5997L20.2202 17.6034L20.2688 17.709L20.2868 17.7127L20.3246 17.7905L20.3624 17.8332L20.4199 17.8628V17.8795L20.4559 17.8962V17.9129L20.5045 17.9406V17.9573L20.5225 17.961L20.5243 17.9796L20.5423 17.9833V18.0018L20.589 18.0537L20.6088 18.0574V18.0759L20.6268 18.0796V18.0963L20.6466 18.1L20.7114 18.2094L20.7311 18.2131V18.2316L20.7491 18.2353V18.2613L20.7689 18.265L20.7887 18.3224L20.7977 18.3243L20.8157 18.3725L20.8355 18.3743L20.8535 18.4225L20.8733 18.4262L20.9308 18.4725V18.4911L20.947 18.4948V18.5114L21.0154 18.5504V18.5689L21.0334 18.5726L21.0622 18.6226L21.0801 18.6245V18.6449L21.0999 18.6467L21.1287 18.6968L21.1467 18.7005V18.7172L21.1647 18.7209L21.1953 18.7876L21.2133 18.7913V18.8098L21.2313 18.8135L21.2618 18.8802L21.278 18.8858L21.2798 18.9117L21.2978 18.9154L21.3086 18.9432L21.3176 18.9451L21.3266 18.9914L21.3464 19.0044V19.0211L21.3662 19.0341V19.06L21.3842 19.073L21.3932 19.1286L21.4129 19.1397V19.1749L21.4219 19.1768L21.4327 19.2231L21.4489 19.2268L21.4615 19.3176L21.4705 19.3195V19.338L21.4795 19.3398L21.4813 19.3917L21.5011 19.4047L21.5101 19.4862L21.5281 19.4992L21.5479 19.5733L21.5677 19.5771L21.5856 19.6512L21.6036 19.6549L21.6144 19.7197L21.6324 19.7216L21.645 19.8124L21.663 19.8161L21.6936 20.133L21.6846 20.1293L21.6864 20.272L21.6774 20.2702L21.6792 20.3332L21.6684 20.3313L21.6702 20.3832L21.6504 20.3888L21.6432 20.4592L21.6234 20.4555L21.5785 20.5963L21.5587 20.5926L21.4867 20.7223L21.4669 20.7261L21.4579 20.7242L21.4597 20.7501L21.4399 20.7483V20.7557L21.404 20.7761L21.377 20.7983V20.8243L21.3104 20.8465V20.8613L21.3266 20.8632L21.3338 20.8465L21.3518 20.8502L21.3608 20.8354L21.3806 20.8391L21.3896 20.8224L21.4076 20.8261V20.8169L21.4345 20.815L21.4435 20.7983L21.4615 20.802L21.4903 20.7724L21.5083 20.7761L21.5461 20.739L21.5623 20.7427L21.627 20.6853L21.645 20.689V20.6797L21.672 20.6686L21.6828 20.6427L21.7458 20.6037V20.5852L21.7907 20.5593V20.5426L21.8087 20.537V20.5278L21.8285 20.5241L21.8267 20.5055L21.8465 20.5V20.4833L21.8627 20.4777V20.4592L21.8897 20.4481L21.9185 20.4054L21.9544 20.3869L21.9634 20.3721L21.9814 20.3739L21.9904 20.3443L22.0084 20.348L22.0174 20.3332L22.0372 20.335L22.0444 20.3202L22.0624 20.3239L22.0732 20.3091L22.1001 20.3054L22.1361 20.2683L22.1559 20.272L22.1919 20.2349L22.2099 20.2387V20.2294L22.2279 20.2238V20.2071L22.2459 20.2109L22.2818 20.1738L22.2908 20.1756V20.159L22.3268 20.1478V20.1293L22.3736 20.1034V20.0867L22.4096 20.0682V20.0496L22.4383 20.0515V20.0348L22.5103 19.9866L22.5463 19.9848L22.5553 19.9551L22.5931 19.9533V19.9458L22.62 19.9421L22.629 19.9255L22.647 19.9292V19.9199L22.674 19.918L22.683 19.9014L22.701 19.9051L22.719 19.8828L22.7388 19.8865L22.7478 19.8699L22.7568 19.8717L22.7658 19.8569L22.7837 19.8587V19.8513L22.8197 19.8402V19.8235L22.9942 19.7086L22.9924 19.6901L23.0194 19.679V19.6604L23.0482 19.6493L23.0788 19.616L23.0554 19.5771L23.0464 19.5752L23.0356 19.5381L23.0086 19.5159L22.9978 19.4696L22.9888 19.4677L22.951 19.4066L22.8269 19.3213V19.3028L22.7999 19.2898L22.7909 19.2694L22.7712 19.2676L22.7424 19.2268L22.7244 19.2231L22.6776 19.1693L22.6578 19.1397L22.6398 19.136L22.611 19.0859L22.5931 19.0822L22.5445 19.0118L22.5355 19.01V18.9914L22.4779 18.9358V18.9192L22.4599 18.9062V18.8895L22.4401 18.8765V18.858L22.4222 18.8376L22.4042 18.8339L22.3358 18.6875L22.316 18.6838L22.2405 18.5022L22.2207 18.4892V18.4707L22.2117 18.4688L22.2027 18.4132L22.1937 18.4114L22.1919 18.3854H22.1829V18.3576L22.1739 18.3558V18.3298L22.1649 18.328L22.1631 18.2928L22.1559 18.2909L22.1433 18.2353L22.1343 18.2335V18.2168L22.1253 18.2131V18.1779H22.1163L22.1145 18.1241L22.1055 18.1223V18.0778L22.0965 18.0759L22.0947 18.0037L22.0858 18.0018L22.075 17.7887L22.0642 17.7868V17.7609L22.0462 17.7479L22.0354 17.6831L22.0174 17.6793L22.0066 17.6423L21.9976 17.6404V17.6052L21.9886 17.6034V17.5774L21.9688 17.5644L21.967 17.52L21.949 17.5163L21.94 17.4255H21.931L21.9292 17.4069L21.9203 17.4051L21.9185 17.3439L21.9005 17.3291V17.2327L21.8807 17.2197L21.8771 16.9455L21.8951 16.9399V16.8435L21.9149 16.8454L21.9221 16.7601H21.931V16.7249L21.94 16.7268V16.6823L21.958 16.6767V16.6415L21.9778 16.6378L21.9868 16.5767L22.0048 16.5804L22.0318 16.4877L22.0498 16.4914V16.4655L22.0678 16.4692L22.1415 16.3487L22.1613 16.3524L22.1883 16.2968L22.2063 16.3005V16.282L22.2243 16.2857L22.2692 16.2246L22.289 16.2264V16.2097L22.316 16.2153L22.3448 16.1931L22.343 16.1764L22.3628 16.1801V16.1615L22.3826 16.1653L22.3988 16.143L22.4186 16.1449L22.4276 16.13L22.4545 16.1263V16.1078L22.5031 16.0819L22.5859 16.0707V16.0541L22.6794 16.0448L22.6776 16.0263L22.7622 16.017L22.7909 16.0226V16.0133L22.8107 16.017V16.0077L22.8467 16.0151L22.8557 15.9985L22.9582 16.0096L22.9672 15.9948L23.0518 16.0096L23.0608 15.9948L23.2101 16.0226L23.2299 16.017L23.4817 16.0744V16.093L23.6868 16.1578V16.1764L23.7336 16.1838L23.7354 16.2023L23.8469 16.2505V16.2672L23.9405 16.3117V16.3302L23.9783 16.3469V16.3561L24.007 16.3598L24.025 16.3913L24.0538 16.3951V16.4043L24.0736 16.408V16.4173L24.1474 16.4321V16.4414L24.2121 16.4525V16.4618L24.2607 16.471V16.4785L24.3147 16.4896V16.4988L24.3524 16.5063L24.3614 16.5248L24.3992 16.5322V16.5415L24.428 16.547V16.5563L24.4568 16.5618V16.5711L24.4945 16.5785V16.5859L24.6259 16.6471V16.6638L24.813 16.7713V16.7879L24.8453 16.8046L24.8345 16.7898V16.7731L24.8148 16.7601V16.7435L24.7968 16.7212V16.7027L24.777 16.6916L24.768 16.6545L24.75 16.6434V16.6249L24.741 16.623L24.732 16.5952L24.7122 16.5822V16.5656L24.6762 16.5322V16.5155L24.6385 16.4822V16.4636L24.5719 16.4006L24.5629 16.371L24.5449 16.3673V16.3506L24.5251 16.3469L24.3956 16.2171L24.3776 16.1875L24.3596 16.1838L24.3488 16.1653L24.3308 16.1615L24.3129 16.1319L24.2751 16.1171L24.2661 16.0967L24.2373 16.0819V16.0744L24.1833 16.0466V16.0374L24.1635 16.0337V16.0244L24.1078 15.9985V15.9873L24.0628 15.9707V15.9633L24.043 15.9595V15.9503L24.016 15.9447V15.9355L23.998 15.9317V15.9243L23.9693 15.9188V15.9095L23.9513 15.9058V15.8984L23.8865 15.8762V15.8669L23.8595 15.8632V15.8539L23.8217 15.8465V15.8391L23.7768 15.8298V15.8206L23.73 15.8113V15.802L23.5825 15.765V15.7575L23.1777 15.6982V15.7057L23.1309 15.6982V15.7057L23.0842 15.6982L23.086 15.7057L23.059 15.7001V15.7094L23.0212 15.7019V15.7112L22.9852 15.7038V15.7131L22.9654 15.7094V15.7168H22.9115V15.726L22.8935 15.7205V15.7297L22.8647 15.726V15.7335L22.8287 15.7353V15.7446L22.8017 15.739V15.7483L22.746 15.7557V15.7631L22.728 15.7594V15.7687L22.692 15.7705L22.683 15.7872H22.6452L22.6362 15.8039L22.6182 15.8002V15.8094L22.5913 15.8113L22.5823 15.828L22.5625 15.8243L22.5463 15.8465L22.5265 15.8428L22.5085 15.8669L22.4905 15.8632L22.4635 15.8928L22.4437 15.8891L21.4597 16.4599H21.4219V16.471L21.395 16.4729L21.386 16.4896L21.368 16.4859V16.4933L21.3302 16.5137L21.0298 16.7008V16.7175L21.0118 16.7231L20.9848 16.7527L20.965 16.749L20.947 16.762L20.4001 17.0252Z" fill="#AACF52"/><path d="M8.90574 16.0171L8.92373 15.9763L8.93272 15.9782L8.94172 15.9448L8.95071 15.9466V15.9281L8.95971 15.93V15.904L8.9687 15.9059L8.98669 15.8577H8.99569V15.841L9.00468 15.8429V15.8262L9.01367 15.828V15.8095L9.02267 15.8114V15.7947L9.03166 15.7965V15.778L9.04965 15.765V15.7465L9.06764 15.7428L9.07664 15.7076L9.09463 15.7039L9.10362 15.6705L9.12161 15.665V15.6483L9.13061 15.6501V15.6316L9.1486 15.626V15.6094L9.16658 15.6038V15.5871L9.18457 15.5816V15.563L9.20436 15.5593V15.5408L9.22955 15.5297V15.513L9.25833 15.5V15.4815L9.30331 15.4555V15.4389L9.32129 15.4333V15.424L9.33928 15.4185V15.4018L9.56595 15.1127L9.57495 15.1145L9.59833 15.0849L9.60733 15.0867V15.0608L9.61812 15.0627L9.61632 15.0441L9.62532 15.046V15.02L9.63611 15.0219L9.6523 14.9737H9.6613V14.957L9.67029 14.9589V14.9422L9.67929 14.944V14.9255L9.68828 14.9274V14.9107L9.69728 14.9125V14.894L9.70627 14.8959V14.8792L9.71527 14.881V14.8625L9.73505 14.8495V14.8329L9.75124 14.8254L9.76204 14.7921L9.78003 14.7884L9.78902 14.755L9.80701 14.7495V14.7328H9.81601V14.7161L9.84299 14.7031L9.85198 14.6698L9.87897 14.6587V14.642L9.90595 14.629L9.95093 14.5771V14.5586L9.96892 14.5623L9.98691 14.5308L9.9959 14.5326V14.516L10.0067 14.5178L10.0337 14.4882L10.0517 14.4826V14.4641L10.0607 14.4678L10.0876 14.4363L10.1056 14.44L10.3449 14.1713V14.1546L10.3539 14.1564L10.3629 14.1231L10.3719 14.1249V14.1082L10.3809 14.1101V14.0916L10.3917 14.0934L10.3899 14.0767L10.3989 14.0786V14.0601L10.4079 14.0619V14.0452L10.4169 14.0471V14.0286L10.4259 14.0304V14.0137L10.4366 14.0156L10.4348 13.997L10.4546 13.9841L10.4528 13.9655L10.4726 13.9618L10.4798 13.9266L10.5086 13.9155L10.5158 13.8821L10.5338 13.8766V13.8599L10.5446 13.8618L10.5428 13.8451L10.5626 13.8377L10.5716 13.8136L10.5985 13.8025V13.7839L10.6255 13.7728L10.6345 13.7395L10.6795 13.7135V13.695L10.7263 13.669V13.6523L10.8612 13.4948L10.8702 13.4967V13.4781L10.8792 13.48L10.8882 13.4207L10.8972 13.4225L10.8954 13.4059L10.9062 13.4077L10.9152 13.3558L10.9242 13.3595V13.341L10.9332 13.3429V13.3169L10.9421 13.3188L10.9493 13.2854L10.9601 13.2873V13.2613L10.9691 13.2632L10.9871 13.2131L10.9961 13.215V13.1983L11.0051 13.2002V13.1816L11.0141 13.1835V13.1668L11.0231 13.1687V13.1501L11.0321 13.152V13.1353L11.0411 13.1372V13.1186L11.0501 13.1205V13.1038L11.0681 13.089V13.0723L11.0861 13.0667L11.1041 13.0185L11.122 13.013V12.9963L11.149 12.9833L11.158 12.95L11.1778 12.9444L11.176 12.9277L11.203 12.9148V12.8981L11.2138 12.8999L11.221 12.874L11.2408 12.8703V12.8518L11.2768 12.8332V12.8147L11.3217 12.7887V12.7721L11.3775 12.7387V12.722L11.4836 12.5497L11.4944 12.5515L11.4926 12.5349L11.5016 12.5367L11.5196 12.4607L11.5286 12.4626V12.4459L11.5376 12.4478V12.42L11.5466 12.4218L11.5556 12.3903L11.5646 12.3922V12.3644L11.5736 12.3662L11.5916 12.318H11.6006V12.3013L11.6096 12.3051V12.2865L11.6204 12.2884L11.6186 12.2698L11.6275 12.2717V12.255L11.6365 12.2569V12.2383L11.6473 12.242L11.6455 12.2235L11.6545 12.2254V12.2068L11.6725 12.1939V12.1753L11.6905 12.1698L11.6995 12.1383L11.7175 12.1327L11.7265 12.0993L11.7463 12.0938V12.0771L11.7643 12.0715V12.0549L11.7805 12.0493V12.0308L11.8002 12.0271V12.0085L11.8182 12.003L11.811 11.9752L11.8398 11.9641V11.9455L11.8758 11.927L11.8848 11.9029L11.9658 11.788V11.7435L11.9747 11.7454V11.7194L11.9837 11.7213V11.6953L11.9927 11.6972V11.662L11.9999 11.6638V11.6379L12.0251 11.6416V11.6156L12.0341 11.6175L12.0323 11.5916L12.0431 11.5934V11.5749L12.0521 11.5767L12.0611 11.5267L12.0701 11.5285L12.0683 11.51L12.0791 11.5119L12.0773 11.4859L12.0863 11.4896L12.0953 11.4544L12.1061 11.4563L12.1043 11.4396L12.1151 11.4414L12.1133 11.4155L12.1241 11.4174L12.142 11.3673L12.151 11.3692V11.3525L12.16 11.3543L12.1582 11.3358L12.169 11.3377L12.187 11.2895L12.205 11.2839V11.258L12.223 11.2524L12.232 11.2191L12.2482 11.2135V11.1968L12.2662 11.1913V11.1746L12.286 11.169V11.1505L12.304 11.1468V11.1283L12.3219 11.1227V11.106L12.3309 11.1079L12.3399 11.0838L12.3579 11.0782V11.0597L12.3849 11.0486V11.03L12.4299 11.0041V10.9874L12.5666 10.7854L12.5648 10.7595L12.5756 10.7613V10.7354L12.5828 10.7372V10.702L12.5936 10.7039L12.5918 10.6853L12.6008 10.689V10.6612L12.6098 10.6631V10.6464L12.6188 10.6483V10.6223L12.6278 10.6242V10.6056L12.6368 10.6093V10.5815L12.6458 10.5834L12.6547 10.55L12.6637 10.5519V10.5352H12.6727L12.6745 10.5111L12.6907 10.5056V10.4778L12.7015 10.4796V10.4629L12.7087 10.4648V10.4463L12.7285 10.4407L12.7267 10.424L12.7447 10.4111V10.3925L12.7555 10.3944V10.3777L12.7627 10.3795V10.361L12.7825 10.3573L12.7897 10.3221L12.8095 10.3184V10.2999L12.8274 10.2943V10.2776L12.8454 10.2721V10.2554L12.8634 10.2498V10.2331L12.8814 10.2276V10.209L12.9084 10.1979V10.1813L12.9354 10.1683V10.1497L13.0523 9.9811L13.0613 9.98296V9.95701H13.0703V9.93106L13.0793 9.93292V9.90697L13.0883 9.91068V9.87361L13.0973 9.87547V9.85879L13.1063 9.86064L13.1243 9.78466L13.1333 9.78651V9.76983L13.1423 9.77169V9.74574L13.1513 9.7476L13.1603 9.71424L13.1675 9.71609L13.1782 9.67347L13.1872 9.67532L13.2034 9.62714H13.2142V9.61046L13.2232 9.61231V9.59563H13.2322V9.57895L13.2412 9.5808L13.2394 9.56413L13.2592 9.5493V9.53262L13.2772 9.52706L13.2862 9.4937L13.3042 9.48814L13.3132 9.45478L13.3312 9.44923L13.3401 9.41772L13.3671 9.40475V9.38622L13.3851 9.38251V9.36398L13.4049 9.36027L13.4121 9.33618L13.4409 9.32135L13.4391 9.30467L13.4589 9.29911V9.2917L13.4769 9.28614V9.26761L13.5128 9.24908V9.23054L13.7557 8.89511V8.87658L13.7647 8.87843V8.86175L13.7827 8.85619V8.83951L13.8007 8.82469V8.80801L13.8115 8.80986V8.79133L13.8277 8.78577L13.8367 8.75241L13.8475 8.75426L13.8546 8.73017L13.8744 8.72461L13.8816 8.69311L13.9104 8.68014V8.6616L13.9284 8.6579V8.63936L13.9554 8.62824V8.61157L13.9914 8.59118V8.57265L14.0273 8.55412V8.53744L14.1101 8.48184V8.46516L14.1281 8.4596L14.1461 8.43736L14.1641 8.44107L14.2378 8.37621L14.2558 8.37991L14.2828 8.35026L14.3026 8.35397L14.3386 8.3169L14.3566 8.32061L14.3745 8.29837L14.3925 8.30022L14.4015 8.2854L14.4303 8.28169V8.27242L14.4483 8.27613L14.4573 8.26131L14.4753 8.26501L14.4843 8.24833L14.5131 8.24463V8.23721L14.567 8.2298L14.576 8.21497L14.594 8.21683L14.612 8.20386L14.63 8.20756V8.1983L14.648 8.202V8.19274L14.6678 8.19644L14.6768 8.18162L14.7038 8.18532V8.17791L14.7397 8.17606V8.16679L14.7667 8.17235V8.16308L14.8045 8.16123V8.15382L14.8333 8.15752V8.15011L14.8495 8.15382V8.14455L14.8783 8.15011V8.14085L14.8962 8.14455V8.13529L15.0528 8.10378L15.0707 8.10934L15.0797 8.09266L15.1157 8.09081L15.1247 8.07413L15.1625 8.07228V8.06486L15.1805 8.06672V8.0593L15.2344 8.05189V8.04448L15.2632 8.04818V8.03892H15.2992V8.02965L15.3262 8.03521V8.02595L15.3442 8.02965V8.02039L15.3999 8.02224V8.01297L15.4269 8.01853V8.01112L15.4557 8.01668V8.00741L15.4827 8.01112V8.00185L15.5187 8.01112L15.5205 8.00185L15.5565 8.00927V8L15.6014 8.00927V8L16.33 8.1742V8.18347L16.357 8.18903V8.19644L16.384 8.202L16.3858 8.21127L16.4128 8.21497V8.22424L16.4397 8.2298V8.23907L16.4595 8.24277V8.25019L16.4883 8.25575V8.26501L16.5243 8.28169V8.2891L16.5513 8.29466V8.30393L16.607 8.33173V8.33914L16.6448 8.35582L16.6538 8.37435L16.6898 8.39103L16.7006 8.40956L16.7186 8.41327L16.7276 8.43366L16.7456 8.43736L16.7564 8.45589L16.7743 8.4596L16.7833 8.47813L16.8013 8.48184L16.8103 8.50223L16.8283 8.50593L16.8571 8.54485L16.8769 8.54856L16.9129 8.59859L16.9309 8.6023L16.9327 8.61157L16.9506 8.62268V8.64122L17.1 8.81727L17.1269 8.84137L17.1287 8.85805L17.1557 8.88028V8.89882L17.1737 8.90994L17.1827 8.93773L17.1917 8.93959V8.95812L17.2115 8.97109L17.2205 8.99704L17.2295 9.00074V9.01742L17.2493 9.03781V9.05634L17.2583 9.05819V9.07487L17.2673 9.07673V9.09341L17.2781 9.09526V9.11379L17.287 9.11564V9.13232L17.296 9.13418L17.314 9.18977L17.3248 9.19348V9.21942H17.3338V9.23796L17.3446 9.23981V9.26576L17.3518 9.26761V9.28429L17.3626 9.28614V9.31209L17.3716 9.31394V9.33988L17.3806 9.34174L17.3914 9.40475L17.4004 9.4066L17.4957 9.70312L17.5047 9.70682L17.5137 9.74204L17.5227 9.74389L17.5335 9.79949H17.5425V9.81802L17.5515 9.81987L17.5803 9.93848L17.5893 9.94033V9.96628L17.5983 9.96813L17.6001 9.99407L17.6091 9.99593L17.6109 10.0311L17.6181 10.033L17.6378 10.1664V10.891L17.6199 11.0096L17.6127 11.0078V11.0356L17.6019 11.0319V11.0578L17.5245 11.5156L17.5173 11.5119V11.6175L17.5065 11.6156L17.5083 11.6953L17.4993 11.6935V11.7454L17.4903 11.7435L17.4921 11.7954L17.4813 11.7936L17.4831 11.838L17.4741 11.8362V11.8714L17.4651 11.8695L17.368 12.192L17.3572 12.1883L17.35 12.2217H17.341V12.2476L17.332 12.2439L17.323 12.2791L17.314 12.2773V12.2939L17.3032 12.2921L17.305 12.318L17.287 12.3236V12.3421L17.2691 12.3551L17.1701 12.5793L17.1611 12.6034L17.1521 12.5793L17.1251 12.5571L17.1161 12.52L17.0874 12.4978V12.4811L17.0676 12.4663V12.4496L17.0406 12.4274L17.0208 12.3977L17.0118 12.394V12.3773L16.974 12.344L16.9273 12.2717L16.9075 12.2698L16.8985 12.242L16.8895 12.2383V12.2124H16.8787V12.1846L16.8697 12.1827V12.1568L16.8607 12.1549V12.129L16.8499 12.1253V12.0993L16.8409 12.0975V12.0715L16.8319 12.0697L16.8121 12.0122H16.8031V11.9956L16.7941 11.9919V11.9752L16.7833 11.9733V11.9548L16.7761 11.9529V11.9363L16.7654 11.9344V11.9159L16.7474 11.8955L16.7456 11.877L16.7276 11.864L16.7078 11.8084L16.679 11.7861V11.7676L16.643 11.7343L16.6322 11.7065L16.6142 11.6935V11.6768L16.5855 11.6527V11.6342L16.5585 11.6119L16.5567 11.5953L16.4919 11.5285L16.4829 11.5007L16.4631 11.497V11.4804L16.4253 11.4544L16.3804 11.3933L16.3606 11.3896V11.3803L16.3138 11.3451V11.3284L16.285 11.3136V11.3043L16.258 11.2913L16.2473 11.2709L16.1915 11.2432L16.1825 11.2228L16.1537 11.2098V11.2005L16.1357 11.1968L16.1159 11.1764L16.0979 11.1727V11.1635L16.08 11.1598L16.0692 11.1412L16.0512 11.1375V11.1283L16.0332 11.1245L16.0134 11.1023L15.9954 11.1005L15.9846 11.0801L15.9019 11.0374V11.0282L15.8839 11.0263V11.0171L15.8263 10.9985L15.6122 10.8947L15.5097 10.8669V10.8577L15.2129 10.7928L14.6552 10.8002L14.6282 10.7947V10.8039L14.5724 10.8113V10.8188L14.5347 10.8225L14.5257 10.8373L14.5077 10.8336V10.841L14.4879 10.8391V10.8484L14.4699 10.8447L14.4519 10.8595L14.4339 10.854L14.4249 10.8707L14.3691 10.8781L14.3512 10.9003L14.3134 10.9022L14.3044 10.9188L14.2756 10.9207V10.93L14.2486 10.9337V10.9522L14.2018 10.9689V10.9781L14.1839 10.9744L14.1389 11.0189L14.1011 11.03V11.0467L14.0741 11.0504V11.0671L14.0543 11.0727L14.0561 11.0819L14.0363 11.0782L13.9914 11.1227V11.1394H13.9824L13.9644 11.1709L13.9446 11.1672L13.9356 11.1913L13.9266 11.1894L13.9194 11.2135L13.8996 11.2209L13.8906 11.2524L13.8636 11.2654L13.8457 11.3136L13.8259 11.3191V11.3377L13.8079 11.3525L13.8097 11.3692L13.7989 11.3673V11.3858L13.7899 11.384V11.4007L13.7809 11.3988V11.4174L13.7719 11.4155V11.4322L13.7629 11.4303L13.7449 11.4804L13.7359 11.4785L13.646 11.7528L13.6298 11.9251L13.619 11.9233L13.6118 12.1253L13.6226 12.1271L13.6334 12.3051L13.6424 12.3069L13.6532 12.4144L13.6622 12.4162V12.4515L13.673 12.4533V12.4885L13.682 12.4904V12.5256L13.6909 12.5274L13.6927 12.5534L13.7017 12.5552V12.583H13.7107V12.6108L13.7197 12.6127V12.6386L13.7305 12.6405V12.6664L13.7395 12.6683V12.6942L13.7485 12.6979V12.7239L13.7593 12.7257L13.7791 12.7813L13.7863 12.7832L13.7881 12.7999L13.7971 12.8017V12.8202L13.8079 12.8221V12.8388L13.8169 12.8406V12.8592L13.8259 12.861V12.8796L13.8439 12.8999L13.8457 12.9185L13.8636 12.9296L13.8816 12.987L13.9104 13.0093L13.9194 13.0463L13.9392 13.0593L13.9482 13.0871L13.9572 13.089L13.968 13.1168L13.986 13.1205V13.139L14.0148 13.1612V13.1779L14.0327 13.1909V13.2094L14.0615 13.2317V13.2409L14.0795 13.2446L14.0993 13.265L14.1083 13.2928L14.1461 13.328V13.354L14.1551 13.3558V13.3836H14.1641L14.1659 13.4096L14.1749 13.4133V13.4392H14.1839L14.1857 13.4578L14.1947 13.4596L14.2036 13.5152L14.2126 13.5171L14.2324 13.5727L14.2414 13.5745V13.5912L14.2522 13.5949V13.6116L14.2612 13.6134V13.6301L14.2702 13.6338V13.6505L14.2882 13.6709V13.6894L14.3062 13.7024L14.326 13.758L14.3548 13.7821L14.3656 13.8191L14.3835 13.8303L14.3925 13.8599L14.4321 13.8933V13.9099L14.4789 13.9544V13.9711L14.5436 14.0378L14.5526 14.0656L14.5724 14.0693L14.6012 14.136L14.621 14.2194L14.63 14.2213V14.2398L14.639 14.2417V14.2676H14.648L14.6678 14.3251L14.6768 14.3269V14.3455L14.6876 14.3473V14.364L14.6966 14.3658V14.3844H14.7056V14.4122L14.7253 14.4251L14.7343 14.4622L14.7541 14.4733L14.7721 14.5289L14.7919 14.5419V14.5604L14.8099 14.5716L14.8207 14.6105L14.8387 14.6216V14.6401L14.8765 14.6735V14.6902L14.9142 14.7235V14.742L14.9412 14.7643L14.952 14.7847L14.97 14.7884V14.7976L14.988 14.8088V14.8273L15.0168 14.8403L15.0276 14.8699L15.0456 14.8718L15.0545 14.8922L15.0635 14.894V14.9125L15.0833 14.9237L15.0923 14.9793L15.1031 14.9811V14.9978L15.1121 14.9996V15.0274H15.1211L15.1409 15.0849L15.1499 15.0867V15.1053H15.1589V15.1238L15.1697 15.1257V15.1423L15.1787 15.1442V15.1627L15.1877 15.1646V15.1813L15.2057 15.2035L15.2075 15.222L15.2255 15.2332L15.2452 15.2906L15.274 15.3128L15.283 15.3406L15.292 15.3425V15.361L15.3208 15.3833V15.4018L15.3586 15.4352V15.4518L15.3963 15.4852V15.5037L15.4611 15.5686L15.4701 15.5964L15.4899 15.6001V15.6186L15.5187 15.6316V15.6409L15.5655 15.6853V15.7039L15.5834 15.715V15.7335L15.5942 15.7354V15.7521L15.6032 15.7539V15.7799L15.6122 15.7836L15.6392 15.854H15.6356L15.6266 15.904L15.6194 15.9022V15.9207L15.6086 15.9188L15.6104 15.9448L15.5996 15.9429L15.6014 15.9689H15.5924V15.9856L15.5834 15.9819V16.0097L15.5726 16.0078L15.5655 16.0412L15.5565 16.0393V16.0653L15.5475 16.0634L15.5295 16.1116L15.5205 16.1097V16.1283L15.5115 16.1264V16.1524L15.4935 16.1579V16.1746L15.4845 16.1727V16.2005L15.4665 16.2061V16.2228L15.4575 16.2209V16.2376L15.4395 16.2524V16.2691L15.4215 16.2747L15.4035 16.3229L15.3856 16.3284V16.3469L15.3586 16.3581L15.3496 16.3914L15.3208 16.4044V16.4211L15.3028 16.4266L15.2938 16.4507L15.2848 16.4489V16.4674L15.2578 16.4785V16.4971L15.2129 16.5397L15.1085 16.6861L15.0959 16.7102L15.0851 16.7083V16.7343L15.0779 16.7324V16.7676L15.0689 16.7658V16.7917L15.0581 16.7899L15.0456 16.814L15.0366 16.8121V16.838L15.0276 16.8362V16.8621L15.0186 16.8603V16.877L15.0096 16.8751V16.9029L15.0006 16.9011V16.9177L14.9898 16.9159L14.9682 16.9641L14.9592 16.9622L14.9484 16.9956L14.9412 16.9937V17.0123L14.9322 17.0104V17.0363L14.9214 17.0345L14.9034 17.0419H14.9088L14.9106 17.0604L14.9016 17.0586L14.8819 17.1068L14.8657 17.1123L14.8477 17.1605L14.8279 17.1679L14.8117 17.2143L14.7919 17.2198V17.2383L14.7739 17.2421V17.2606L14.7559 17.2661V17.2828H14.7469L14.7379 17.3069L14.7199 17.3106V17.3292L14.693 17.3403V17.3588L14.675 17.3644V17.381L14.657 17.3866L14.6714 17.3977L14.6534 17.4033V17.42L14.6174 17.483V17.4978L14.5526 17.5386V17.5571L14.5167 17.5756L14.326 17.8277L14.317 17.8258L14.308 17.8592L14.3008 17.8573V17.874L14.29 17.8722V17.8999L14.281 17.8962L14.263 17.9463L14.254 17.9444V17.9611L14.245 17.9593L14.2468 17.9778L14.236 17.9759L14.2378 17.9926H14.2288V18.0093L14.2108 18.0223V18.0408L14.1929 18.0464V18.0723L14.1821 18.0704L14.1749 18.0945L14.1551 18.1001L14.1461 18.1335L14.1281 18.139V18.1557L14.1191 18.1538V18.1724L14.1011 18.1761V18.1946L14.0741 18.2057L14.0651 18.2391L14.0381 18.2521V18.2687L14.0094 18.2817V18.2984L13.9914 18.304V18.3225L13.9554 18.341V18.3577L13.9104 18.3855V18.4022L13.7719 18.5764L13.7611 18.5745L13.7629 18.6097L13.7539 18.6079V18.6246L13.7449 18.6227L13.7125 18.695L13.7035 18.6931L13.6945 18.7358L13.6855 18.7339V18.7506L13.6766 18.7487V18.7747H13.6676L13.6496 18.8229L13.6388 18.821L13.6406 18.8377H13.6316V18.8544L13.6226 18.8525V18.8785L13.6046 18.884V18.91L13.5866 18.9155V18.9322L13.5776 18.9303V18.9489L13.5686 18.9452V18.9637L13.5578 18.9619L13.5596 18.9804L13.5416 18.9934V19.0119L13.5236 19.0156L13.5146 19.049L13.4949 19.0545L13.4877 19.0879L13.4589 19.1008L13.4517 19.1342L13.4229 19.1453L13.4139 19.1713L13.3959 19.175L13.3869 19.2083L13.3599 19.2213V19.238L13.315 19.2639V19.2825L13.2682 19.3084V19.3251L13.1153 19.5067L13.1063 19.5289H13.0973V19.5641L13.0883 19.5623L13.0793 19.5938H13.0703L13.0613 19.6438L13.0523 19.642L13.0433 19.6846L13.0343 19.6828L13.0253 19.7143L13.0163 19.7124V19.7309L13.0073 19.7291V19.755L12.9983 19.7532L12.9804 19.8032L12.9714 19.8014V19.818L12.9624 19.8162L12.9444 19.8644L12.9264 19.8699V19.8885L12.9084 19.9014V19.92L12.8994 19.9181V19.9348L12.8904 19.9329V19.9515L12.8724 19.957L12.8634 19.9885L12.8454 19.9941V20.0108L12.8274 20.0182V20.0349L12.8095 20.0404V20.0571L12.7915 20.0627V20.0793L12.7735 20.0849V20.1016L12.7465 20.1146V20.1331L12.7285 20.1387V20.1553L12.6907 20.1739V20.1924L12.6458 20.2183V20.235L12.6098 20.2536V20.2628L12.5918 20.2684L12.4335 20.4741L12.4245 20.4889L12.4065 20.5389L12.3975 20.5371L12.3903 20.5705L12.3795 20.5686V20.5945L12.3705 20.5927V20.6094H12.3615V20.6353L12.3525 20.6335L12.3201 20.6798L12.3112 20.6779V20.6946L12.3022 20.6928V20.7187L12.2842 20.7243V20.7409L12.2662 20.7558V20.7725H12.2572V20.7891L12.2482 20.7873V20.8058L12.2302 20.8188V20.8355L12.2122 20.841L12.2032 20.8744L12.1852 20.8799V20.8966L12.1672 20.9022V20.9189L12.1492 20.9244L12.1403 20.9596L12.1133 20.9707L12.1043 21.0041L12.0773 21.0152L12.0305 21.069V21.0857L12.0125 21.0819L11.9945 21.1134L11.9855 21.1116V21.1301L11.9676 21.1338V21.1431L11.9496 21.1487V21.1672L11.8488 21.2358L11.8506 21.2524L11.8308 21.2561L11.7859 21.3006L11.7679 21.2969L11.7571 21.3117L11.4674 21.5879L11.4584 21.586V21.6046L11.4495 21.6027V21.6194L11.4315 21.6342V21.6509L11.4135 21.6564L11.4045 21.6898L11.3865 21.6954L11.3775 21.7287L11.3487 21.7398L11.3415 21.7732L11.3145 21.7862L11.3055 21.8195L11.2768 21.8306V21.8492L11.2498 21.8622L11.2516 21.8788L11.2138 21.8974L11.2048 21.9233L11.1958 21.9196V21.9381L11.1778 21.9344L10.9961 22.1086L10.9781 22.1068L10.9691 22.1216L10.8954 22.1587V22.1772L10.8864 22.1753L10.8504 22.1939V22.2031L10.8324 22.1994V22.218L10.7946 22.2272V22.2365L10.7766 22.2328L10.7677 22.2476H10.7587L10.7497 22.2625L10.568 22.4459L10.55 22.4515L10.541 22.4848L10.523 22.4885V22.5071L10.505 22.5126V22.5293L10.4852 22.5349V22.5516L10.469 22.5571V22.5738L10.4492 22.5812V22.5979L10.4223 22.609V22.6275L10.4061 22.6331V22.6498L10.3863 22.6553V22.6646L10.3683 22.6702V22.6868L10.3323 22.7054V22.7239L10.2693 22.7628V22.7814L10.2046 22.8203L10.1956 22.8444L10.1776 22.8425L10.1686 22.8666L10.1416 22.8703L10.0607 22.9241L9.8232 23.1668L9.78722 23.2113V23.2298L9.76923 23.2335L9.76024 23.2669L9.74045 23.2743L9.74225 23.291L9.72246 23.2966L9.70627 23.3188V23.3355L9.68828 23.341L9.67209 23.3429L9.6541 23.3466V23.3651L9.63611 23.3707V23.3874L9.60913 23.4003L9.56415 23.4522V23.4708L9.54616 23.4652L9.53717 23.4911L9.51018 23.5023V23.5208L9.46341 23.5467L9.29071 23.6783V23.6968L9.27272 23.7098L9.25473 23.708L9.23674 23.7302L9.145 23.7728V23.7895L9.11801 23.7951L9.06225 23.8173L9.04606 23.8414L9.02627 23.8377L8.99928 23.8507L8.99029 23.8655L8.98669 23.8785L8.9777 23.8951L8.91293 23.91V23.9267L8.87695 23.9285V23.9359L8.85896 23.9322L8.84997 23.9489L8.83018 23.9452V23.9544L8.81219 23.9489L8.7942 23.9563L8.23833 24.3288L8.22034 24.3251L8.19155 24.3547L8.17536 24.351V24.3603L8.14658 24.3733L8.13759 24.3881L8.1196 24.3863L8.1106 24.4011L8.09261 24.3974L8.07282 24.4196L8.05483 24.4159L8.03684 24.44H7.99907L7.98288 24.4622L7.96489 24.4604L7.95589 24.4752L7.91811 24.4771L7.90912 24.4919L7.87314 24.4956L7.86415 24.5104L7.84436 24.5067L7.82817 24.5215L7.80838 24.516V24.5252L7.79039 24.5234L7.78139 24.5382L7.74362 24.5401L7.74541 24.5493L7.72563 24.5456V24.553L7.67166 24.5605V24.5697L7.64287 24.5642V24.5716L7.62668 24.5697V24.579L7.57092 24.5845V24.5938L7.51515 24.592V24.6012L7.49716 24.5975V24.6068L7.41441 24.6086V24.6161L7.39642 24.6123V24.6216L7.36044 24.6142V24.6235L7.33166 24.6179V24.6272L7.30467 24.6216V24.6309L7.27589 24.6253V24.6346L7.23991 24.6272L7.0852 24.6401L6.99345 24.6327V24.6401L6.44118 24.5605V24.5512L6.24689 24.5067L5.8781 24.3659V24.3585L5.75757 24.3084V24.301L5.73958 24.2973V24.288L5.7126 24.2825V24.2732L5.65683 24.2547V24.2454L5.63704 24.2417V24.2343L5.61006 24.2287V24.2195L5.57228 24.2046V24.1954L5.55429 24.1917V24.1824L5.52731 24.1787V24.1694L5.48953 24.1527V24.1435L5.47154 24.1416L5.46974 24.1324L5.44276 24.1268L5.43376 24.1083L5.41577 24.1046V24.0953L5.39778 24.0916V24.0823L5.378 24.0786V24.0693L5.36001 24.0675L5.34022 24.0471L5.32223 24.0434L5.31323 24.023L5.25747 23.9952L5.24847 23.9767L5.21069 23.9619L5.1927 23.9304L5.17471 23.9267L5.16392 23.9081L5.14773 23.9044L5.14593 23.897L5.11895 23.8822L5.10995 23.8636L5.09016 23.8581L5.07217 23.8284L5.05418 23.8266L5.04519 23.8062L5.0254 23.8025L5.00921 23.7728L4.98942 23.771L4.95164 23.7191L4.93366 23.7154L4.88688 23.6542L4.86889 23.6505L4.74656 23.506L4.67281 23.43V23.4133L4.60805 23.3484V23.3299L4.57027 23.2984V23.2799L4.53249 23.2465V23.2298L4.5145 23.2169V23.2002L4.48572 23.1779V23.1594L4.46773 23.1464L4.45873 23.1186L4.44974 23.1168L4.44794 23.1001L4.42995 23.0871V23.0705L4.41196 23.0575V23.0408L4.39397 23.0278L4.37418 22.9722L4.35439 22.9593L4.3364 22.9037L4.31662 22.8907L4.30762 22.8555L4.29863 22.8536V22.8351L4.28783 22.8332V22.8166L4.28064 22.8147L4.27884 22.7962H4.26984V22.7776L4.26085 22.7758V22.7498L4.24286 22.7387L4.24106 22.7128L4.23206 22.7091L4.22307 22.6739L4.21408 22.672V22.6461L4.20328 22.6442L4.19429 22.6072L4.18529 22.6053L4.1745 22.5516L4.1673 22.5497L4.1655 22.5312L4.15651 22.5293V22.496L4.14751 22.4923V22.4756L4.13852 22.4737V22.4385L4.12952 22.4367L4.12773 22.4107L4.11873 22.4089V22.3829L4.10974 22.3811L4.09894 22.318L4.08995 22.3162L4.08095 22.2365L4.07196 22.2347V22.1994L4.06296 22.1976V22.1624L4.05217 22.1605L4.05037 22.1086L4.04138 22.1068L4.03238 21.9826L4.02159 21.9808L4 21.6453L4.00899 21.6472L4.02519 21.3284H4.03238V21.2765L4.04138 21.2784V21.2265L4.05037 21.2283L4.05937 21.1505L4.06836 21.1524V21.1097L4.07735 21.1116L4.07556 21.0764L4.08635 21.0782L4.09355 21.0171L4.10254 21.0208V20.9948H4.11153V20.9689L4.12053 20.9707V20.9355L4.12952 20.9374V20.9207L4.13852 20.9226L4.15651 20.8466L4.1655 20.8484L4.1745 20.8151L4.18349 20.8169L4.19249 20.7669L4.20148 20.7687L4.21947 20.7187L4.22847 20.7224V20.7039L4.23746 20.7057L4.24646 20.6631L4.26445 20.6576L4.27344 20.6168L4.29143 20.6112V20.5945L4.30942 20.5797V20.563L4.31841 20.5649V20.5464L4.32741 20.5482V20.5297L4.3454 20.526L4.36339 20.4759L4.37238 20.4778L4.38138 20.4537L4.39937 20.4481V20.4315L4.41736 20.4259V20.4092L4.44614 20.3962L4.45334 20.3629L4.48212 20.3518V20.3332L4.5091 20.3221L4.5073 20.3036L4.55408 20.2776V20.261L4.59905 20.2332V20.2165L4.63503 20.198V20.1794L4.6908 20.1553V20.1387L4.75376 20.0979L4.76275 20.0812L4.78254 20.0849L4.80053 20.0719V20.0534L4.89048 20.0108V19.9922L4.96424 19.9644L4.97323 19.9478L4.99122 19.9515L5.00921 19.9292L5.0272 19.9329L5.04699 19.9089L5.06498 19.9126L5.07397 19.8977L5.10096 19.894V19.8848L5.11895 19.8885L5.12794 19.8718L5.14773 19.8773L5.15493 19.8607L5.17292 19.8644L5.41038 19.6994L5.5471 19.5512L5.55609 19.553L5.62085 19.4863L5.62985 19.4882V19.4715L5.66403 19.4437L5.69281 19.44L5.75757 19.3825L6.02022 19.1879V19.1713L6.03821 19.149L6.0562 19.1361V19.1175H6.06519V19.1027L6.08318 19.0971V19.0786L6.10117 19.0656V19.0471L6.11916 19.0415V19.0249L6.13715 19.0193V19.0026L6.15514 18.9785L6.17493 18.973L6.2199 18.9211L6.27387 18.8618V18.8451L6.29186 18.8488L6.34043 18.8229L6.34943 18.8247V18.8062L6.38541 18.7876V18.7784L6.4034 18.7728V18.7561L6.45737 18.7228L6.5653 18.6042L6.58329 18.6079L6.63906 18.556L6.65705 18.5597L6.67504 18.5097L6.69303 18.5134L6.72901 18.4763L6.747 18.48L6.75599 18.4633L6.77398 18.4689L6.79377 18.4448L6.87112 18.3892L6.88732 18.3781L6.89811 18.3688L6.97187 18.2891L6.98086 18.2558L6.98986 18.2576L6.99885 18.2335L7.01684 18.228V18.2094L7.03483 18.2057V18.1872L7.07081 18.1687L7.0798 18.1353L7.09779 18.1298L7.10859 18.1057L7.15356 18.0797V18.0612L7.19853 18.0371V18.0186L7.28848 17.9574L7.29748 17.9333L7.64647 17.5645L7.66446 17.5571L7.68245 17.5089L7.70044 17.5034L7.71843 17.4552L7.72742 17.457L7.73642 17.4311L7.75441 17.4274L7.7634 17.394L7.79039 17.381L7.79938 17.3495L7.82817 17.3366V17.318L7.85515 17.3069L7.85335 17.2884L7.87314 17.2847V17.2661L7.91991 17.2402L7.91811 17.2217L7.96489 17.1957V17.1809L8.35706 16.6045L8.36965 16.586L8.38764 16.5805L8.39843 16.5471L8.41642 16.5415L8.42542 16.5082L8.44341 16.5026V16.4859L8.4614 16.4804L8.4596 16.4637L8.47939 16.4581V16.4396L8.49738 16.4359V16.4174L8.52436 16.4062V16.3877L8.55134 16.3766V16.3581L8.59812 16.3321L8.59632 16.3154L8.64309 16.2895V16.271L8.67907 16.2524V16.2339L8.69706 16.2191L8.71505 16.2246" fill="#00B1A9"/><path d="M15.6511 15.8176L15.6762 15.7157L15.696 15.7194L15.723 15.6008L15.741 15.5971L15.75 15.5712L15.759 15.573L15.7698 15.5489L15.786 15.5526L15.8238 15.4878L15.8417 15.4933L15.8777 15.4192L15.8975 15.4229L15.9335 15.3414L15.9515 15.3469L15.9875 15.2821V15.2561L16.0073 15.2505L16.0055 15.2246L16.0252 15.219L16.0342 15.1764L16.0432 15.1783L16.0414 15.1616L16.0594 15.156L16.0702 15.1041L16.0882 15.1078L16.0972 15.0485L16.1152 15.0411L16.1242 14.9744L16.1422 14.967L16.1512 14.9003L16.1692 14.8947V14.8503L16.1782 14.8521V14.8169L16.1961 14.8113L16.2051 14.7076L16.2231 14.702L16.2213 14.6316L16.2303 14.6334V14.6056L16.2411 14.6075L16.2501 14.5667L16.2591 14.5686L16.2771 14.563L16.2861 14.5204L16.3131 14.5167V14.4907L16.3311 14.4944L16.3401 14.4518L16.3688 14.4481L16.367 14.4222L16.3868 14.4259L16.4048 14.3666L16.4228 14.3703L16.4318 14.3184L16.4498 14.3221L16.5146 14.1757L16.5325 14.1794L16.5415 14.1293L16.5595 14.1312L16.5685 14.0719L16.5865 14.0756L16.5955 13.9978L16.6135 14.0015L16.6405 13.8829L16.6495 13.8847L16.6585 13.7995L16.6765 13.7939L16.6855 13.6716L16.7034 13.666V13.6308L16.7106 13.6327L16.7394 13.5771L16.7574 13.5789L16.7844 13.5586L16.8294 13.4622L16.8492 13.4659L16.8851 13.3843L16.9031 13.3881L17.155 12.6523L17.1658 12.6542L17.1712 12.6338H17.1802V12.6523L17.1892 12.6542L17.191 12.6709L17.2 12.6727V12.6912L17.2089 12.6931V12.7098L17.2179 12.7135V12.7302L17.2287 12.732V12.7487L17.2377 12.7505V12.7691L17.2467 12.7709L17.2647 12.8265L17.2737 12.8284L17.4428 13.1305L17.4446 13.149L17.4806 13.1805V13.199L17.5076 13.2213V13.2379L17.5364 13.262V13.2787L17.5561 13.2917V13.3084L17.5741 13.3213L17.5849 13.3491L17.5939 13.351V13.3677L17.6119 13.3881V13.4066L17.6209 13.4084V13.4251L17.6407 13.4381L17.6497 13.4752L17.6587 13.477L17.6785 13.5326L17.6875 13.5345V13.5604L17.6965 13.5623L17.7055 13.5993L17.7163 13.6012L17.8746 13.831V13.8495L17.9213 13.8921V13.9107L17.9591 13.944V13.9607L17.9861 13.9829V13.9996L18.0041 14.0144L18.0059 14.0311L18.0329 14.0534V14.0719L18.0509 14.083L18.0617 14.1201L18.0796 14.1331L18.0994 14.1886L18.1174 14.1998L18.1264 14.2368L18.1372 14.2387L18.1444 14.2757L18.1552 14.2776V14.3035L18.166 14.3054L18.175 14.3425L18.1822 14.3443L18.193 14.3888L18.202 14.3906L18.3621 14.6223V14.639L18.4071 14.6835L18.4088 14.7001L18.4358 14.7224V14.7409L18.4628 14.7631V14.7817L18.4826 14.7928L18.4916 14.8206L18.5006 14.8225V14.841L18.5204 14.8521L18.5294 14.8892L18.5474 14.9021L18.5672 14.9577L18.5762 14.9596V14.9763L18.5851 14.9781V14.9948L18.5959 14.9967V15.0152L18.6049 15.017L18.6229 15.0726L18.6319 15.0745V15.1004L18.6409 15.1023V15.1208L18.6499 15.1227L18.6517 15.1486L18.6607 15.1505L18.6625 15.1672L18.6697 15.169V15.195L18.6805 15.1968V15.2227L18.6895 15.2265V15.2505L18.6985 15.2524L18.7542 15.3414L18.801 15.4118L18.81 15.4136L18.8208 15.4414L18.8478 15.4655V15.4822L18.8676 15.4952V15.5119L18.8946 15.5341V15.5526L18.9126 15.5637L18.9233 15.5915L18.9323 15.5934L18.9431 15.6305L18.9593 15.6434V15.6601L18.9791 15.6805V15.699L18.9881 15.7009V15.7176L18.9971 15.7194V15.7361L19.0169 15.7491V15.7769L19.0277 15.7787V15.7954L19.0349 15.7973L19.0457 15.8343H19.0547V15.8621L19.0637 15.864V15.8806L19.0745 15.8825L19.0835 15.927L19.0925 15.9288V15.9566L19.1014 15.9585L19.2148 16.1623L19.2508 16.1957L19.2526 16.2124L19.2795 16.2365V16.2531L19.2993 16.2643V16.2828L19.3641 16.3921L19.3821 16.4033V16.4218L19.4001 16.4422L19.4019 16.4589L19.4109 16.4607V16.4792L19.4199 16.4811V16.4978L19.4289 16.4996V16.5163L19.4396 16.52L19.4576 16.5738L19.4666 16.5775L19.6267 16.8073L19.6447 16.8369L19.6537 16.8388V16.8573L19.6915 16.8907V16.9073L19.7185 16.9296V16.9481L19.7473 16.9703V16.987L19.7653 17V17.0185L19.785 17.0296L19.794 17.0574L19.803 17.0593L19.8138 17.0964L19.8318 17.1093L19.8408 17.1445L19.8876 17.2409H19.902L19.8984 17.2502L19.8714 17.2632V17.2724L19.8534 17.2687V17.278L19.8354 17.2724L19.8174 17.2965L19.8066 17.2947V17.3113H19.7976L19.7886 17.3262L19.7689 17.3225L19.7599 17.3484L19.7329 17.3688L19.7239 17.3669V17.3762L19.7059 17.3725V17.3818L19.6771 17.3929V17.4114L19.6591 17.417V17.4337L19.6213 17.454L19.5764 17.4892V17.5059H19.5656V17.5226L19.5404 17.5356V17.5448L19.5206 17.5411L19.5116 17.5578H19.4738L19.3821 17.5856L19.3533 17.606V17.6153L19.3353 17.6116V17.6208L19.3155 17.6171L19.2975 17.6394L19.2777 17.6357L19.2705 17.6523L19.2508 17.6486L19.195 17.7005L19.177 17.6968L19.15 17.7265L19.1212 17.7302L19.1122 17.7543L19.0853 17.758V17.7765L19.0565 17.7987L19.0475 17.795L19.0493 17.8062L19.0187 17.808L19.0115 17.8247L18.9827 17.8191L18.9737 17.8339L18.9557 17.8302V17.8395L18.9359 17.8358V17.8451L18.9 17.8377V17.8469L18.8424 17.8543V17.8636L18.8154 17.858V17.8673L18.7974 17.8636L18.7884 17.8784L18.7507 17.8803L18.6535 17.9451L18.524 18.01L18.3153 18.1156L18.2865 18.1379L18.175 18.2398L18.1498 18.262L18.0653 18.2713L18.0455 18.2954L17.9627 18.3047L17.9537 18.3213L17.9159 18.3232L17.8979 18.3473L17.8782 18.3436L17.8692 18.3584L17.8332 18.3603L17.8152 18.3825L17.7774 18.4029L17.7594 18.3992V18.4177L17.7396 18.4122L17.7217 18.4362L17.7037 18.4325V18.4418L17.6839 18.4381V18.4474L17.6659 18.4529V18.4696L17.6479 18.4752V18.4844L17.6101 18.4863L17.6011 18.5011L17.4104 18.5178L17.3025 18.3788L17.2737 18.3566L17.2647 18.3288L17.2269 18.2935V18.2769L17.1982 18.2546V18.2361L17.1712 18.2139V18.1953L17.1514 18.1842V18.1675L17.1334 18.1546L17.1244 18.1175L17.1064 18.1064L17.0956 18.0675H17.0848L17.0776 18.0304L17.0686 18.0285L17.0668 18.01L17.0578 18.0082L17.0434 17.9878L17.0345 17.9859L16.9499 17.8655L16.8815 17.7839V17.7746L16.8438 17.7413V17.7246L16.752 17.6282V17.6097L16.7286 17.5801V17.5615L16.7088 17.5504V17.5319L16.6909 17.5208V17.5022L16.6711 17.4911V17.4726L16.6531 17.4614V17.4429L16.6351 17.4318V17.4133L16.6243 17.4114L16.6153 17.3762L16.5973 17.3632L16.5883 17.3262H16.5793L16.5433 17.265L16.5343 17.2632V17.2372H16.5253L16.5164 17.1983H16.5074L16.3293 16.9463V16.9277L16.2825 16.8851V16.8666L16.2555 16.8443V16.8258L16.2267 16.8036V16.7869L16.2087 16.7739V16.7572L16.1889 16.7443L16.18 16.7165L16.171 16.7146L16.1512 16.659L16.1332 16.6479L15.9461 16.3069L15.9371 16.2772L15.8615 16.2031V16.1846L15.8256 16.1512V16.1345L15.7878 16.1012L15.786 16.0826L15.7698 16.0715L15.759 16.0437L15.75 16.0419V16.0233L15.732 16.0122V15.9955L15.7122 15.9826V15.964L15.6942 15.9529L15.6924 15.9344L15.6475 15.8658V15.8603L15.6511 15.8621V15.8176Z" fill="#B7C61F"/><path d="M17.1688 12.6045V12.6152L17.1602 12.6045H17.1688Z" fill="#81BB2F"/><path d="M17.1726 12.6208L17.1709 12.6332V12.6172L17.1726 12.6208Z" fill="#81BB2F"/><path d="M15.6457 15.8572L15.6412 15.8557L15.6396 15.8525L15.6457 15.8541V15.8572Z" fill="#81BB2F"/><path d="M15.6037 15.78V15.7541L15.5947 15.7522V15.7355L15.584 15.7337V15.7151L15.566 15.704V15.6855L15.5192 15.641V15.6317L15.4904 15.6188V15.6002L15.4706 15.5965L15.4616 15.5687L15.3969 15.5039V15.4853L15.3591 15.452V15.4353L15.3213 15.4019V15.3834L15.2925 15.3612V15.3426L15.2835 15.3408L15.2745 15.313L15.2458 15.2908L15.226 15.2333L15.208 15.2222L15.2062 15.2037L15.1882 15.1814V15.1647L15.1792 15.1629V15.1444L15.1702 15.1425V15.1258L15.1594 15.124V15.1054H15.1504V15.0869L15.1414 15.085L15.1216 15.0276H15.1126V14.9998L15.1036 14.9979V14.9813L15.0928 14.9794L14.9885 14.8274V14.8089L14.9705 14.7978V14.7885L14.9525 14.7848L14.9417 14.7644L14.9147 14.7422V14.7237L14.877 14.6903V14.6736L14.8392 14.6403V14.6217L14.8212 14.6106L14.8104 14.5717L14.7924 14.5606V14.5421L14.7726 14.5291L14.7546 14.4735L14.7348 14.4624L14.7259 14.4253L14.7061 14.4123V14.3845H14.6971V14.366L14.6881 14.3641V14.3475L14.6773 14.3456V14.3271L14.6683 14.3252L14.6485 14.2678H14.6395V14.2418L14.6305 14.24V14.2214L14.6215 14.2196L14.4794 13.9713V13.9546L14.4326 13.9101V13.8934L14.393 13.8601L14.3841 13.8304L14.3661 13.8193L14.3553 13.7822L14.3265 13.7581L14.3067 13.7025L14.2887 13.6896V13.671L14.2707 13.6506V13.634L14.2617 13.6303V13.6136L14.2527 13.6117V13.5951L14.2419 13.5913V13.5747L14.2329 13.5728L14.2132 13.5172L14.2042 13.5154L14.1952 13.4598L14.1862 13.4579L14.1754 13.4394L14.1664 13.4097L14.1088 13.293L14.08 13.2448L14.062 13.2411V13.2318L14.0333 13.2096V13.191L14.0153 13.1781V13.1614L13.9865 13.1392V13.1206L13.9685 13.1169L13.9577 13.0891L13.9487 13.0873L13.9397 13.0595L13.9199 13.0465L13.9109 13.0094L13.8821 12.9872L13.8642 12.9297L13.8462 12.9186L13.8444 12.9001L13.8264 12.8797V12.8612L13.8174 12.8593V12.8408L13.8084 12.8389V12.8223L13.7976 12.8204V12.8019L13.7886 12.8L13.7868 12.7833L13.7796 12.7815L13.7598 12.7259L13.749 12.724V12.6981L13.74 12.6944V12.6684L13.731 12.6666V12.6406L13.7202 12.6388V12.6128L13.7112 12.611V12.5832H13.7023V12.5554L13.6933 12.5535L13.6915 12.5276L13.6825 12.5257V12.4905L13.6735 12.4887V12.4535L13.6627 12.4516V12.4164L13.6537 12.4145L13.6429 12.3071L13.6339 12.3052L13.6231 12.1273L13.6123 12.1254L13.6195 11.9234L13.6303 11.9253L13.6465 11.7529L13.7364 11.4787L13.7454 11.4805L13.7634 11.4305L13.7724 11.4323V11.4157L13.7814 11.4175V11.399L13.7904 11.4008V11.3841L13.7994 11.386V11.3675L13.8102 11.3693L13.8084 11.3526L13.8264 11.3378V11.3193L13.8462 11.3137L13.8642 11.2655L13.8911 11.2526L13.9001 11.2211L13.9199 11.2137L13.9271 11.1896L13.9361 11.1914L13.9451 11.1673L13.9649 11.171L13.9829 11.1395H13.9919V11.1228L14.0369 11.0784L14.0566 11.0821L14.0548 11.0728L14.0746 11.0672V11.0506L14.1016 11.0469V11.0302L14.1394 11.0191L14.1844 10.9746L14.2024 10.9783V10.969L14.2491 10.9523V10.9338L14.2761 10.9301V10.9208L14.3049 10.919L14.3139 10.9023L14.3517 10.9005L14.3697 10.8782L14.4254 10.8708L14.4344 10.8541L14.4524 10.8597L14.4704 10.8449L14.4884 10.8486V10.8393L14.5082 10.8412V10.8337L14.5262 10.8374L14.5352 10.8226L14.5729 10.8189V10.8115L14.6287 10.8041V10.7948L14.6557 10.8004L15.2134 10.793L15.5102 10.8578V10.8671L15.6127 10.8949L15.8268 10.9987L15.8844 11.0172V11.0265L15.9024 11.0283V11.0376L15.9851 11.0802L15.9959 11.1006L16.0139 11.1025L16.0337 11.1247L16.0517 11.1284V11.1377L16.0697 11.1414L16.0805 11.1599L16.0985 11.1636V11.1729L16.1164 11.1766L16.1362 11.197L16.1542 11.2007V11.2099L16.183 11.2229L16.192 11.2433L16.2478 11.2711L16.2586 11.2915L16.2855 11.3045V11.3137L16.3143 11.3286V11.3452L16.3611 11.3804V11.3897L16.3809 11.3934L16.4259 11.4546L16.4636 11.4805V11.4972L16.4834 11.5009L16.4924 11.5287L16.5572 11.5954L16.559 11.6121L16.586 11.6343V11.6529L16.6148 11.677V11.6936L16.6327 11.7066L16.6435 11.7344L16.6795 11.7678V11.7863L16.7083 11.8085L16.7281 11.8641L16.7461 11.8771L16.7479 11.8956L16.7659 11.916V11.9346L16.7767 11.9364V11.9531L16.7839 11.9549V11.9735L16.7946 11.9753V11.992L16.8036 11.9957V12.0124H16.8126L16.8414 12.0717L17.0123 12.3775V12.3942L17.0213 12.3979L17.0411 12.4275L17.0681 12.4498V12.4664L17.0879 12.4813V12.4979L17.1167 12.5202L17.1257 12.5572L17.1526 12.5795L17.1616 12.6036V12.6054L17.1706 12.6165V12.6332L17.1652 12.6536L17.1544 12.6518L16.9026 13.3875L16.8846 13.3838L16.8486 13.4653L16.8288 13.4616L16.7839 13.558L16.6759 13.7933L16.6579 13.7989L16.6489 13.8842L16.6399 13.8823L16.613 14.0009L16.595 13.9972L16.586 14.075L16.568 14.0713L16.559 14.1306L16.541 14.1288L16.532 14.1788L16.514 14.1751L16.4492 14.3215L16.4313 14.3178L16.4223 14.3697L16.4043 14.366L16.3863 14.4253L16.3683 14.4475L16.3305 14.4939L16.3125 14.5161L16.2226 14.7014L16.1956 14.8108L16.1776 14.8163V14.8515L16.1686 14.8497V14.8942L16.1506 14.8997L16.1416 14.9664L16.1236 14.9739L16.1146 15.0406L16.0967 15.048L16.0877 15.1073L16.0697 15.1036L16.0589 15.1555L16.0409 15.161L16.0427 15.1777L16.0337 15.1759L16.0247 15.2185L16.0049 15.224L16.0067 15.25L15.9869 15.2555V15.2815L15.9509 15.3464L15.933 15.3408L15.897 15.4223L15.8772 15.4186L15.8412 15.4928L15.6955 15.7189L15.6505 15.8171V15.8615L15.6469 15.8597V15.856L15.6397 15.8541L15.6127 15.7837L15.6037 15.78Z" fill="#009096"/><path d="M23.09 19.6224L23.0969 19.6313L23.0814 19.6277L23.0762 19.617L23.09 19.6152V19.6224Z" fill="#81BB2F"/><path d="M24.8689 16.8261L24.8779 16.8298V16.8501L24.8438 16.8057L24.8689 16.8261Z" fill="#81BB2F"/><path d="M23.0453 19.5756L23.0345 19.5385L23.0075 19.5163L22.9967 19.4699L22.9877 19.4681L22.9499 19.4069L22.8258 19.3217V19.3031L22.7988 19.2902L22.7898 19.2698L22.7701 19.2679L22.7413 19.2271L22.7233 19.2234L22.6765 19.1697L22.6567 19.14L22.6387 19.1363L22.6099 19.0863L22.592 19.0826L22.5434 19.0122L22.5344 19.0103V18.9918L22.4768 18.9362V18.9195L22.4588 18.9065V18.8899L22.439 18.8769V18.8584L22.4031 18.8417L22.3347 18.6879L22.3149 18.6842L22.2394 18.5025L22.2196 18.4896V18.471L22.2106 18.4692L22.2016 18.4136L22.1926 18.4117L22.1908 18.3858H22.1818V18.358L22.1728 18.3561V18.3302L22.1638 18.3283L22.162 18.2931L22.1548 18.2913L22.1422 18.2357L22.1332 18.2338V18.2171L22.1242 18.2134V18.1782H22.1152L22.1134 18.1245L22.1044 18.1226V18.0781L22.0954 18.0763L22.0936 18.004L22.0847 18.0022L21.9479 17.5166L21.9389 17.4258H21.9299L21.9281 17.4073L21.9192 17.4054L21.9174 17.3443L21.8994 17.3294V17.2331L21.8796 17.2201L21.876 16.9458L21.894 16.9403V16.8439L21.9138 16.8457L21.921 16.7605H21.9299V16.7253L21.9389 16.7271V16.6827L21.9569 16.6771V16.6419L21.9767 16.6382L21.9857 16.577L22.0037 16.5807L22.0307 16.4881L22.0487 16.4918V16.4658L22.0667 16.4695L22.1404 16.3491L22.1602 16.3528L22.1872 16.2972L22.2052 16.3009V16.2824L22.2232 16.2861L22.2681 16.2249L22.2879 16.2268V16.2101L22.3149 16.2157L22.3437 16.1934L22.3419 16.1767L22.3617 16.1804V16.1619L22.3815 16.1656L22.3977 16.1434L22.4175 16.1452L22.4265 16.1304L22.4534 16.1267V16.1082L22.502 16.0822L22.5848 16.0711V16.0544L22.6783 16.0452L22.6765 16.0266L22.7611 16.0174L22.7898 16.0229V16.0136L22.8096 16.0174V16.0081L22.8456 16.0155L22.8546 15.9988L22.9571 16.0099L22.9661 15.9951L23.0507 16.0099L23.0597 15.9951L23.209 16.0229L23.2288 16.0174L23.4806 16.0748V16.0933L23.6857 16.1582V16.1767L23.7325 16.1841L23.7343 16.2027L23.8854 16.2509L24.2506 16.4547L24.3136 16.4899V16.4992L24.3513 16.5066L24.3603 16.5251L24.3981 16.5326V16.5418L24.4269 16.5474V16.5566L24.4557 16.5622V16.5715L24.4934 16.5789V16.5863L24.6248 16.6475V16.6641L24.8119 16.7716V16.7883L24.8442 16.805L24.8784 16.8495V16.855L24.8964 16.8587L24.9072 16.9051L24.9162 16.9069V16.9421L24.9252 16.944V16.9606L24.936 16.9625V16.9903L24.945 16.9922V17.0274L24.9558 17.0292V17.0459L24.9648 17.0478V17.0922L24.9828 17.1052L24.9846 17.1682L25.0026 17.1812L25.0044 17.259L25.0223 17.272L25.0259 17.4221L25.0439 17.5426L25.0367 17.5389V17.5759L25.0259 17.5741L25.0277 17.7242L25.0097 17.7297V17.8094L24.9918 17.815V17.8761L24.9738 17.8817V17.9262L24.9648 17.9243V17.9429L24.9558 17.941V17.9762L24.9468 17.9744V17.9929L24.9378 17.9892L24.9288 18.0503L24.9198 18.0485L24.9108 18.0911L24.8928 18.0874V18.1226L24.873 18.1189L24.8748 18.1541L24.855 18.1523L24.8388 18.2097L24.8191 18.206L24.8011 18.2561L24.7741 18.269V18.295L24.7381 18.3413L24.7183 18.3376V18.3561L24.7003 18.3524V18.3691L24.6823 18.3654L24.6176 18.4506L24.5978 18.4469V18.4655L24.515 18.5025V18.5192L24.4593 18.5359V18.5544L24.3028 18.6749L24.283 18.6712V18.6971L24.265 18.7027V18.7194L24.2362 18.7323V18.7509L24.2092 18.7638V18.7805L24.1732 18.8009L24.1552 18.8231V18.8417L24.1355 18.838L24.0977 18.875L24.0905 18.8732V18.8899L24.0617 18.9028L24.0527 18.9195L24.0347 18.9158L23.7379 19.1419L23.7289 19.14L23.7199 19.1641L23.7019 19.1697V19.1882L23.6839 19.1938V19.2105L23.6659 19.216V19.2346L23.6371 19.2475V19.2642L23.6102 19.2772L23.6012 19.3013L23.5634 19.3217L23.5076 19.3643L23.5094 19.381L23.4806 19.3847L23.4249 19.4366L23.4069 19.4329L23.3979 19.4495L23.3781 19.444L23.3511 19.4755L23.3223 19.4792L23.3133 19.494L23.2953 19.4903L23.2864 19.507L23.2666 19.5033L23.2576 19.52L23.2396 19.5163V19.5255L23.2108 19.5274L23.2036 19.5441L23.1838 19.5403L23.1658 19.5644L23.146 19.5607L23.0993 19.6126L23.1011 19.6312H23.0993L23.0921 19.6219V19.6145L23.0777 19.6163L23.0543 19.5774L23.0453 19.5756Z" fill="#57B14F"/><path d="M17.4078 18.5207L17.4062 18.5176H17.4093L17.4123 18.5207H17.4078Z" fill="#81BB2F"/><path d="M17.6097 18.4856L17.6475 18.4838V18.4745L17.6655 18.4689V18.4522L17.6834 18.4467V18.4374L17.7032 18.4411V18.4319L17.7212 18.4356L17.7392 18.4115L17.759 18.417V18.3985L17.777 18.4022L17.8148 18.3818L17.8328 18.3596L17.8687 18.3577L17.8777 18.3429L17.8975 18.3466L17.9155 18.3225L17.9533 18.3207L17.9623 18.304L18.045 18.2947L18.0648 18.2706L18.1494 18.2614L18.1746 18.2391L18.2861 18.1372L18.3149 18.115L18.4822 18.0149L18.5092 18.0204V18.0038L18.6387 17.9389L18.7502 17.8796L18.788 17.8777L18.797 17.8629L18.815 17.8666V17.8574L18.842 17.8629V17.8537L18.8995 17.8462V17.837L18.9355 17.8444V17.8351L18.9553 17.8388V17.8296L18.9733 17.8333L18.9823 17.8184L19.0111 17.824L19.0183 17.8073L19.0488 17.8055L19.047 17.7943L19.056 17.7981L19.0848 17.7758V17.7573L19.1118 17.7536L19.1208 17.7295L19.1496 17.7258L19.1766 17.6961L19.1946 17.6998L19.2503 17.6479L19.2701 17.6517L19.2773 17.635L19.2971 17.6387L19.3151 17.6164L19.3349 17.6201V17.6109L19.3529 17.6146V17.6053L19.3817 17.5849L19.4734 17.5571L19.6209 17.4534L19.6587 17.433V17.4163L19.6767 17.4107V17.3922L19.7055 17.3811V17.3718L19.7235 17.3755V17.3663L19.7324 17.3681L19.7594 17.3477L19.7684 17.3218L19.7882 17.3255L19.7972 17.3107H19.8062V17.294L19.817 17.2958L19.835 17.2717L19.853 17.2773V17.268L19.871 17.2717V17.2625L19.898 17.2495L19.9015 17.2402H19.9069L19.9087 17.2421V17.2588L19.9465 17.2847V17.3032L20.0203 17.3625L20.0221 17.3792L20.0401 17.3829V17.3996L20.0599 17.4052V17.4219L20.0778 17.4256L20.0796 17.4441L20.0976 17.4459L20.1444 17.5256L20.1642 17.5293L20.184 17.5775L20.2002 17.5812V17.5998L20.22 17.6035L20.2865 17.7128L20.4196 17.8629V17.8796L20.4556 17.8963V17.913L20.5042 17.9408V17.9574L20.5222 17.9611L20.524 17.9797L20.542 17.9834V18.0019L20.5887 18.0538L20.6085 18.0575V18.076L20.6265 18.0797V18.0964L20.6463 18.1001L20.7111 18.2095L20.7309 18.2132V18.2317L20.7489 18.2354V18.2614L20.7686 18.2651L21.0151 18.5505V18.569L21.0331 18.5727L21.0619 18.6227L21.0799 18.6246V18.645L21.0996 18.6468L21.1284 18.6969L21.1464 18.7006V18.7173L21.1644 18.721L21.195 18.7877L21.213 18.7914V18.8099L21.231 18.8136L21.2616 18.8803L21.2777 18.8859L21.2795 18.9118L21.2975 18.9156L21.3083 18.9434L21.3173 18.9452L21.3263 18.9915L21.3461 19.0045V19.0212L21.3659 19.0342V19.0601L21.3839 19.0731L21.3929 19.1287L21.4127 19.1398V19.175L21.4217 19.1769L21.4325 19.2232L21.4486 19.2269L21.4612 19.3177L21.4702 19.3196V19.3381L21.4792 19.3399L21.481 19.3918L21.5008 19.4048L21.5476 19.5735L21.5674 19.5772L21.5854 19.6513L21.6034 19.655L21.6141 19.7199L21.6321 19.7217L21.6447 19.8125L21.6627 19.8162L21.6933 20.1331L21.6843 20.1294L21.6861 20.2721L21.6771 20.2703L21.6789 20.3333L21.6681 20.3314L21.6699 20.3833L21.6501 20.3889L21.6429 20.4593L21.6231 20.4556L21.5782 20.5964L21.5584 20.5927L21.4864 20.7225L21.4666 20.7262L21.4576 20.7243L21.4594 20.7503L21.4397 20.7484V20.7558L21.4037 20.7762L21.3767 20.7984V20.8244L21.3101 20.8466V20.8614L21.3065 20.8596L21.3047 20.8633H21.3011L21.2849 20.8726H21.2795L21.2616 20.8855L21.2436 20.8818V20.8911L21.2256 20.8874V20.8967L21.2058 20.8929L21.1968 20.9096L21.1428 20.9152L21.1338 20.9319L21.114 20.9282L21.1068 20.943L21.0601 20.9708H21.0331V20.9893L20.8658 21.0004V21.019L20.6877 21.0023V21.0116L20.6697 21.0078V21.0153L20.5474 20.993L20.211 20.8929V20.8763L20.1354 20.8522L20.1264 20.8336L20.1084 20.8299V20.8207L20.0599 20.8114V20.8021L20.0329 20.7984V20.7892L19.9393 20.7706L19.9303 20.7521L19.826 20.7317L19.817 20.7113L19.7522 20.6984V20.6909L19.7145 20.6835V20.6743L19.6857 20.6706V20.6613L19.6389 20.652L19.6299 20.6316L19.5831 20.6224V20.6057L19.5454 20.5983L19.5364 20.5779L19.4716 20.5575V20.539L19.432 20.5334V20.5149L19.3942 20.4982L19.396 20.4908L19.3673 20.4834V20.476L19.3205 20.45V20.4315L19.2917 20.4259V20.4093L19.1406 20.274L19.1226 20.2703V20.2517L19.074 20.198L19.056 20.1961V20.1776L19.0381 20.1739V20.1554L18.8582 20.0071L18.8204 19.9812L18.8114 19.9626L18.7916 19.9589V19.9515L18.7736 19.9478V19.9367L18.7358 19.9033L18.6135 19.8181V19.8014L18.5955 19.7977V19.7792L18.5667 19.7736V19.7569L18.5469 19.7532V19.7347L18.4444 19.6179L18.4246 19.6142V19.5975L18.2447 19.4048V19.3863L18.2069 19.3789V19.3603L18.18 19.3474V19.3381L18.1602 19.3344L18.1512 19.314L18.1224 19.3084L18.1134 19.2899L18.0486 19.251V19.2325L18.0288 19.2287V19.2102L17.9821 19.1843V19.1676L17.9623 19.1639V19.1454L17.8867 19.0861V19.0694L17.8687 19.0657L17.822 18.986L17.8022 18.9823V18.9637L17.7842 18.96L17.7644 18.9137L17.7446 18.91V18.8915L17.7266 18.8878V18.8618L17.7068 18.8488V18.8303H17.6978L17.6798 18.7821L17.6601 18.7784V18.7506L17.6403 18.7469L17.6133 18.7154L17.6025 18.6969V18.6876L17.5755 18.682V18.6635L17.4982 18.6153V18.5968L17.4244 18.5468V18.5301L17.4082 18.5208H17.4136L17.41 18.5171L17.6007 18.5004L17.6097 18.4856Z" fill="#5FA224"/></g><defs><clipPath id="a"><rect width="34" height="34" fill="white"/></clipPath></defs></svg>