<svg width="34" height="34" viewBox="0 0 34 34" fill="none" xmlns="http://www.w3.org/2000/svg"><g clip-path="url(#a)"><ellipse cx="17" cy="17" rx="17" ry="17" fill="#2A64FF"/><path d="M17 7C11.4779 7 7 11.4779 7 17C7 22.5221 11.4779 27 17 27C22.5221 27 27 22.5221 27 17C27 11.4779 22.5221 7 17 7ZM17.2093 25.1679C16.0122 25.3373 14.0649 25.0315 12.7455 24.199C11.5908 23.4675 10.9017 22.555 10.4548 21.6284C9.99859 20.6806 9.78222 19.5329 10.269 19.5894C10.4972 19.6152 10.6924 20.048 11.1322 20.6101C11.4332 20.9934 11.7084 21.318 11.9177 21.3603C12.0118 21.3791 12.087 21.3368 12.1552 21.2121C12.2799 20.9746 12.4468 20.523 12.7479 20.1562C12.9901 19.8763 13.2817 19.7446 13.4534 20.429C13.5357 20.77 13.6016 21.1204 13.6392 21.4262C13.6933 21.8589 13.7215 22.1176 13.8697 22.1905C14.0132 22.2611 14.2578 22.1693 14.6505 22.0235C14.9327 21.9177 15.2949 21.7836 15.7559 21.6519C16.1792 21.5296 16.4473 21.5955 16.1745 22.2516C16.0452 22.5621 15.9158 22.8231 15.4595 23.4817C15.3796 23.5969 15.3937 23.7121 15.4948 23.8109C15.6477 23.9614 15.9958 24.1472 16.3768 24.3142C16.6825 24.4459 17.047 24.5611 17.2869 24.6293C17.6632 24.7375 17.5903 25.1162 17.2117 25.1703L17.2093 25.1679ZM22.341 23.0183C21.9694 23.6251 21.1886 24.2789 20.2408 24.714C20.0974 24.7775 19.9445 24.7587 19.9045 24.6411C19.8716 24.54 19.9516 24.4224 20.0456 24.3119C21.278 22.7126 20.3631 21.2451 18.3711 20.1068C16.9012 19.2648 15.9652 18.7827 14.881 18.143C11.7013 16.2709 11.0875 14.6411 10.9628 13.6745C10.65 11.238 12.6656 9.41063 14.7375 8.97084C14.801 8.95908 14.9657 8.93086 15.0198 9.06961C15.0738 9.20837 14.9516 9.30715 14.8786 9.35183C13.952 9.86218 13.0419 10.9464 13.1406 12.1482C13.1971 12.8208 13.484 13.7874 15.302 15.0833C16.4003 15.8664 17.7455 16.5085 20.4572 18.1336C23.3217 19.8504 22.9948 21.9459 22.341 23.0136V23.0183ZM22.7902 13.8721C22.1364 14.674 21.4826 14.3754 20.9793 13.2465C20.6665 12.5433 20.2526 12.3739 19.961 12.5574C19.6435 12.7573 19.7681 13.2394 20.1256 13.7944C20.3584 14.1566 20.2549 14.5847 20.0127 14.8363C19.7587 15.1021 19.3424 15.2079 18.8885 15.1068C18.0818 14.928 17.2893 13.8485 17.8678 11.492C18.1007 10.5395 17.6444 10.1326 17.3551 9.76811C17.2093 9.58467 17.1929 9.47413 17.2446 9.40122C17.301 9.32126 17.4351 9.3142 17.6726 9.36595C17.9831 9.4318 18.444 9.58937 18.818 9.64817C19.0673 9.68579 19.3471 9.69755 19.6458 9.68579C20.4501 9.65522 21.0428 9.77987 21.6496 10.0809C22.6797 10.5913 22.7832 11.4661 22.2117 11.3979C22.0141 11.3744 21.7578 11.2239 21.5484 11.1204C21.4073 11.0522 21.285 11.031 21.1957 11.0945C21.111 11.1557 21.0757 11.2827 21.1345 11.4097C21.2615 11.6778 21.6943 11.8166 22.2799 11.9788C23.3053 12.2611 23.3264 13.2135 22.7902 13.8697V13.8721Z" fill="white"/></g><defs><clipPath id="a"><rect width="34" height="34" fill="white"/></clipPath></defs></svg>