<svg width="34" height="34" viewBox="0 0 34 34" fill="none" xmlns="http://www.w3.org/2000/svg"><ellipse cx="17" cy="17" rx="17" ry="17" fill="#A7D8F6"/><mask id="a" style="mask-type:alpha" maskUnits="userSpaceOnUse" x="7" y="7" width="20" height="20"><ellipse cx="17" cy="16.7171" rx="10" ry="9.71707" fill="#C4C4C4"/></mask><g mask="url(#a)"><path d="M27.6683 16.713C27.6693 18.7632 27.0445 20.7676 25.8731 22.4727C24.7017 24.1778 23.0361 25.5071 21.0872 26.2923C19.1382 27.0776 16.9934 27.2836 14.9239 26.8842C12.8545 26.4849 10.9534 25.4982 9.46112 24.0489C7.96884 22.5996 6.9524 20.7528 6.54036 18.7421C6.12831 16.7314 6.33918 14.6472 7.14628 12.7529C7.95338 10.8587 9.32046 9.23962 11.0746 8.10043C12.8288 6.96124 14.8912 6.35314 17.0011 6.35303C19.8286 6.35508 22.5398 7.44706 24.5396 9.38935C26.5395 11.3316 27.6647 13.9655 27.6683 16.713Z" fill="white"/><path d="M16.9974 27.0828C19.1072 27.0836 21.1699 26.4764 22.9246 25.338C24.6793 24.1996 26.0471 22.5811 26.8551 20.6872C27.6631 18.7934 27.875 16.7092 27.4639 14.6984C27.0528 12.6875 26.0372 10.8403 24.5456 9.3903C23.054 7.94033 21.1534 6.95276 19.0842 6.55249C17.0149 6.15223 14.87 6.35724 12.9207 7.14161C10.9713 7.92598 9.30517 9.25447 8.13291 10.9591C6.96066 12.6636 6.33496 14.6677 6.33496 16.7179C6.33539 19.466 7.45875 22.1015 9.45812 24.045C11.4575 25.9886 14.1693 27.0812 16.9974 27.0828Z" fill="#007BC6"/><path d="M16.9479 21.1224C21.3375 21.1224 25.1079 22.3108 26.7208 24C27.2713 22.7593 27.5547 21.4222 27.5536 20.0711C27.5238 17.3665 26.3899 14.7841 24.401 12.8917C22.4122 10.9994 19.7313 9.95208 16.9479 9.98008C14.1635 9.95106 11.4811 10.9978 9.49073 12.8901C7.50034 14.7825 6.36487 17.3655 6.33399 20.0711C6.33307 21.423 6.61931 22.7605 7.17479 24C8.78419 22.3108 12.5545 21.1224 16.9479 21.1224Z" fill="#007BC6"/><path d="M16.9468 21.1332C21.3252 21.1332 25.0858 22.3118 26.6946 23.9875C27.2437 22.7575 27.5265 21.4309 27.5254 20.0901C27.4887 17.3983 26.354 14.8308 24.3705 12.9513C22.3871 11.0719 19.717 10.0342 16.9468 10.0662C14.1756 10.0333 11.5042 11.0704 9.51929 12.9498C7.53438 14.8293 6.39823 17.3974 6.36035 20.0901C6.3595 21.4316 6.64498 22.7587 7.19875 23.9875C8.80409 22.3118 12.5647 21.1332 16.9468 21.1332Z" fill="#027DC7"/><path d="M16.9448 21.1434C21.312 21.1434 25.063 22.3124 26.6676 23.9743C27.2153 22.755 27.4975 21.4388 27.4965 20.1085C27.4526 17.4296 26.3171 14.8769 24.339 13.0104C22.3609 11.1439 19.7018 10.1159 16.9448 10.1518C14.1868 10.115 11.5263 11.1425 9.54691 13.0091C7.56747 14.8756 6.43064 17.4288 6.38574 20.1087C6.38493 21.4397 6.6697 22.7564 7.22188 23.9745C8.82294 22.3124 12.5739 21.1434 16.9448 21.1434Z" fill="#037FC9"/><path d="M16.9437 21.1561C21.2998 21.1561 25.0411 22.3157 26.6414 23.964C27.1876 22.7554 27.4692 21.4496 27.4681 20.1297C27.4172 17.4636 26.2811 14.9258 24.3084 13.0721C22.3358 11.2185 19.6876 10.2 16.9437 10.2399C11.1309 10.2399 6.41211 14.6885 6.41211 20.1297C6.41144 21.4503 6.69554 22.7565 7.24611 23.964C8.84304 22.3154 12.5844 21.1561 16.9437 21.1561Z" fill="#0581CA"/><path d="M16.9414 21.1649C21.2862 21.1649 25.018 22.3145 26.614 23.9496C27.1589 22.7518 27.4399 21.4565 27.439 20.1469C27.439 14.7507 22.7366 10.3242 16.9414 10.3242C11.1437 10.3242 6.4375 14.7505 6.4375 20.1469C6.43686 21.4571 6.72014 22.7528 7.2689 23.9496C8.8617 22.3145 12.5935 21.1649 16.9414 21.1649Z" fill="#0784CB"/><path d="M16.9402 21.1759C21.2739 21.1759 24.9961 22.3157 26.5879 23.9373C27.1313 22.7502 27.4118 21.4653 27.4109 20.1661C27.4109 14.8145 22.7208 10.4102 16.9402 10.4102C11.1578 10.4102 6.46387 14.8142 6.46387 20.1661C6.46329 21.4659 6.74584 22.7511 7.29293 23.9373C8.8816 22.3157 12.6037 21.1759 16.9402 21.1759Z" fill="#0986CD"/><path d="M16.9381 21.1861C21.2607 21.1861 24.9733 22.3163 26.5607 23.9243C27.1028 22.748 27.3826 21.4735 27.3818 20.1846C27.3818 14.8778 22.7041 10.4961 16.9381 10.4961C11.1709 10.4961 6.48926 14.8778 6.48926 20.1846C6.4887 21.474 6.7705 22.7488 7.31593 23.9243C8.90079 22.316 12.6133 21.1861 16.9381 21.1861Z" fill="#0A88CE"/><path d="M16.9379 21.1981C21.2493 21.1981 24.9523 22.3188 26.5354 23.9131C27.0761 22.7475 27.3553 21.4834 27.3546 20.2049C27.3546 14.9429 22.6892 10.5835 16.9379 10.5835C11.1865 10.5835 6.5166 14.9426 6.5166 20.2049C6.51614 21.4839 6.79723 22.7483 7.341 23.9131C8.92134 22.3185 12.6243 21.1981 16.9379 21.1981Z" fill="#0C8ACF"/><path d="M16.9368 21.2086C21.2368 21.2086 24.9301 22.3194 26.5092 23.9005C27.0484 22.7456 27.327 21.4919 27.3263 20.2238C27.3263 15.0066 22.673 10.6694 16.9366 10.6694C11.2002 10.6694 6.54297 15.0066 6.54297 20.2238C6.54259 21.4924 6.82295 22.7463 7.36504 23.9005C8.94124 22.3194 12.6346 21.2086 16.9368 21.2086Z" fill="#0E8CD1"/><path d="M16.9337 21.2187C21.2228 21.2187 24.9065 22.32 26.4811 23.8873C27.019 22.7432 27.297 21.5 27.2965 20.2422C27.2965 15.0698 22.6557 10.7549 16.9337 10.7549C11.2117 10.7549 6.56738 15.0697 6.56738 20.2421C6.56716 21.5004 6.84688 22.7438 7.38738 23.8872C8.95918 22.32 12.6429 21.2187 16.9337 21.2187Z" fill="#108ED2"/><path d="M16.9325 21.2314C21.2104 21.2314 24.8846 22.3227 26.4549 23.8767C26.9913 22.7434 27.2688 21.5106 27.2682 20.2631C27.2683 15.1355 22.6398 10.8428 16.9325 10.8428C11.2252 10.8428 6.59375 15.1355 6.59375 20.2631C6.59355 21.5109 6.87245 22.7439 7.41115 23.8766C8.97902 22.3227 12.6531 21.2314 16.9325 21.2314Z" fill="#1190D3"/><path d="M16.9303 21.242C21.197 21.242 24.8617 22.3239 26.4277 23.8641C26.9628 22.7415 27.2397 21.519 27.2391 20.2818C27.2391 15.199 22.6231 10.9287 16.9303 10.9287C11.2391 10.9287 6.61914 15.199 6.61914 20.2818C6.61895 21.5193 6.89713 22.742 7.43421 23.8641C8.99794 22.3237 12.6624 21.242 16.9303 21.242Z" fill="#1392D5"/><path d="M16.9292 21.2519C21.1849 21.2519 24.8398 22.3237 26.4016 23.8507C26.9351 22.7389 27.2114 21.5269 27.211 20.3002C27.211 15.2622 22.6073 11.0142 16.9292 11.0142C11.2531 11.0142 6.64551 15.2622 6.64551 20.3002C6.64548 21.5273 6.92298 22.7395 7.45837 23.8509C9.01784 22.3239 12.6727 21.2519 16.9292 21.2519Z" fill="#1595D6"/><path d="M16.9268 21.2643C21.1714 21.2643 24.8166 22.3267 26.3742 23.84C26.9063 22.7389 27.182 21.5374 27.1817 20.321C27.1817 15.3277 22.5903 11.1021 16.9268 11.1021C11.2659 11.1022 6.6709 15.3277 6.6709 20.321C6.67091 21.5376 6.94764 22.7393 7.4813 23.84C9.0365 22.3265 12.6817 21.2643 16.9268 21.2643Z" fill="#1797D7"/><path d="M16.9259 21.275C21.1593 21.275 24.7949 22.3275 26.3482 23.8274C26.8789 22.737 27.1541 21.5459 27.1538 20.3398C27.1538 15.3914 22.5747 11.188 16.9259 11.188C11.2802 11.188 6.69727 15.3914 6.69727 20.3398C6.69739 21.5461 6.9734 22.7374 7.50533 23.8274C9.0566 22.3275 12.6922 21.275 16.9259 21.275Z" fill="#1899D9"/><path d="M16.9248 21.2849C21.147 21.2849 24.773 22.3278 26.322 23.8142C26.8513 22.7346 27.1259 21.5539 27.1257 20.3581C27.1257 15.4542 22.559 11.2734 16.9248 11.2734C11.2942 11.2737 6.72363 15.4546 6.72363 20.3585C6.72383 21.5545 6.99912 22.7353 7.52937 23.8145C9.0765 22.3278 12.7025 21.2849 16.9248 21.2849Z" fill="#1A9BDA"/><path d="M16.9224 21.2953C21.1334 21.2953 24.7498 22.3283 26.2946 23.8013C26.8223 22.7326 27.0963 21.5622 27.0962 20.3768C27.0962 15.5183 22.5418 11.3594 16.9224 11.3594C11.307 11.3594 6.74902 15.5183 6.74902 20.3768C6.7493 21.5624 7.02384 22.7327 7.55236 23.8013C9.09509 22.3283 12.7115 21.2953 16.9224 21.2953Z" fill="#1C9DDB"/><path d="M16.922 21.3075C21.122 21.3075 24.7287 22.331 26.2692 23.7903C26.7956 22.7324 27.0691 21.5725 27.0692 20.3974C27.0692 15.5833 22.5271 11.4468 16.9225 11.4468C11.3225 11.4468 6.77637 15.5833 6.77637 20.3974C6.7766 21.5725 7.05029 22.7324 7.57697 23.7903C9.11577 22.3309 12.7225 21.3075 16.922 21.3075Z" fill="#1E9FDC"/><path d="M16.9194 21.318C21.1082 21.318 24.7053 22.3317 26.2415 23.7776C26.7664 22.7304 27.0392 21.581 27.0393 20.4162C27.0393 15.647 22.5096 11.5327 16.9193 11.5327C11.3343 11.5327 6.80078 15.647 6.80078 20.4162C6.80126 21.581 7.07437 22.7305 7.59945 23.7776C9.13418 22.3317 12.7312 21.318 16.9194 21.318Z" fill="#1FA1DE"/><path d="M16.9182 21.3286C21.0958 21.3286 24.6833 22.3327 26.2153 23.765C26.7387 22.7287 27.0109 21.5897 27.0111 20.4353C27.0111 15.7109 22.4937 11.6187 16.9182 11.6187C11.3483 11.6187 6.82715 15.7106 6.82715 20.4353C6.82771 21.5897 7.10011 22.7286 7.62348 23.765C9.15395 22.3326 12.7415 21.3286 16.9182 21.3286Z" fill="#21A3DF"/><path d="M16.9171 21.3386C21.0837 21.3386 24.6615 22.3328 26.1891 23.7517C26.7111 22.7262 26.9828 21.5975 26.9831 20.4533C26.9831 15.7737 22.4779 11.7041 16.9171 11.7041C11.3625 11.7041 6.85352 15.7737 6.85352 20.4533C6.85417 21.5974 7.12588 22.726 7.64758 23.7517C9.17392 22.3328 12.752 21.3386 16.9171 21.3386Z" fill="#23A6E0"/><path d="M16.9149 21.3491C21.0702 21.3491 24.6385 22.3338 26.1619 23.7391C26.6824 22.7243 26.9535 21.606 26.9538 20.4722C26.9538 15.8375 22.4611 11.79 16.9149 11.79C11.3754 11.79 6.87891 15.8375 6.87891 20.4722C6.87968 21.6059 7.15065 22.724 7.67057 23.7389C9.19277 22.3337 12.761 21.3491 16.9149 21.3491Z" fill="#25A8E2"/><path d="M16.9138 21.3597C21.058 21.3597 24.6167 22.3346 26.1358 23.7265C26.6548 22.7225 26.9253 21.6146 26.9258 20.4911C26.9258 15.9011 22.4454 11.876 16.9138 11.876C11.3895 11.876 6.90527 15.9011 6.90527 20.4911C6.90616 21.6145 7.17641 22.7222 7.69461 23.7265C9.21274 22.3346 12.7714 21.3597 16.9138 21.3597Z" fill="#26AAE3"/><path d="M16.9117 21.3717C21.045 21.3717 24.5937 22.3369 26.1086 23.7152C26.6262 22.7221 26.8961 21.6246 26.8967 20.5114C26.8967 15.9662 22.4286 11.9634 16.9117 11.9634C11.4026 11.9634 6.93066 15.9661 6.93066 20.5114C6.93174 21.6244 7.2014 22.7218 7.718 23.7152C9.23133 22.3368 12.7807 21.3717 16.9117 21.3717Z" fill="#28ACE4"/><path d="M16.9113 21.3822C21.0331 21.3822 24.5726 22.3377 26.0832 23.7025C26.5993 22.7202 26.8687 21.6331 26.8693 20.5302C26.8693 16.0299 22.4136 12.0493 16.9113 12.0493C11.4174 12.0493 6.95801 16.0299 6.95801 20.5302C6.95908 21.6329 7.22792 22.7198 7.74267 23.7025C9.25254 22.3377 12.7917 21.3822 16.9113 21.3822Z" fill="#2AAEE6"/><path d="M16.9085 21.3923C21.0192 21.3923 24.549 22.3381 26.0552 23.6894C26.5698 22.7179 26.8386 21.6413 26.8394 20.5486C26.8394 16.093 22.396 12.1348 16.9084 12.1348C11.4296 12.1348 6.98242 16.0929 6.98242 20.5486C6.98358 21.641 7.25166 22.7174 7.76462 23.6894C9.27049 22.3381 12.8003 21.3923 16.9085 21.3923Z" fill="#2CB0E7"/><path d="M16.9082 21.4051C21.0078 21.4051 24.5282 22.3412 26.03 23.6789C26.5432 22.7182 26.8114 21.6518 26.8122 20.5694C26.8122 16.1586 22.3812 12.2227 16.9082 12.2227C11.4447 12.2227 7.00977 16.1586 7.00977 20.5694C7.01106 21.6515 7.27849 22.7176 7.78977 23.6789C9.29123 22.3414 12.8114 21.4051 16.9082 21.4051Z" fill="#2DB2E8"/><path d="M16.905 21.4154C20.9934 21.4154 24.504 22.3417 26.0018 23.666C26.5134 22.7162 26.7811 21.6603 26.7821 20.5882C26.7821 16.222 22.3634 12.3086 16.905 12.3086C11.4567 12.3086 7.03418 16.2222 7.03418 20.5882C7.03559 21.6599 7.30229 22.7155 7.81178 23.666C9.30911 22.3417 12.8197 21.4154 16.905 21.4154Z" fill="#2FB4EA"/><path d="M16.9039 21.4253C20.9811 21.4253 24.4821 22.342 25.9756 23.6528C26.4858 22.7138 26.7529 21.6683 26.754 20.6066C26.754 16.2854 22.3473 12.394 16.9039 12.394C11.4706 12.394 7.06055 16.2854 7.06055 20.6066C7.06209 21.6679 7.32811 22.7131 7.83588 23.6528C9.32901 22.342 12.83 21.4253 16.9039 21.4253Z" fill="#31B7EB"/><path d="M16.9028 21.4379C20.9688 21.4379 24.4602 22.3448 25.9494 23.6421C26.4581 22.714 26.7247 21.6789 26.7259 20.6274C26.7259 16.351 22.3319 12.4819 16.9028 12.4819C11.4852 12.482 7.08691 16.351 7.08691 20.6274C7.08871 21.6785 7.35415 22.7132 7.86025 23.6421C9.34891 22.3448 12.8402 21.4379 16.9028 21.4379Z" fill="#33B9EC"/><path d="M16.9006 21.4479C20.9556 21.4479 24.4373 22.3452 25.9222 23.629C26.4294 22.7118 26.6954 21.687 26.6968 20.6458C26.6968 16.4142 22.315 12.5674 16.9006 12.5674C11.4978 12.5674 7.1123 16.4142 7.1123 20.6458C7.11412 21.6865 7.37872 22.7108 7.8829 23.629C9.36777 22.3452 12.8495 21.4479 16.9006 21.4479Z" fill="#34BBEE"/><path d="M16.8995 21.4585C20.9433 21.4585 24.4154 22.346 25.8961 23.6162C26.4016 22.7099 26.6672 21.6956 26.6687 20.6647C26.6687 16.4778 22.2992 12.6533 16.8995 12.6533C11.5117 12.6533 7.13867 16.4778 7.13867 20.6647C7.14061 21.695 7.40454 22.7089 7.90701 23.6162C9.38767 22.346 12.8598 21.4585 16.8995 21.4585Z" fill="#36BDEF"/><path d="M16.8994 21.4838C20.9376 21.4838 24.405 22.3657 25.8837 23.628C26.3883 22.7283 26.6534 21.7202 26.6551 20.6955C26.6551 16.5359 22.2916 12.7334 16.8994 12.7334C11.519 12.7331 7.15137 16.5357 7.15137 20.6952C7.15332 21.7194 7.41697 22.7271 7.91863 23.6278C9.39763 22.3657 12.8651 21.4839 16.8994 21.4838Z" fill="#3CBFF0"/><path d="M16.8999 21.5091C20.9325 21.5091 24.3951 22.3855 25.8718 23.6394C26.3754 22.7461 26.6402 21.7443 26.642 20.7259C26.642 16.5936 22.2846 12.813 16.8999 12.813C11.5266 12.813 7.16504 16.5936 7.16504 20.7259C7.16713 21.7439 7.4306 22.7453 7.93157 23.6394C9.40811 22.3855 12.8708 21.5094 16.8999 21.5091Z" fill="#43C1F0"/><path d="M16.9006 21.5328C20.9276 21.5328 24.3854 22.4036 25.8602 23.6493C26.3627 22.7625 26.6272 21.7671 26.6292 20.7548C26.6292 16.6497 22.2777 12.8911 16.9006 12.8911C11.5344 12.8911 7.17871 16.6497 7.17871 20.7548C7.18073 21.7667 7.44382 22.762 7.94391 23.6495C9.41864 22.4036 12.8768 21.5331 16.9006 21.5328Z" fill="#49C3F1"/><path d="M16.9003 21.5565C20.9217 21.5565 24.3747 22.4217 25.8475 23.6592C26.349 22.779 26.6131 21.7898 26.6154 20.7838C26.6154 16.7059 22.2699 12.9692 16.9003 12.9692C11.5413 12.9695 7.19141 16.7062 7.19141 20.784C7.19346 21.7897 7.45626 22.7786 7.95554 23.6594C9.42841 22.4219 12.8819 21.5572 16.9003 21.5565Z" fill="#50C6F1"/><path d="M16.9009 21.5816C20.9167 21.5816 24.3649 22.4412 25.8358 23.6705C26.3362 22.7968 26.6 21.814 26.6025 20.8141C26.6025 16.7635 22.2629 13.0488 16.9008 13.0488C11.549 13.0488 7.20508 16.7635 7.20508 20.8141C7.20716 21.8136 7.46965 22.7962 7.96808 23.6705C9.43901 22.4412 12.8878 21.5821 16.9009 21.5816Z" fill="#56C8F2"/><path d="M16.9005 21.6072C20.9108 21.6072 24.3538 22.4613 25.8231 23.6824C26.3225 22.8153 26.586 21.8387 26.5886 20.845C26.5886 16.8217 22.2553 13.1289 16.9005 13.1289C11.5558 13.129 7.21777 16.8217 7.21777 20.8452C7.21993 21.8385 7.48218 22.8149 7.97984 23.6826C9.44864 22.4613 12.8927 21.6079 16.9005 21.6072Z" fill="#5DCAF2"/><path d="M16.9011 21.6324C20.9058 21.6324 24.3444 22.481 25.8114 23.6938C26.3097 22.8334 26.5728 21.8632 26.5758 20.8759C26.5758 16.8798 22.2481 13.209 16.9011 13.209C11.5635 13.2087 7.23145 16.8794 7.23145 20.8756C7.23365 21.8627 7.49562 22.8328 7.99245 23.6938C9.45925 22.4809 12.8986 21.6332 16.9011 21.6324Z" fill="#63CCF3"/><path d="M16.9021 21.6539C20.9012 21.6539 24.335 22.4969 25.8001 23.7016C26.2973 22.8475 26.5602 21.8836 26.5633 20.9023C26.5633 16.9335 22.2416 13.2847 16.9021 13.2847C11.5717 13.2847 7.24512 16.9335 7.24512 20.9023C7.24736 21.8833 7.50906 22.8472 8.00512 23.7016C9.47025 22.4969 12.905 21.6548 16.9021 21.6539Z" fill="#6ACEF3"/><path d="M16.9018 21.6793C20.8951 21.6793 24.3243 22.5167 25.7874 23.7134C26.2837 22.866 26.5462 21.9083 26.5495 20.9332C26.5495 16.9916 22.2337 13.3647 16.9018 13.3647C11.5785 13.3647 7.25781 16.9916 7.25781 20.9332C7.2601 21.908 7.52155 22.8657 8.01681 23.7134C9.47995 22.5169 12.91 21.6805 16.9018 21.6793Z" fill="#70D0F4"/><path d="M16.9015 21.7051C20.8894 21.7051 24.3137 22.5369 25.7748 23.7252C26.27 22.8843 26.5322 21.9329 26.5357 20.9641C26.5357 17.0497 22.226 13.4448 16.9015 13.4448C11.5854 13.4448 7.27051 17.0497 7.27051 20.9641C7.27287 21.9327 7.53406 22.8841 8.02851 23.7252C9.48971 22.5369 12.915 21.7062 16.9015 21.7051Z" fill="#77D2F4"/><path d="M16.9029 21.7302C20.8852 21.7302 24.3047 22.5564 25.7639 23.7365C26.2581 22.9022 26.5201 21.9571 26.5239 20.9944C26.5239 17.1076 22.2201 13.5244 16.9032 13.5244C11.5942 13.5244 7.28516 17.1074 7.28516 20.9944C7.28756 21.9569 7.54847 22.9021 8.04209 23.7365C9.50109 22.5564 12.9218 21.7314 16.9029 21.7302Z" fill="#7DD4F5"/><path d="M16.9029 21.7538C20.8796 21.7538 24.2943 22.5745 25.7515 23.7464C26.2446 22.9186 26.5061 21.9799 26.5101 21.0234C26.5101 17.1635 22.2123 13.6025 16.9029 13.6025C11.601 13.6025 7.29785 17.1635 7.29785 21.0234C7.30032 21.9797 7.56095 22.9186 8.05372 23.7463C9.51105 22.5745 12.9271 21.7552 16.9029 21.7538Z" fill="#84D7F5"/><path d="M16.9026 21.7774C20.8737 21.7774 24.2836 22.5926 25.7389 23.7563C26.231 22.935 26.4921 22.0026 26.4963 21.0523C26.4963 17.2197 22.2045 13.6807 16.9026 13.6807C11.6079 13.6807 7.31055 17.2197 7.31055 21.0523C7.31306 22.0024 7.57344 22.9352 8.06541 23.7563C9.52081 22.5926 12.9321 21.7789 16.9026 21.7774Z" fill="#8AD9F6"/><path d="M16.9031 21.8026C20.8687 21.8026 24.2738 22.6123 25.7271 23.7676C26.218 22.9529 26.4789 22.0267 26.4833 21.0826C26.4833 17.2773 22.1974 13.7603 16.9033 13.7603C11.6157 13.7603 7.32422 17.2773 7.32422 21.0826C7.32678 22.0266 7.58689 22.9531 8.07802 23.7676C9.53162 22.6123 12.9383 21.8042 16.9031 21.8026Z" fill="#91DBF6"/><path d="M16.9039 21.8282C20.8639 21.8282 24.2639 22.6321 25.7156 23.7795C26.2054 22.9714 26.466 22.0515 26.4706 21.1136C26.4706 17.3355 22.1906 13.8403 16.904 13.8403C11.6235 13.8403 7.33789 17.3355 7.33789 21.1136C7.34055 22.0514 7.60036 22.9715 8.09056 23.7793C9.54209 22.6321 12.944 21.8298 16.9039 21.8282Z" fill="#97DDF7"/><path d="M16.9041 21.8537C20.8585 21.8537 24.2539 22.6522 25.7034 23.7913C26.1922 22.9898 26.4524 22.0762 26.4573 21.1445C26.4573 17.3937 22.1833 13.9204 16.9039 13.9204C11.6306 13.9204 7.35059 17.3936 7.35059 21.1445C7.35326 22.0762 7.61285 22.9902 8.10232 23.7913C9.55205 22.6522 12.9495 21.8555 16.9041 21.8537Z" fill="#9EDFF7"/><path d="M16.9038 21.8767C20.8526 21.8767 24.2433 22.6696 25.6905 23.8007C26.1783 23.0057 26.4382 22.0984 26.4433 21.1729C26.4433 17.4492 22.1753 13.998 16.9033 13.998C11.6371 13.998 7.36328 17.4492 7.36328 21.1729C7.36602 22.0984 7.62533 23.0062 8.11395 23.8007C9.56202 22.6696 12.9546 21.8786 16.9038 21.8767Z" fill="#A4E1F8"/><path d="M16.9042 21.9007C20.8474 21.9007 24.2333 22.688 25.6788 23.8108C26.1654 23.0224 26.425 22.1214 26.4304 21.202C26.4304 17.5056 22.1684 14.0762 16.9042 14.0762C11.6452 14.0762 7.37695 17.5054 7.37695 21.202C7.3798 22.1214 7.63886 23.0229 8.12662 23.8108C9.57235 22.688 12.9603 21.9027 16.9042 21.9007Z" fill="#ABE3F8"/><path d="M16.9048 21.9258C20.8424 21.9258 24.2236 22.7075 25.6671 23.8221C26.1527 23.0404 26.412 22.1457 26.4176 21.2327C26.4176 17.5635 22.1615 14.1562 16.9048 14.1562C11.653 14.1562 7.39062 17.5637 7.39062 21.2327C7.39349 22.146 7.65231 23.0413 8.13929 23.8224C9.58302 22.7075 12.9662 21.928 16.9048 21.9258Z" fill="#B1E5F9"/><path d="M16.9055 21.9513C20.8375 21.9513 24.2138 22.7273 25.6554 23.8337C26.14 23.0585 26.3989 22.17 26.4047 21.263C26.4047 17.6211 22.1546 14.2358 16.9055 14.2358C11.6608 14.2358 7.4043 17.6211 7.4043 21.263C7.40715 22.1702 7.66561 23.0592 8.15163 23.8337C9.59336 22.7273 12.9722 21.9534 16.9055 21.9513Z" fill="#B8E8F9"/><path d="M16.9052 21.9768C20.8319 21.9768 24.2032 22.7474 25.6429 23.8455C26.1263 23.0769 26.385 22.1947 26.391 21.2939C26.391 17.6792 22.1469 14.3159 16.9052 14.3159C11.6677 14.3159 7.41699 17.6793 7.41699 21.2939C7.42005 22.1949 7.67838 23.0777 8.16366 23.8455C9.60333 22.7474 12.9773 21.9794 16.9052 21.9768Z" fill="#BEEAFA"/><path d="M16.9052 21.998C20.826 21.998 24.1928 22.763 25.6305 23.853C26.1128 23.0909 26.371 22.215 26.3772 21.3204C26.3772 17.733 22.139 14.3916 16.9049 14.3916C11.6745 14.3916 7.42969 17.733 7.42969 21.3204C7.43281 22.2153 7.69085 23.0919 8.17522 23.853C9.61355 22.763 12.9828 22.0004 16.9052 21.998Z" fill="#C5ECFA"/><path d="M16.9063 22.0237C20.8215 22.0237 24.1835 22.7831 25.6196 23.8648C26.1009 23.1094 26.3589 22.2398 26.3654 21.3514C26.3654 17.7912 22.1332 14.4717 16.9066 14.4717C11.6833 14.4717 7.44434 17.7911 7.44434 21.3514C7.44754 22.2401 7.70535 23.1104 8.18887 23.8648C9.62447 22.7831 12.989 22.0262 16.9063 22.0237Z" fill="#CBEEFB"/><path d="M16.9063 22.0494C20.816 22.0494 24.173 22.8032 25.607 23.8768C26.0872 23.1279 26.3449 22.2645 26.3516 21.3821C26.3516 17.8492 22.1254 14.5518 16.9063 14.5518C11.6902 14.5518 7.45703 17.8491 7.45703 21.3821C7.46031 22.2648 7.71785 23.1289 8.2005 23.8766C9.6345 22.8032 12.9944 22.052 16.9063 22.0494Z" fill="#D2F0FB"/><path d="M16.906 22.0741C20.8101 22.0741 24.1625 22.8224 25.5943 23.888C26.0734 23.1457 26.3307 22.2886 26.3377 21.4125C26.3377 17.9068 22.1177 14.6313 16.906 14.6313C11.697 14.6313 7.46973 17.9068 7.46973 21.4125C7.47309 22.289 7.73038 23.1469 8.21213 23.888C9.64419 22.8224 12.9994 22.0769 16.906 22.0741Z" fill="#D8F2FC"/><path d="M16.9058 22.0979C20.8043 22.0979 24.1519 22.8406 25.5818 23.8978C26.0597 23.1621 26.3168 22.3114 26.324 21.4414C26.324 17.9627 22.1097 14.7095 16.9058 14.7095C11.7039 14.7095 7.48242 17.963 7.48242 21.4414C7.48589 22.3118 7.74294 23.1635 8.22382 23.8978C9.65396 22.8406 13.0045 22.1005 16.9058 22.0979Z" fill="#DFF4FC"/><path d="M16.9064 22.1216C20.7994 22.1216 24.1422 22.8587 25.5701 23.9077C26.0469 23.1786 26.3037 22.3342 26.3112 21.4704C26.3112 18.0192 22.1028 14.7876 16.9064 14.7876C11.7117 14.7876 7.49609 18.0192 7.49609 21.4704C7.49963 22.3347 7.75643 23.1801 8.23643 23.9077C9.66489 22.8587 13.0105 22.1246 16.9064 22.1216Z" fill="#E5F6FD"/><path d="M16.907 22.1466C20.7944 22.1466 24.1324 22.8782 25.5584 23.919C26.0341 23.1965 26.2906 22.3584 26.2984 21.5007C26.2984 18.0768 22.096 14.8672 16.9071 14.8672C11.7195 14.8672 7.50977 18.0769 7.50977 21.5007C7.5134 22.3589 7.76996 23.1981 8.2491 23.919C9.67523 22.8782 13.0164 22.1497 16.907 22.1466Z" fill="#ECF9FD"/><path d="M16.9069 22.1724C20.7886 22.1724 24.1218 22.8983 25.5459 23.931C26.0205 23.2151 26.2767 22.3832 26.2848 21.5316C26.2848 18.135 22.0884 14.9473 16.9071 14.9473C11.7257 14.9473 7.52246 18.135 7.52246 21.5316C7.5262 22.3837 7.78254 23.2167 8.26079 23.9309C9.68479 22.8982 13.0215 22.1755 16.9069 22.1724Z" fill="#F2FBFE"/><path d="M16.9066 22.1978C20.7827 22.1978 24.1112 22.9182 25.5332 23.9427C26.0067 23.2335 26.2626 22.4079 26.2709 21.5625C26.2709 18.1931 22.0804 15.0273 16.9066 15.0273C11.7328 15.0273 7.53516 18.1931 7.53516 21.5625C7.53901 22.4085 7.79509 23.2352 8.27242 23.9427C9.69476 22.9183 13.0266 22.2011 16.9066 22.1978Z" fill="#F9FDFE"/><path d="M16.9072 22.221C20.7778 22.221 24.1015 22.9358 25.5216 23.9521C25.9939 23.2495 26.2495 22.4301 26.258 21.5909C26.258 18.2488 22.0736 15.105 16.9072 15.105C11.7409 15.105 7.54883 18.2488 7.54883 21.5909C7.55278 22.4308 7.80865 23.2513 8.28509 23.9521C9.70549 22.9358 13.0326 22.2244 16.9072 22.221Z" fill="white"/><path d="M16.994 19.3101C13.8159 19.284 10.658 19.7838 7.66699 20.7862C8.47107 22.4679 9.78049 23.8965 11.4369 24.8989C13.0932 25.9014 15.0256 26.4349 17.0003 26.4349C18.975 26.4349 20.9074 25.9014 22.5638 24.8989C24.2202 23.8965 25.5296 22.4679 26.3337 20.7862C23.3385 19.7831 20.1763 19.2834 16.994 19.3101Z" fill="#007BC6"/></g></svg>