<svg width="34" height="34" viewBox="0 0 34 34" fill="none" xmlns="http://www.w3.org/2000/svg"><g clip-path="url(#a)"><ellipse cx="17" cy="17" rx="17" ry="17" fill="#004097"/><path d="M7.78711 20.1434V20.1209C7.78711 19.9709 7.80962 19.8283 7.87714 19.6558L11.4783 8.80728C11.7409 8.01953 12.5736 7.60689 13.3389 7.86948L14.4117 8.2446L15.0494 8.43966C16.5424 9.03235 17.7278 10.2853 18.238 11.8232C18.238 11.8458 18.2605 11.8683 18.2605 11.8908C18.283 11.9358 18.283 11.9808 18.3055 12.0258C18.3055 12.0483 18.3055 12.0708 18.328 12.0933C18.328 12.1383 18.3505 12.1834 18.3505 12.2284C18.3505 12.2509 18.373 12.2959 18.373 12.3184C18.373 12.3634 18.3955 12.3859 18.3955 12.4309C18.418 12.476 18.418 12.4985 18.418 12.5435C18.418 12.5885 18.4405 12.611 18.4405 12.656C18.4405 12.701 18.463 12.7235 18.463 12.7685C18.463 12.8136 18.463 12.8361 18.463 12.8811C18.4855 12.9261 18.4855 12.9711 18.4855 13.0161C18.4855 13.0386 18.4855 13.0611 18.4855 13.1062C18.508 13.1512 18.508 13.1962 18.508 13.2412V13.5488C18.508 14.5841 18.2004 15.5669 17.6753 16.4297C17.0376 15.702 16.2273 15.1318 15.3045 14.7567L14.7794 14.5616V19.5882L15.3045 19.3932C16.2273 19.0181 17.0376 18.4479 17.6753 17.7201C18.2004 18.5754 18.508 19.5657 18.508 20.6011V20.9762C18.4855 21.0212 18.4855 21.0887 18.4855 21.1337C18.4855 21.1787 18.4855 21.2238 18.463 21.2688C18.463 21.3138 18.463 21.3588 18.463 21.4263C18.4405 21.4713 18.4405 21.5164 18.418 21.5614C18.418 21.6064 18.418 21.6514 18.3955 21.6739C18.3955 21.7414 18.373 21.7864 18.373 21.8239C18.373 21.869 18.3505 21.914 18.3505 21.9365C18.328 22.004 18.328 22.049 18.3055 22.094C18.283 22.1391 18.283 22.1616 18.283 22.2066C18.2605 22.2516 18.238 22.2966 18.2155 22.3566C18.2155 22.3791 18.1929 22.4241 18.1929 22.4466C18.1704 22.4917 18.1479 22.5592 18.1254 22.5967C18.1254 22.6192 18.1029 22.6642 18.1029 22.6867C18.0804 22.7317 18.0579 22.7993 18.0129 22.8368C18.0129 22.8593 17.9904 22.8818 17.9904 22.9043C17.9679 22.9718 17.9454 23.0393 17.9004 23.0769C17.9004 23.0994 17.8778 23.1219 17.8778 23.1444C17.8553 23.1894 17.8103 23.2569 17.7653 23.3169C17.7653 23.3169 17.7653 23.3394 17.7428 23.3619C17.7203 23.4295 17.6753 23.4745 17.6303 23.5345C17.6303 23.5345 17.6303 23.557 17.6078 23.5795C17.5852 23.6245 17.5402 23.692 17.4952 23.7521L17.4727 23.7746C17.4277 23.8421 17.3827 23.8871 17.3377 23.9471L17.3152 23.9696C17.2701 24.0372 17.2251 24.0822 17.1801 24.1422L17.1576 24.1647C17.1126 24.2322 17.0451 24.2772 17.0076 24.3373L8.79243 21.5314C8.17723 21.3288 7.78711 20.7586 7.78711 20.1434ZM12.116 19.8583H12.9263V14.2165H12.116V19.8583Z" fill="#0091CF"/><path fill-rule="evenodd" clip-rule="evenodd" d="M20.4147 26.2725L8.55338 22.2737C7.9832 22.1012 7.51805 21.681 7.23296 21.1559C6.97037 20.6082 6.92536 19.993 7.12042 19.4228L10.7216 8.55183C10.9166 7.98164 11.3143 7.51649 11.8619 7.25391C12.4096 6.96882 13.0023 6.9238 13.595 7.11887L25.4563 11.0951C26.6417 11.4928 27.2794 12.7832 26.8818 13.9761L23.2581 24.8245C23.063 25.3947 22.6654 25.8824 22.1402 26.145C21.8101 26.295 21.4575 26.385 21.1274 26.385C20.9023 26.385 20.6548 26.34 20.4147 26.2725ZM8.79346 21.531L17.0311 24.2994C17.0761 24.2319 17.1211 24.1868 17.1811 24.1268L17.2037 24.1043C17.2487 24.0368 17.2937 23.9918 17.3387 23.9318L17.3612 23.9093C17.4062 23.8417 17.4512 23.7967 17.4962 23.7367L17.5188 23.7142C17.5638 23.6467 17.6088 23.5791 17.6313 23.5416C17.6538 23.5191 17.6538 23.4966 17.6538 23.4966C17.6988 23.4291 17.7438 23.3841 17.7663 23.3241C17.7888 23.3016 17.7888 23.279 17.7888 23.279C17.8339 23.2115 17.8789 23.144 17.9014 23.1065C17.9014 23.084 17.9239 23.0615 17.9239 23.039C17.9689 22.994 17.9914 22.9264 18.0139 22.8664C18.0139 22.8439 18.0364 22.8214 18.0364 22.7989C18.0814 22.7539 18.1039 22.6864 18.1264 22.6488C18.1264 22.6263 18.149 22.5813 18.149 22.5588C18.1715 22.5138 18.194 22.4463 18.2165 22.4088C18.2165 22.3863 18.239 22.3412 18.239 22.3187C18.2615 22.2512 18.284 22.2062 18.3065 22.1687C18.3065 22.1237 18.3065 22.1012 18.329 22.0562C18.3515 22.0111 18.3515 21.9661 18.374 21.8986C18.374 21.8761 18.3965 21.8311 18.3965 21.7861C18.3965 21.7411 18.419 21.696 18.419 21.636C18.4416 21.6135 18.4415 21.5685 18.4415 21.5235C18.4641 21.4785 18.4641 21.4335 18.4866 21.3884C18.4866 21.3209 18.4866 21.2759 18.4866 21.2309C18.5091 21.1859 18.5091 21.1409 18.5091 21.0958C18.5091 21.0508 18.5091 20.9833 18.5316 20.9383C18.5316 20.8933 18.5316 20.8708 18.5316 20.8258C18.5316 20.7357 18.5316 20.6532 18.5316 20.5632C18.5316 19.5278 18.224 18.545 17.6988 17.6823C17.0611 18.41 16.2508 18.9802 15.3281 19.3553L14.8029 19.5504V14.5237L15.3281 14.7188C16.2508 15.0939 17.0611 15.6641 17.6988 16.3918C18.224 15.5366 18.5316 14.5462 18.5316 13.5109C18.5316 13.4434 18.5316 13.3534 18.5316 13.2933C18.5316 13.2708 18.5316 13.2483 18.5316 13.2033C18.5316 13.1583 18.5316 13.1133 18.5091 13.0683C18.5091 13.0233 18.5091 13.0008 18.5091 12.9782C18.5091 12.9332 18.5091 12.8882 18.4866 12.8432C18.4866 12.7982 18.4866 12.7757 18.4866 12.7307C18.4866 12.6857 18.4641 12.6631 18.4641 12.6181C18.4641 12.5731 18.4415 12.5506 18.4415 12.5056C18.4415 12.4606 18.4416 12.4381 18.419 12.3931C18.419 12.348 18.3965 12.3255 18.3965 12.2805C18.3965 12.258 18.374 12.213 18.374 12.1905C18.374 12.1455 18.3515 12.1005 18.3515 12.0554C18.329 12.0329 18.329 12.0104 18.329 11.9879C18.3065 11.9429 18.3065 11.8979 18.284 11.8529C18.284 11.8304 18.2615 11.8079 18.2615 11.7854C17.7588 10.2474 16.5735 8.99447 15.073 8.40178L14.4353 8.20671L13.3624 7.83159C12.5747 7.60652 11.7419 8.01915 11.4793 8.81441L7.87816 19.6629C7.81064 19.8354 7.78813 19.993 7.78813 20.143C7.78813 20.7582 8.17826 21.3284 8.79346 21.531ZM12.117 19.858V14.2161H12.9273V19.858H12.117Z" fill="white"/><path fill-rule="evenodd" clip-rule="evenodd" d="M17.2101 17.0294C16.7525 16.5042 16.1973 16.0391 15.5371 15.709C15.5371 16.4142 15.5371 17.6446 15.5371 18.3648C16.1973 18.0347 16.745 17.5771 17.2101 17.0294Z" fill="#E95532"/><path fill-rule="evenodd" clip-rule="evenodd" d="M25.2014 11.8462L17.6689 9.31787C18.6818 10.4357 19.297 11.9062 19.297 13.5117C19.297 14.7871 18.8993 16.0175 18.2016 17.0228C18.9068 18.0582 19.297 19.2661 19.297 20.5565C19.297 22.072 18.7493 23.4749 17.8265 24.5553L20.6624 25.5231C21.4276 25.7631 22.2679 25.3505 22.5305 24.5778L26.1542 13.7068C26.4092 12.9415 25.9966 12.1088 25.2014 11.8462ZM23.2057 19.8587H22.1704L20.0847 17.0228L22.2154 14.2094H23.2507L21.12 17.0228L23.2057 19.8587Z" fill="#004097"/></g><defs><clipPath id="a"><rect width="34" height="34" fill="white"/></clipPath></defs></svg>