<svg width="34" height="34" viewBox="0 0 34 34" fill="none" xmlns="http://www.w3.org/2000/svg"><g clip-path="url(#a)"><path d="M34 17C34 26.3888 26.3888 34 17 34C7.61116 34 0 26.3888 0 17C0 7.61116 7.61116 0 17 0C26.3888 0 34 7.61116 34 17Z" fill="#1A72D6"/><path d="M5 18.009C5.67882 17.9707 6.29658 18.116 6.76492 18.6137C6.93531 18.7947 7.06469 19.0227 7.1713 19.2464C7.72073 20.395 8.46059 21.3922 9.58679 22.0918C9.64966 22.131 9.71891 22.158 9.82733 22.1484C9.64875 21.9509 9.46834 21.7551 9.29339 21.5549C7.65604 19.6849 6.84237 17.5338 6.93804 15.0956C6.99271 13.7059 7.31891 12.3667 7.97221 11.1119C8.32118 10.4428 8.29932 10.0529 7.87654 9.44031C9.0738 9.64393 9.59499 10.6681 9.21139 11.6836C8.85513 12.6269 8.55991 13.5754 8.42779 14.5735C8.31572 15.415 8.43508 16.9265 8.73576 17.694C8.94624 17.5843 9.1713 17.4982 9.35262 17.3598C9.42642 17.3041 9.44191 17.1301 9.42369 17.0187C9.1385 15.2931 9.27517 13.6189 10.0879 12.03C10.9681 10.3096 12.4387 9.21494 14.2528 8.49878C14.939 8.22815 14.9444 8.24121 14.9426 7.5294C14.9426 7.36842 14.9426 7.2083 14.9426 7.02208C15.4638 7.02208 15.9358 7.02208 16.4633 7.02208C16.4633 7.13434 16.4633 7.25964 16.4633 7.38408C16.4633 9.87453 16.4569 12.3659 16.4706 14.8563C16.4724 15.1565 16.3749 15.3175 16.1034 15.4637C13.9923 16.5993 11.8902 17.7496 9.78542 18.8965C9.64784 18.9714 9.51207 19.0488 9.33895 19.1454C9.47745 19.3908 9.60866 19.6223 9.75262 19.8781C10.5426 19.4456 11.3007 19.0323 12.0569 18.6155C13.5831 17.7731 15.1112 16.9343 16.631 16.0815C16.8551 15.9562 17.0137 15.9519 17.2424 16.0798C19.451 17.3154 21.6679 18.5372 23.8829 19.7632C23.9403 19.7954 24.0005 19.8242 24.0925 19.8711C24.2319 19.6345 24.3622 19.4126 24.5116 19.1593C24.21 18.987 23.9339 18.8226 23.6515 18.6686C21.656 17.5817 19.6588 16.4957 17.6606 15.4132C17.4966 15.3245 17.3781 15.2444 17.379 15.0242C17.3891 12.425 17.3854 9.82493 17.3863 7.22571C17.3863 7.16305 17.3954 7.09953 17.4036 7.00207C17.8465 7.00207 18.2765 6.99337 18.7048 7.01164C18.7713 7.01425 18.8779 7.13782 18.8852 7.21265C18.9089 7.46065 18.9144 7.71388 18.8925 7.96188C18.8724 8.1916 18.9763 8.28384 19.1895 8.35694C20.672 8.86338 21.9768 9.63088 22.9672 10.8265C24.1253 12.2249 24.5863 13.8425 24.5444 15.6012C24.5326 16.098 24.4433 16.5932 24.4132 17.0901C24.4068 17.1919 24.4779 17.3328 24.5617 17.3981C24.7175 17.5173 24.9098 17.593 25.1786 17.7349C25.2733 17.1188 25.3982 16.561 25.4374 15.998C25.5394 14.5213 25.2342 13.1081 24.6456 11.7411C24.1973 10.7012 24.7658 9.71268 26.0223 9.39767C25.3973 10.0782 25.7052 10.6942 25.9941 11.366C27.6114 15.133 27.1631 18.6224 24.364 21.7673C24.2492 21.8969 24.1298 22.0222 24.0305 22.1702C24.569 21.9683 25.0137 21.6228 25.3481 21.199C25.8301 20.5864 26.2929 19.9451 26.651 19.262C27.1339 18.3405 27.8483 17.9089 29 18.0499C28.4342 18.458 28.2219 19.0366 27.9677 19.6066C26.8023 22.2224 24.7349 23.8505 21.8747 24.5788C21.5358 24.665 21.1886 24.7372 20.8396 24.7737C20.6146 24.7972 20.5572 24.8747 20.5608 25.0774C20.5718 25.7083 20.5645 26.3392 20.5645 26.9701C20.5645 27.0762 20.5645 27.1824 20.5645 27.3077C19.6041 27.3077 18.6756 27.3077 17.7071 27.3077C17.697 27.1946 17.677 27.0806 17.677 26.9657C17.6752 25.965 17.687 24.9643 17.6697 23.9636C17.6651 23.6964 17.7581 23.6077 18.0251 23.5807C19.8528 23.3928 21.4228 22.6705 22.7567 21.4697C22.8779 21.3609 22.9872 21.2391 23.1312 21.0946C22.8952 20.9589 22.7048 20.817 22.4888 20.7396C22.4041 20.7091 22.2437 20.7979 22.1499 20.871C21.0948 21.6933 19.9175 22.285 18.6 22.6166C16.713 23.0925 14.9481 22.7297 13.2733 21.8639C12.7458 21.5915 12.2465 21.2591 11.7718 20.9067C11.5239 20.723 11.3435 20.6717 11.0993 20.8658C10.9964 20.9476 10.8724 21.005 10.6838 21.119C11.133 21.4871 11.5276 21.8569 11.9713 22.1641C13.0957 22.942 14.3513 23.4276 15.738 23.5711C16.0524 23.6033 16.1809 23.6956 16.1727 24.0289C16.1472 25.0504 16.1645 26.0738 16.1645 27.0954C16.1645 27.1589 16.1535 27.2224 16.1453 27.3042C15.2059 27.3042 14.2765 27.3042 13.3025 27.3042C13.297 27.2111 13.287 27.1084 13.2861 27.0049C13.2843 26.3635 13.2806 25.7214 13.2879 25.08C13.2907 24.8834 13.2314 24.8068 13.0073 24.7729C10.1371 24.343 7.88109 23.0081 6.38679 20.5943C6.1344 20.1861 5.98952 19.7189 5.7508 19.3012C5.53212 18.9192 5.25421 18.5694 5.00273 18.2048C5 18.1395 5 18.0742 5 18.009ZM14.908 9.82928C12.3449 10.1243 9.89749 14.2463 10.9335 16.5183C11.0036 16.4844 11.0738 16.454 11.1412 16.4174C12.3103 15.7926 13.4747 15.1609 14.6501 14.5456C14.8597 14.436 14.9317 14.3124 14.9298 14.0897C14.9198 12.7653 14.9253 11.44 14.9235 10.1147C14.9226 10.0207 14.9125 9.92587 14.908 9.82928ZM22.9298 16.5305C23.7472 13.846 21.4228 9.98417 18.9262 9.83363C18.9262 11.299 18.9216 12.7644 18.9362 14.2289C18.9371 14.3246 19.0547 14.4543 19.154 14.5091C19.872 14.9068 20.5982 15.2905 21.3226 15.6769C21.8556 15.9614 22.3895 16.2442 22.9298 16.5305ZM20.8998 19.8302C20.8551 19.8085 20.8132 19.7902 20.7731 19.7685C19.5558 19.0889 18.3412 18.404 17.1166 17.7357C17.0173 17.6818 16.8251 17.694 16.7203 17.7505C15.574 18.3736 14.436 19.0114 13.2961 19.6466C13.1831 19.7093 13.0738 19.7798 12.9544 19.852C15.3818 21.836 18.6246 21.7377 20.8998 19.8302Z" fill="white"/></g><defs><clipPath id="a"><rect width="34" height="34" fill="white"/></clipPath></defs></svg>