<svg width="34" height="34" viewBox="0 0 34 34" fill="none" xmlns="http://www.w3.org/2000/svg"><g clip-path="url(#a)"><circle cx="17" cy="17" r="17" fill="#FFE400"/><path d="M23.9545 20.171C23.7904 18.971 23.2418 17.9591 22.3261 17.1623C22.1911 17.0447 22.0489 16.9342 21.8893 16.8037C22.0211 16.7035 22.1316 16.6266 22.235 16.54C22.889 15.9901 23.3704 15.3168 23.6857 14.5149C23.9849 13.753 24.0599 12.9621 23.9532 12.166C23.8221 11.1896 23.4137 10.325 22.7468 9.59286C22.266 9.06557 21.7058 8.64942 21.0486 8.37867C20.416 8.11825 19.7666 8 19.0674 8L11.4637 8.00129C11.4114 8.00129 11.3577 7.99871 11.306 8.00452C11.1199 8.02585 11.0101 8.14539 11.0017 8.33473C10.9991 8.38771 11.0017 8.4407 11.0017 8.49433C11.0017 14.0199 11.0017 19.5461 11.0017 25.0717C11.0017 25.155 10.9972 25.239 11.003 25.3217C11.014 25.4678 11.1128 25.575 11.2556 25.599C11.3073 25.6074 11.3603 25.6048 11.4133 25.6048H19.2878C20.0961 25.6054 20.8522 25.3993 21.5488 24.9954C22.5478 24.4158 23.2605 23.5854 23.6857 22.4966C23.9804 21.7412 24.0624 20.9587 23.9545 20.171ZM17.9023 20.7674H16.4814V12.8555H17.8868C17.8868 12.8555 17.881 12.8516 17.8868 12.8516C17.8868 12.8529 17.8868 12.8542 17.8868 12.8555H17.903V20.7674H17.9023Z" fill="#1B1718"/></g><defs><clipPath id="a"><rect width="34" height="34" fill="white"/></clipPath></defs></svg>