<svg width="34" height="34" viewBox="0 0 34 34" fill="none" xmlns="http://www.w3.org/2000/svg"><g clip-path="url(#a)"><path d="M34 17C34 26.3888 26.3888 34 17 34C7.61116 34 0 26.3888 0 17C0 7.61116 7.61116 0 17 0C26.3888 0 34 7.61116 34 17Z" fill="#FF0000"/><path d="M4.03745 17.0239C3.99377 17.049 3.98504 17.091 4.02871 17.1161L8.04692 19.6658L9.19998 14.4658L4.03745 17.0239Z" fill="white"/><path d="M27.359 14.4658H26.3939C26.344 14.4658 26.2691 14.4826 26.2192 14.5078L21.3687 17.0239C21.3271 17.049 21.3188 17.091 21.3604 17.1161L25.121 19.6155C25.1626 19.6406 25.2374 19.6658 25.2874 19.6658H26.2525C26.3024 19.6658 26.3107 19.6406 26.2691 19.6155L22.4336 17.0658L27.359 14.5078C27.4173 14.4826 27.4089 14.4658 27.359 14.4658Z" fill="white"/><path d="M25.6206 14.4658H18.208L17 19.6658H24.4126C24.4675 19.6658 24.4767 19.6406 24.4309 19.6155L20.2121 17.0658L25.6297 14.5078C25.6846 14.4826 25.6755 14.4658 25.6206 14.4658Z" fill="white"/><path d="M29.9617 14.4658H28.9962C28.9463 14.4658 28.8714 14.4826 28.8214 14.5078L23.9693 17.0239C23.9277 17.049 23.9193 17.091 23.961 17.1161L27.7228 19.6155C27.7645 19.6406 27.8394 19.6658 27.8893 19.6658H28.8547C28.9047 19.6658 28.913 19.6406 28.8714 19.6155L25.0346 17.0658L29.97 14.5078C30.0116 14.4826 30.0116 14.4658 29.9617 14.4658Z" fill="white"/><path d="M24.7547 11H8.33734C7.4157 11 6.77829 11.5677 6.62325 12.2709C6.53712 12.6522 6.69216 12.9996 6.99363 13.2369L12.8939 17.0666H12.9025L24.772 11.0508C24.815 11.0169 24.8064 11 24.7547 11Z" fill="white"/><path d="M22.1708 23.0822L13.0863 17.0664L5.66813 20.8962C5.27058 21.1334 4.98298 21.4723 4.8984 21.8621C4.74614 22.5654 5.13524 23.133 6.04031 23.133H22.1708C22.2047 23.133 22.2131 23.1076 22.1708 23.0822Z" fill="white"/></g><defs><clipPath id="a"><rect width="34" height="34" fill="white"/></clipPath></defs></svg>