<svg width="34" height="34" viewBox="0 0 34 34" fill="none" xmlns="http://www.w3.org/2000/svg"><g clip-path="url(#a)"><circle cx="17" cy="17" r="17" fill="#004087"/><path fill-rule="evenodd" clip-rule="evenodd" d="M16.0896 14.1772H14.3584V22.8118H16.0896V14.1772Z" fill="white"/><path fill-rule="evenodd" clip-rule="evenodd" d="M17.6396 14.1788V15.7995H19.1003V20.671C19.1003 21.3323 19.2807 21.8912 19.6233 22.3196C19.9659 22.7201 20.4438 22.9344 20.9938 22.953C21.6069 22.9809 22.1299 22.8133 22.5176 22.5525H22.5446L22.5717 22.5339L22.9323 21.0063L22.9504 20.8852L22.8602 20.9318C22.3823 21.2391 21.9946 21.3789 21.5889 21.3789C21.0659 21.3789 20.7954 21.0715 20.7954 20.4102V15.7995H22.5537V14.1788H20.7954V11.4683L19.1364 12.409H19.1184V14.1695H17.6396V14.1788Z" fill="white"/><path fill-rule="evenodd" clip-rule="evenodd" d="M25.9535 14.1772H24.1953V22.8118H25.9535V14.1772Z" fill="white"/><path fill-rule="evenodd" clip-rule="evenodd" d="M10.4001 14.0112C9.17382 14.0112 8.14593 14.4118 7.32543 15.1849C6.43279 16.0138 6 17.1223 6 18.5101C6 19.87 6.43279 21.0064 7.32543 21.8261C8.14593 22.5992 9.17382 22.9997 10.4001 22.9997C11.5632 22.9997 12.564 22.506 13.3575 21.5187L13.3845 21.4908L13.3575 21.4628L12.4468 20.3078L12.4017 20.2706L12.3747 20.3171C11.7796 20.9785 11.1034 21.3045 10.3279 21.3045C9.57956 21.3045 8.95742 21.0437 8.46151 20.5034C7.98363 19.9818 7.73117 19.3298 7.73117 18.5008C7.73117 17.6718 7.98363 17.0198 8.46151 16.5075C8.95742 15.9673 9.57956 15.7065 10.3279 15.7065C11.1034 15.7065 11.7886 16.0325 12.3747 16.6938L12.4017 16.7404L12.4468 16.6938L13.3575 15.5388L13.3845 15.5202L13.3575 15.4922C12.564 14.5049 11.5542 14.0112 10.4001 14.0112Z" fill="white"/><path fill-rule="evenodd" clip-rule="evenodd" d="M15.2248 12.7444C16.5683 11.282 18.2093 10.5555 20.1208 10.5555C22.0323 10.5555 23.6733 11.282 24.9988 12.7444L25.0438 12.7724H27.0004L26.9283 12.6513C26.1529 11.5242 25.152 10.63 23.9258 9.96871C22.7176 9.30738 21.4643 9 20.1208 9C18.7954 9 17.5241 9.30738 16.3158 9.96871C15.1076 10.6207 14.0888 11.5149 13.3133 12.6513L13.2412 12.763H15.1978L15.2248 12.7444Z" fill="#FF2E2B"/></g><defs><clipPath id="a"><rect width="34" height="34" fill="white"/></clipPath></defs></svg>